<svg width="1000" height="1330" viewBox="0 0 1000 1330" fill="none" xmlns="http://www.w3.org/2000/svg">
<rect width="1000" height="1330" fill="#F2EAE3"/>
<g opacity="0.6">
<path d="M252.897 1266H250.988V1235.34H252.897V1266ZM263.397 1266H261.488V1245.49L258.995 1259.1L256.502 1245.49V1266H254.593V1235.34H256.502L258.995 1249.33L261.488 1235.34H263.397V1266ZM273.83 1266H271.921V1245.49L269.428 1259.1L266.934 1245.49V1266H265.025V1235.34H266.934L269.428 1249.33L271.921 1235.34H273.83V1266ZM281.994 1266H275.48V1235.34H281.994V1237.25H277.412V1249.72H281.23V1251.62H277.412V1264.09H281.994V1266ZM290.81 1266H288.9V1254.3C288.9 1253.65 288.743 1253.07 288.429 1252.55C288.069 1251.93 287.583 1251.62 286.969 1251.62H285.06V1266H283.15V1235.34H286.969C288.122 1235.34 289.073 1235.83 289.821 1236.82C290.48 1237.74 290.81 1238.77 290.81 1239.92V1246.26C290.81 1247.19 290.57 1248.08 290.091 1248.95C289.612 1249.81 288.953 1250.37 288.114 1250.66C288.953 1250.97 289.612 1251.55 290.091 1252.39C290.57 1253.23 290.81 1254.13 290.81 1255.08V1266ZM288.9 1247.02V1239.92C288.9 1239.28 288.743 1238.69 288.429 1238.17C288.069 1237.56 287.583 1237.25 286.969 1237.25H285.06V1249.72H286.969C287.583 1249.72 288.069 1249.41 288.429 1248.79C288.743 1248.29 288.9 1247.69 288.9 1247.02ZM300.007 1261.6C300.007 1262.77 299.67 1263.8 298.996 1264.7C298.247 1265.67 297.304 1266.16 296.166 1266.16C295.028 1266.16 294.085 1265.67 293.336 1264.7C292.662 1263.8 292.325 1262.77 292.325 1261.6V1258.34H294.257V1261.6C294.257 1262.24 294.407 1262.83 294.706 1263.35C295.065 1263.96 295.552 1264.27 296.166 1264.27C296.78 1264.27 297.267 1263.96 297.626 1263.35C297.925 1262.83 298.075 1262.24 298.075 1261.6V1258.14C298.075 1256.4 297.581 1254.7 296.593 1253.04C295.664 1251.68 294.744 1250.28 293.83 1248.86C292.827 1247.14 292.325 1245.25 292.325 1243.2V1239.74C292.325 1238.56 292.662 1237.53 293.336 1236.64C294.07 1235.64 295.013 1235.14 296.166 1235.14C297.319 1235.14 298.262 1235.64 298.996 1236.64C299.67 1237.53 300.007 1238.56 300.007 1239.74V1243H298.075V1239.74C298.075 1239.08 297.925 1238.49 297.626 1237.97C297.267 1237.35 296.78 1237.05 296.166 1237.05C295.552 1237.05 295.065 1237.35 294.706 1237.97C294.407 1238.49 294.257 1239.08 294.257 1239.74V1243.2C294.257 1244.94 294.751 1246.64 295.739 1248.3C296.653 1249.68 297.574 1251.07 298.502 1252.48C299.505 1254.22 300.007 1256.1 300.007 1258.14V1261.6ZM308.081 1266H301.567V1235.34H308.081V1237.25H303.499V1249.72H307.317V1251.62H303.499V1264.09H308.081V1266ZM326.633 1235.34L324.746 1248.1C324.597 1248.82 324.439 1249.71 324.275 1250.77C324.125 1251.82 323.96 1253.06 323.78 1254.5C323.736 1255.79 323.713 1257.07 323.713 1258.34C323.713 1258.76 323.713 1259.29 323.713 1259.94C323.713 1260.56 323.721 1261.31 323.736 1262.18C323.75 1263.04 323.758 1263.78 323.758 1264.43C323.773 1265.06 323.78 1265.58 323.78 1266H321.804V1255.8C321.804 1255.41 321.722 1254.58 321.557 1253.31C321.407 1252.02 321.167 1250.28 320.838 1248.1L318.951 1235.34H320.95L322.792 1249.85L324.634 1235.34H326.633ZM335.112 1261.6C335.112 1262.75 334.782 1263.78 334.123 1264.7C333.375 1265.67 332.431 1266.16 331.293 1266.16C330.14 1266.16 329.189 1265.67 328.441 1264.7C327.782 1263.78 327.452 1262.75 327.452 1261.6V1239.74C327.452 1238.56 327.782 1237.53 328.441 1236.64C329.174 1235.64 330.125 1235.14 331.293 1235.14C332.446 1235.14 333.39 1235.64 334.123 1236.64C334.782 1237.53 335.112 1238.56 335.112 1239.74V1261.6ZM333.202 1261.6V1239.74C333.202 1239.08 333.045 1238.49 332.731 1237.97C332.386 1237.35 331.907 1237.05 331.293 1237.05C330.679 1237.05 330.193 1237.35 329.833 1237.97C329.519 1238.49 329.362 1239.08 329.362 1239.74V1261.6C329.362 1262.26 329.519 1262.84 329.833 1263.35C330.193 1263.96 330.679 1264.27 331.293 1264.27C331.907 1264.27 332.386 1263.96 332.731 1263.35C333.045 1262.84 333.202 1262.26 333.202 1261.6ZM344.421 1261.6C344.421 1262.75 344.092 1263.78 343.433 1264.7C342.684 1265.67 341.733 1266.16 340.58 1266.16C339.442 1266.16 338.499 1265.67 337.75 1264.7C337.091 1263.78 336.762 1262.75 336.762 1261.6V1235.34H338.671V1261.6C338.671 1262.24 338.821 1262.83 339.12 1263.35C339.48 1263.96 339.966 1264.27 340.58 1264.27C341.194 1264.27 341.681 1263.96 342.04 1263.35C342.355 1262.84 342.512 1262.26 342.512 1261.6V1235.34H344.421V1261.6ZM353.731 1266H351.822V1254.3C351.822 1253.65 351.664 1253.07 351.35 1252.55C350.991 1251.93 350.504 1251.62 349.89 1251.62H347.981V1266H346.072V1235.34H349.89C351.043 1235.34 351.994 1235.83 352.742 1236.82C353.401 1237.74 353.731 1238.77 353.731 1239.92V1246.26C353.731 1247.19 353.491 1248.08 353.012 1248.95C352.533 1249.81 351.874 1250.37 351.035 1250.66C351.874 1250.97 352.533 1251.55 353.012 1252.39C353.491 1253.23 353.731 1254.13 353.731 1255.08V1266ZM351.822 1247.02V1239.92C351.822 1239.28 351.664 1238.69 351.35 1238.17C350.991 1237.56 350.504 1237.25 349.89 1237.25H347.981V1249.72H349.89C350.504 1249.72 350.991 1249.41 351.35 1248.79C351.664 1248.29 351.822 1247.69 351.822 1247.02ZM362.928 1261.6C362.928 1262.77 362.591 1263.8 361.917 1264.7C361.169 1265.67 360.225 1266.16 359.087 1266.16C357.949 1266.16 357.006 1265.67 356.257 1264.7C355.583 1263.8 355.246 1262.77 355.246 1261.6V1258.34H357.178V1261.6C357.178 1262.24 357.328 1262.83 357.627 1263.35C357.987 1263.96 358.473 1264.27 359.087 1264.27C359.701 1264.27 360.188 1263.96 360.547 1263.35C360.847 1262.83 360.996 1262.24 360.996 1261.6V1258.14C360.996 1256.4 360.502 1254.7 359.514 1253.04C358.586 1251.68 357.665 1250.28 356.751 1248.86C355.748 1247.14 355.246 1245.25 355.246 1243.2V1239.74C355.246 1238.56 355.583 1237.53 356.257 1236.64C356.991 1235.64 357.934 1235.14 359.087 1235.14C360.24 1235.14 361.184 1235.64 361.917 1236.64C362.591 1237.53 362.928 1238.56 362.928 1239.74V1243H360.996V1239.74C360.996 1239.08 360.847 1238.49 360.547 1237.97C360.188 1237.35 359.701 1237.05 359.087 1237.05C358.473 1237.05 357.987 1237.35 357.627 1237.97C357.328 1238.49 357.178 1239.08 357.178 1239.74V1243.2C357.178 1244.94 357.672 1246.64 358.66 1248.3C359.574 1249.68 360.495 1251.07 361.423 1252.48C362.426 1254.22 362.928 1256.1 362.928 1258.14V1261.6ZM371.002 1266H364.489V1235.34H371.002V1237.25H366.42V1249.72H370.239V1251.62H366.42V1264.09H371.002V1266ZM378.672 1266H372.159V1235.34H374.068V1264.09H378.672V1266ZM386.252 1237.25H381.67V1249.72H385.489V1251.62H381.67V1266H379.739V1235.34H386.252V1237.25ZM399.301 1266H397.392V1243H399.301V1266ZM408.656 1266H406.747L402.906 1250.86V1266H400.997V1243H402.906L406.747 1258.14V1243H408.656V1266ZM417.539 1244.91H414.664V1266H412.755V1244.91H409.88V1243H417.539V1244.91ZM426.422 1261.6C426.422 1262.75 426.092 1263.78 425.433 1264.7C424.685 1265.67 423.741 1266.16 422.603 1266.16C421.45 1266.16 420.499 1265.67 419.751 1264.7C419.092 1263.78 418.762 1262.75 418.762 1261.6V1247.4C418.762 1246.25 419.092 1245.22 419.751 1244.3C420.484 1243.3 421.435 1242.8 422.603 1242.8C423.756 1242.8 424.7 1243.3 425.433 1244.3C426.092 1245.22 426.422 1246.25 426.422 1247.4V1261.6ZM424.512 1261.6V1247.4C424.512 1246.76 424.355 1246.17 424.041 1245.65C423.696 1245.04 423.217 1244.73 422.603 1244.73C421.989 1244.73 421.503 1245.04 421.143 1245.65C420.829 1246.17 420.672 1246.76 420.672 1247.4V1261.6C420.672 1262.26 420.829 1262.84 421.143 1263.35C421.503 1263.96 421.989 1264.27 422.603 1264.27C423.217 1264.27 423.696 1263.96 424.041 1263.35C424.355 1262.84 424.512 1262.26 424.512 1261.6ZM445.333 1244.91H442.458V1266H440.549V1244.91H437.674V1243H445.333V1244.91ZM454.261 1266H452.351V1255.47H448.511V1266H446.601V1243H448.511V1253.53H452.351V1243H454.261V1266ZM462.425 1266H455.911V1243H462.425V1244.91H457.82V1253.53H461.661V1255.47H457.82V1264.09H462.425V1266ZM481.381 1261.6C481.381 1262.75 481.051 1263.78 480.392 1264.7C479.644 1265.67 478.693 1266.16 477.54 1266.16C476.402 1266.16 475.459 1265.67 474.71 1264.7C474.051 1263.78 473.722 1262.75 473.722 1261.6V1239.74C473.722 1238.56 474.051 1237.53 474.71 1236.64C475.444 1235.64 476.387 1235.14 477.54 1235.14C478.708 1235.14 479.659 1235.64 480.392 1236.64C481.051 1237.53 481.381 1238.56 481.381 1239.74V1243H479.472V1239.74C479.472 1239.08 479.314 1238.49 479 1237.97C478.641 1237.35 478.154 1237.05 477.54 1237.05C476.926 1237.05 476.439 1237.35 476.08 1237.97C475.78 1238.49 475.631 1239.08 475.631 1239.74V1261.6C475.631 1262.24 475.78 1262.83 476.08 1263.35C476.439 1263.96 476.926 1264.27 477.54 1264.27C478.154 1264.27 478.641 1263.96 479 1263.35C479.314 1262.84 479.472 1262.26 479.472 1261.6V1258.34H481.381V1261.6ZM484.851 1266H482.941V1235.34H484.851V1266ZM494.205 1266H492.296L488.455 1245.49V1266H486.546V1235.34H488.455L492.296 1255.85V1235.34H494.205V1266ZM502.392 1266H495.878V1235.34H502.392V1237.25H497.81V1249.72H501.628V1251.62H497.81V1264.09H502.392V1266ZM512.353 1266H510.443V1245.49L507.95 1259.1L505.457 1245.49V1266H503.548V1235.34H505.457L507.95 1249.33L510.443 1235.34H512.353V1266ZM523.257 1266H521.258L520.562 1260.25H516.339L515.665 1266H513.666L517.417 1235.34H519.416L523.257 1266ZM520.337 1258.34L518.428 1242.51L516.541 1258.34H520.337ZM529.939 1237.25H527.064V1266H525.154V1237.25H522.279V1235.34H529.939V1237.25ZM538.777 1261.6C538.777 1262.75 538.447 1263.78 537.788 1264.7C537.04 1265.67 536.096 1266.16 534.958 1266.16C533.805 1266.16 532.854 1265.67 532.106 1264.7C531.447 1263.78 531.117 1262.75 531.117 1261.6V1239.74C531.117 1238.56 531.447 1237.53 532.106 1236.64C532.839 1235.64 533.79 1235.14 534.958 1235.14C536.111 1235.14 537.055 1235.64 537.788 1236.64C538.447 1237.53 538.777 1238.56 538.777 1239.74V1261.6ZM536.867 1261.6V1239.74C536.867 1239.08 536.71 1238.49 536.396 1237.97C536.051 1237.35 535.572 1237.05 534.958 1237.05C534.344 1237.05 533.858 1237.35 533.498 1237.97C533.184 1238.49 533.027 1239.08 533.027 1239.74V1261.6C533.027 1262.26 533.184 1262.84 533.498 1263.35C533.858 1263.96 534.344 1264.27 534.958 1264.27C535.572 1264.27 536.051 1263.96 536.396 1263.35C536.71 1262.84 536.867 1262.26 536.867 1261.6ZM548.086 1266H546.177V1264.65C545.578 1265.66 544.747 1266.16 543.684 1266.16C542.606 1266.16 541.775 1265.65 541.191 1264.63C540.682 1263.76 540.427 1262.75 540.427 1261.6V1239.74C540.427 1238.56 540.756 1237.53 541.415 1236.64C542.149 1235.64 543.092 1235.14 544.245 1235.14C545.413 1235.14 546.364 1235.64 547.098 1236.64C547.757 1237.53 548.086 1238.56 548.086 1239.74V1243H546.177V1239.74C546.177 1239.08 546.02 1238.49 545.705 1237.97C545.346 1237.35 544.859 1237.05 544.245 1237.05C543.631 1237.05 543.145 1237.35 542.785 1237.97C542.486 1238.49 542.336 1239.08 542.336 1239.74V1261.6C542.336 1262.24 542.486 1262.83 542.785 1263.35C543.145 1263.96 543.631 1264.27 544.245 1264.27C544.859 1264.27 545.346 1263.96 545.705 1263.35C546.02 1262.84 546.177 1262.26 546.177 1261.6V1251.62H544.245V1249.72H548.086V1266ZM557.396 1266H555.487V1254.3C555.487 1253.65 555.329 1253.07 555.015 1252.55C554.656 1251.93 554.169 1251.62 553.555 1251.62H551.646V1266H549.737V1235.34H553.555C554.708 1235.34 555.659 1235.83 556.407 1236.82C557.066 1237.74 557.396 1238.77 557.396 1239.92V1246.26C557.396 1247.19 557.156 1248.08 556.677 1248.95C556.198 1249.81 555.539 1250.37 554.7 1250.66C555.539 1250.97 556.198 1251.55 556.677 1252.39C557.156 1253.23 557.396 1254.13 557.396 1255.08V1266ZM555.487 1247.02V1239.92C555.487 1239.28 555.329 1238.69 555.015 1238.17C554.656 1237.56 554.169 1237.25 553.555 1237.25H551.646V1249.72H553.555C554.169 1249.72 554.656 1249.41 555.015 1248.79C555.329 1248.29 555.487 1247.69 555.487 1247.02ZM568.323 1266H566.324L565.627 1260.25H561.405L560.731 1266H558.732L562.483 1235.34H564.482L568.323 1266ZM565.403 1258.34L563.493 1242.51L561.607 1258.34H565.403ZM577.318 1247.02C577.318 1248.2 576.988 1249.24 576.329 1250.12C575.596 1251.12 574.645 1251.62 573.477 1251.62H571.568V1266H569.659V1235.34H573.477C574.63 1235.34 575.581 1235.83 576.329 1236.82C576.988 1237.74 577.318 1238.77 577.318 1239.92V1247.02ZM575.409 1247.02V1239.92C575.409 1239.28 575.251 1238.69 574.937 1238.17C574.577 1237.56 574.091 1237.25 573.477 1237.25H571.568V1249.72H573.477C574.091 1249.72 574.577 1249.41 574.937 1248.79C575.251 1248.29 575.409 1247.69 575.409 1247.02ZM586.133 1266H584.224V1251.62H580.383V1266H578.474V1235.34H580.383V1249.72H584.224V1235.34H586.133V1266ZM589.693 1266H587.784V1235.34H589.693V1266ZM599.047 1261.6C599.047 1262.75 598.718 1263.78 598.059 1264.7C597.31 1265.67 596.359 1266.16 595.206 1266.16C594.068 1266.16 593.125 1265.67 592.376 1264.7C591.718 1263.78 591.388 1262.75 591.388 1261.6V1239.74C591.388 1238.56 591.718 1237.53 592.376 1236.64C593.11 1235.64 594.053 1235.14 595.206 1235.14C596.374 1235.14 597.325 1235.64 598.059 1236.64C598.718 1237.53 599.047 1238.56 599.047 1239.74V1243H597.138V1239.74C597.138 1239.08 596.981 1238.49 596.666 1237.97C596.307 1237.35 595.82 1237.05 595.206 1237.05C594.593 1237.05 594.106 1237.35 593.747 1237.97C593.447 1238.49 593.297 1239.08 593.297 1239.74V1261.6C593.297 1262.24 593.447 1262.83 593.747 1263.35C594.106 1263.96 594.593 1264.27 595.206 1264.27C595.82 1264.27 596.307 1263.96 596.666 1263.35C596.981 1262.84 597.138 1262.26 597.138 1261.6V1258.34H599.047V1261.6ZM609.884 1266H607.885L607.189 1260.25H602.966L602.292 1266H600.293L604.044 1235.34H606.043L609.884 1266ZM606.964 1258.34L605.055 1242.51L603.168 1258.34H606.964ZM617.734 1266H611.22V1235.34H613.129V1264.09H617.734V1266ZM627.583 1255.47H619.923V1253.53H627.583V1255.47ZM636.937 1266H630.423V1235.34H632.333V1264.09H636.937V1266ZM639.89 1266H637.981V1235.34H639.89V1266ZM649.245 1266H647.246L643.495 1251.89V1266H641.586V1235.34H643.495V1249.33L647.246 1235.34H649.245L645.134 1250.66L649.245 1266ZM657.297 1266H650.783V1235.34H657.297V1237.25H652.715V1249.72H656.533V1251.62H652.715V1264.09H657.297V1266ZM675.062 1266H668.549V1235.34H675.062V1237.25H670.48V1249.72H674.299V1251.62H670.48V1264.09H675.062V1266ZM683.765 1266H681.766L679.925 1254.54L678.083 1266H676.084L678.936 1250.66L676.084 1235.34H678.083L679.925 1246.8L681.766 1235.34H683.765L680.935 1250.66L683.765 1266ZM692.963 1247.02C692.963 1248.2 692.633 1249.24 691.974 1250.12C691.241 1251.12 690.29 1251.62 689.122 1251.62H687.213V1266H685.304V1235.34H689.122C690.275 1235.34 691.226 1235.83 691.974 1236.82C692.633 1237.74 692.963 1238.77 692.963 1239.92V1247.02ZM691.054 1247.02V1239.92C691.054 1239.28 690.896 1238.69 690.582 1238.17C690.223 1237.56 689.736 1237.25 689.122 1237.25H687.213V1249.72H689.122C689.736 1249.72 690.223 1249.41 690.582 1248.79C690.896 1248.29 691.054 1247.69 691.054 1247.02ZM700.655 1266H694.142V1235.34H700.655V1237.25H696.073V1249.72H699.892V1251.62H696.073V1264.09H700.655V1266ZM709.471 1266H707.561V1254.3C707.561 1253.65 707.404 1253.07 707.09 1252.55C706.73 1251.93 706.244 1251.62 705.63 1251.62H703.721V1266H701.811V1235.34H705.63C706.783 1235.34 707.734 1235.83 708.482 1236.82C709.141 1237.74 709.471 1238.77 709.471 1239.92V1246.26C709.471 1247.19 709.231 1248.08 708.752 1248.95C708.273 1249.81 707.614 1250.37 706.775 1250.66C707.614 1250.97 708.273 1251.55 708.752 1252.39C709.231 1253.23 709.471 1254.13 709.471 1255.08V1266ZM707.561 1247.02V1239.92C707.561 1239.28 707.404 1238.69 707.09 1238.17C706.73 1237.56 706.244 1237.25 705.63 1237.25H703.721V1249.72H705.63C706.244 1249.72 706.73 1249.41 707.09 1248.79C707.404 1248.29 707.561 1247.69 707.561 1247.02ZM713.03 1266H711.121V1235.34H713.03V1266ZM721.262 1266H714.748V1235.34H721.262V1237.25H716.68V1249.72H720.498V1251.62H716.68V1264.09H721.262V1266ZM730.077 1266H728.168L724.327 1245.49V1266H722.418V1235.34H724.327L728.168 1255.85V1235.34H730.077V1266ZM739.387 1261.6C739.387 1262.75 739.057 1263.78 738.399 1264.7C737.65 1265.67 736.699 1266.16 735.546 1266.16C734.408 1266.16 733.465 1265.67 732.716 1264.7C732.057 1263.78 731.728 1262.75 731.728 1261.6V1239.74C731.728 1238.56 732.057 1237.53 732.716 1236.64C733.45 1235.64 734.393 1235.14 735.546 1235.14C736.714 1235.14 737.665 1235.64 738.399 1236.64C739.057 1237.53 739.387 1238.56 739.387 1239.74V1243H737.478V1239.74C737.478 1239.08 737.32 1238.49 737.006 1237.97C736.647 1237.35 736.16 1237.05 735.546 1237.05C734.932 1237.05 734.445 1237.35 734.086 1237.97C733.787 1238.49 733.637 1239.08 733.637 1239.74V1261.6C733.637 1262.24 733.787 1262.83 734.086 1263.35C734.445 1263.96 734.932 1264.27 735.546 1264.27C736.16 1264.27 736.647 1263.96 737.006 1263.35C737.32 1262.84 737.478 1262.26 737.478 1261.6V1258.34H739.387V1261.6ZM747.484 1266H740.97V1235.34H747.484V1237.25H742.902V1249.72H746.72V1251.62H742.902V1264.09H747.484V1266ZM291.337 1281.91H288.462V1303H286.553V1281.91H283.678V1280H291.337V1281.91ZM300.22 1298.6C300.22 1299.75 299.89 1300.78 299.232 1301.7C298.483 1302.67 297.539 1303.16 296.401 1303.16C295.248 1303.16 294.298 1302.67 293.549 1301.7C292.89 1300.78 292.561 1299.75 292.561 1298.6V1284.4C292.561 1283.25 292.89 1282.22 293.549 1281.3C294.283 1280.3 295.233 1279.8 296.401 1279.8C297.554 1279.8 298.498 1280.3 299.232 1281.3C299.89 1282.22 300.22 1283.25 300.22 1284.4V1298.6ZM298.311 1298.6V1284.4C298.311 1283.76 298.153 1283.17 297.839 1282.65C297.495 1282.04 297.015 1281.73 296.401 1281.73C295.788 1281.73 295.301 1282.04 294.941 1282.65C294.627 1283.17 294.47 1283.76 294.47 1284.4V1298.6C294.47 1299.26 294.627 1299.84 294.941 1300.35C295.301 1300.96 295.788 1301.27 296.401 1301.27C297.015 1301.27 297.495 1300.96 297.839 1300.35C298.153 1299.84 298.311 1299.26 298.311 1298.6ZM319.603 1298.4C319.603 1299.59 319.266 1300.63 318.592 1301.5C317.858 1302.5 316.915 1303 315.762 1303H311.921V1272.34H315.762C316.9 1272.34 317.843 1272.83 318.592 1273.82C319.266 1274.72 319.603 1275.75 319.603 1276.92V1298.4ZM317.671 1298.4V1276.92C317.671 1276.28 317.521 1275.69 317.222 1275.17C316.862 1274.56 316.376 1274.25 315.762 1274.25H313.853V1301.09H315.762C316.376 1301.09 316.862 1300.78 317.222 1300.17C317.521 1299.65 317.671 1299.05 317.671 1298.4ZM323.162 1303H321.253V1272.34H323.162V1303ZM332.405 1298.6C332.405 1299.77 332.068 1300.8 331.394 1301.7C330.645 1302.67 329.702 1303.16 328.564 1303.16C327.426 1303.16 326.482 1302.67 325.734 1301.7C325.06 1300.8 324.723 1299.77 324.723 1298.6V1295.34H326.655V1298.6C326.655 1299.24 326.804 1299.83 327.104 1300.35C327.463 1300.96 327.95 1301.27 328.564 1301.27C329.178 1301.27 329.664 1300.96 330.024 1300.35C330.323 1299.83 330.473 1299.24 330.473 1298.6V1295.14C330.473 1293.4 329.979 1291.7 328.99 1290.04C328.062 1288.68 327.141 1287.28 326.228 1285.86C325.225 1284.14 324.723 1282.25 324.723 1280.2V1276.74C324.723 1275.56 325.06 1274.53 325.734 1273.64C326.467 1272.64 327.411 1272.14 328.564 1272.14C329.717 1272.14 330.66 1272.64 331.394 1273.64C332.068 1274.53 332.405 1275.56 332.405 1276.74V1280H330.473V1276.74C330.473 1276.08 330.323 1275.49 330.024 1274.97C329.664 1274.35 329.178 1274.05 328.564 1274.05C327.95 1274.05 327.463 1274.35 327.104 1274.97C326.804 1275.49 326.655 1276.08 326.655 1276.74V1280.2C326.655 1281.94 327.149 1283.64 328.137 1285.3C329.05 1286.68 329.971 1288.07 330.9 1289.48C331.903 1291.22 332.405 1293.1 332.405 1295.14V1298.6ZM341.602 1298.6C341.602 1299.75 341.272 1300.78 340.614 1301.7C339.865 1302.67 338.914 1303.16 337.761 1303.16C336.623 1303.16 335.68 1302.67 334.931 1301.7C334.272 1300.78 333.943 1299.75 333.943 1298.6V1276.74C333.943 1275.56 334.272 1274.53 334.931 1273.64C335.665 1272.64 336.608 1272.14 337.761 1272.14C338.929 1272.14 339.88 1272.64 340.614 1273.64C341.272 1274.53 341.602 1275.56 341.602 1276.74V1280H339.693V1276.74C339.693 1276.08 339.535 1275.49 339.221 1274.97C338.862 1274.35 338.375 1274.05 337.761 1274.05C337.147 1274.05 336.66 1274.35 336.301 1274.97C336.002 1275.49 335.852 1276.08 335.852 1276.74V1298.6C335.852 1299.24 336.002 1299.83 336.301 1300.35C336.66 1300.96 337.147 1301.27 337.761 1301.27C338.375 1301.27 338.862 1300.96 339.221 1300.35C339.535 1299.84 339.693 1299.26 339.693 1298.6V1295.34H341.602V1298.6ZM350.777 1298.6C350.777 1299.75 350.447 1300.78 349.788 1301.7C349.04 1302.67 348.096 1303.16 346.958 1303.16C345.805 1303.16 344.854 1302.67 344.106 1301.7C343.447 1300.78 343.118 1299.75 343.118 1298.6V1276.74C343.118 1275.56 343.447 1274.53 344.106 1273.64C344.84 1272.64 345.79 1272.14 346.958 1272.14C348.111 1272.14 349.055 1272.64 349.788 1273.64C350.447 1274.53 350.777 1275.56 350.777 1276.74V1298.6ZM348.868 1298.6V1276.74C348.868 1276.08 348.71 1275.49 348.396 1274.97C348.051 1274.35 347.572 1274.05 346.958 1274.05C346.344 1274.05 345.858 1274.35 345.498 1274.97C345.184 1275.49 345.027 1276.08 345.027 1276.74V1298.6C345.027 1299.26 345.184 1299.84 345.498 1300.35C345.858 1300.96 346.344 1301.27 346.958 1301.27C347.572 1301.27 348.051 1300.96 348.396 1300.35C348.71 1299.84 348.868 1299.26 348.868 1298.6ZM361.659 1272.34L357.818 1303H355.819L352.068 1272.34H354.067L356.829 1295.83L359.66 1272.34H361.659ZM369.531 1303H363.017V1272.34H369.531V1274.25H364.949V1286.72H368.767V1288.62H364.949V1301.09H369.531V1303ZM378.346 1303H376.437V1291.3C376.437 1290.65 376.28 1290.07 375.965 1289.55C375.606 1288.93 375.119 1288.62 374.505 1288.62H372.596V1303H370.687V1272.34H374.505C375.658 1272.34 376.609 1272.83 377.358 1273.82C378.017 1274.74 378.346 1275.77 378.346 1276.92V1283.26C378.346 1284.19 378.107 1285.08 377.627 1285.95C377.148 1286.81 376.489 1287.37 375.651 1287.66C376.489 1287.97 377.148 1288.55 377.627 1289.39C378.107 1290.23 378.346 1291.13 378.346 1292.08V1303ZM376.437 1284.02V1276.92C376.437 1276.28 376.28 1275.69 375.965 1275.17C375.606 1274.56 375.119 1274.25 374.505 1274.25H372.596V1286.72H374.505C375.119 1286.72 375.606 1286.41 375.965 1285.79C376.28 1285.29 376.437 1284.69 376.437 1284.02ZM397.684 1298.6C397.684 1299.75 397.355 1300.78 396.696 1301.7C395.947 1302.67 395.004 1303.16 393.866 1303.16C392.713 1303.16 391.762 1302.67 391.013 1301.7C390.354 1300.78 390.025 1299.75 390.025 1298.6V1284.4C390.025 1283.25 390.354 1282.22 391.013 1281.3C391.747 1280.3 392.698 1279.8 393.866 1279.8C395.019 1279.8 395.962 1280.3 396.696 1281.3C397.355 1282.22 397.684 1283.25 397.684 1284.4V1298.6ZM395.775 1298.6V1284.4C395.775 1283.76 395.618 1283.17 395.303 1282.65C394.959 1282.04 394.48 1281.73 393.866 1281.73C393.252 1281.73 392.765 1282.04 392.406 1282.65C392.091 1283.17 391.934 1283.76 391.934 1284.4V1298.6C391.934 1299.26 392.091 1299.84 392.406 1300.35C392.765 1300.96 393.252 1301.27 393.866 1301.27C394.48 1301.27 394.959 1300.96 395.303 1300.35C395.618 1299.84 395.775 1299.26 395.775 1298.6ZM406.904 1298.6C406.904 1299.75 406.574 1300.78 405.916 1301.7C405.167 1302.67 404.224 1303.16 403.086 1303.16C401.933 1303.16 400.982 1302.67 400.233 1301.7C399.574 1300.78 399.245 1299.75 399.245 1298.6V1280H401.154V1298.6C401.154 1299.26 401.311 1299.84 401.626 1300.35C401.985 1300.96 402.472 1301.27 403.086 1301.27C403.699 1301.27 404.179 1300.96 404.523 1300.35C404.837 1299.84 404.995 1299.26 404.995 1298.6V1280H406.904V1298.6ZM416.213 1303H414.304V1295.14C414.304 1294.49 414.147 1293.91 413.833 1293.39C413.473 1292.77 412.987 1292.47 412.373 1292.47H410.463V1303H408.554V1280H412.373C413.541 1280 414.491 1280.5 415.225 1281.5C415.884 1282.39 416.213 1283.42 416.213 1284.6V1287.1C416.213 1288.03 415.974 1288.92 415.495 1289.79C415.016 1290.65 414.357 1291.22 413.518 1291.5C414.357 1291.78 415.016 1292.36 415.495 1293.23C415.974 1294.07 416.213 1294.96 416.213 1295.9V1303ZM414.304 1287.86V1284.6C414.304 1283.95 414.147 1283.35 413.833 1282.83C413.473 1282.22 412.987 1281.91 412.373 1281.91H410.463V1290.53H412.373C412.987 1290.53 413.473 1290.23 413.833 1289.61C414.147 1289.1 414.304 1288.52 414.304 1287.86ZM435.551 1303H433.642L429.801 1282.49V1303H427.892V1272.34H429.801L433.642 1292.85V1272.34H435.551V1303ZM443.738 1303H437.224V1272.34H443.738V1274.25H439.156V1286.72H442.974V1288.62H439.156V1301.09H443.738V1303ZM456.08 1272.34L454.171 1303H452.172L450.375 1288.42L448.555 1303H446.579L444.737 1272.34H446.736L447.769 1295.07L450.397 1278.09L452.98 1295.07L454.081 1272.34H456.08ZM464.109 1303H457.596V1272.34H464.109V1274.25H459.527V1286.72H463.346V1288.62H459.527V1301.09H464.109V1303ZM472.812 1298.6C472.812 1299.77 472.475 1300.8 471.802 1301.7C471.053 1302.67 470.11 1303.16 468.972 1303.16C467.834 1303.16 466.89 1302.67 466.141 1301.7C465.468 1300.8 465.131 1299.77 465.131 1298.6V1295.34H467.062V1298.6C467.062 1299.24 467.212 1299.83 467.512 1300.35C467.871 1300.96 468.358 1301.27 468.972 1301.27C469.585 1301.27 470.072 1300.96 470.431 1300.35C470.731 1299.83 470.881 1299.24 470.881 1298.6V1295.14C470.881 1293.4 470.387 1291.7 469.398 1290.04C468.47 1288.68 467.549 1287.28 466.636 1285.86C465.632 1284.14 465.131 1282.25 465.131 1280.2V1276.74C465.131 1275.56 465.468 1274.53 466.141 1273.64C466.875 1272.64 467.819 1272.14 468.972 1272.14C470.125 1272.14 471.068 1272.64 471.802 1273.64C472.475 1274.53 472.812 1275.56 472.812 1276.74V1280H470.881V1276.74C470.881 1276.08 470.731 1275.49 470.431 1274.97C470.072 1274.35 469.585 1274.05 468.972 1274.05C468.358 1274.05 467.871 1274.35 467.512 1274.97C467.212 1275.49 467.062 1276.08 467.062 1276.74V1280.2C467.062 1281.94 467.556 1283.64 468.545 1285.3C469.458 1286.68 470.379 1288.07 471.307 1289.48C472.311 1291.22 472.812 1293.1 472.812 1295.14V1298.6ZM481.538 1274.25H478.663V1303H476.754V1274.25H473.879V1272.34H481.538V1274.25ZM500.494 1298.6C500.494 1299.75 500.165 1300.78 499.506 1301.7C498.757 1302.67 497.806 1303.16 496.653 1303.16C495.515 1303.16 494.572 1302.67 493.823 1301.7C493.164 1300.78 492.835 1299.75 492.835 1298.6V1276.74C492.835 1275.56 493.164 1274.53 493.823 1273.64C494.557 1272.64 495.5 1272.14 496.653 1272.14C497.821 1272.14 498.772 1272.64 499.506 1273.64C500.165 1274.53 500.494 1275.56 500.494 1276.74V1280H498.585V1276.74C498.585 1276.08 498.428 1275.49 498.113 1274.97C497.754 1274.35 497.267 1274.05 496.653 1274.05C496.039 1274.05 495.553 1274.35 495.193 1274.97C494.894 1275.49 494.744 1276.08 494.744 1276.74V1298.6C494.744 1299.24 494.894 1299.83 495.193 1300.35C495.553 1300.96 496.039 1301.27 496.653 1301.27C497.267 1301.27 497.754 1300.96 498.113 1300.35C498.428 1299.84 498.585 1299.26 498.585 1298.6V1295.34H500.494V1298.6ZM509.669 1298.6C509.669 1299.75 509.34 1300.78 508.681 1301.7C507.932 1302.67 506.989 1303.16 505.851 1303.16C504.698 1303.16 503.747 1302.67 502.998 1301.7C502.339 1300.78 502.01 1299.75 502.01 1298.6V1276.74C502.01 1275.56 502.339 1274.53 502.998 1273.64C503.732 1272.64 504.683 1272.14 505.851 1272.14C507.004 1272.14 507.947 1272.64 508.681 1273.64C509.34 1274.53 509.669 1275.56 509.669 1276.74V1298.6ZM507.76 1298.6V1276.74C507.76 1276.08 507.603 1275.49 507.288 1274.97C506.944 1274.35 506.465 1274.05 505.851 1274.05C505.237 1274.05 504.75 1274.35 504.391 1274.97C504.076 1275.49 503.919 1276.08 503.919 1276.74V1298.6C503.919 1299.26 504.076 1299.84 504.391 1300.35C504.75 1300.96 505.237 1301.27 505.851 1301.27C506.465 1301.27 506.944 1300.96 507.288 1300.35C507.603 1299.84 507.76 1299.26 507.76 1298.6ZM517.833 1303H511.319V1272.34H513.229V1301.09H517.833V1303ZM525.391 1303H518.877V1272.34H520.786V1301.09H525.391V1303ZM532.971 1303H526.457V1272.34H532.971V1274.25H528.389V1286.72H532.207V1288.62H528.389V1301.09H532.971V1303ZM541.786 1298.6C541.786 1299.75 541.457 1300.78 540.798 1301.7C540.049 1302.67 539.098 1303.16 537.945 1303.16C536.807 1303.16 535.864 1302.67 535.115 1301.7C534.457 1300.78 534.127 1299.75 534.127 1298.6V1276.74C534.127 1275.56 534.457 1274.53 535.115 1273.64C535.849 1272.64 536.793 1272.14 537.945 1272.14C539.113 1272.14 540.064 1272.64 540.798 1273.64C541.457 1274.53 541.786 1275.56 541.786 1276.74V1280H539.877V1276.74C539.877 1276.08 539.72 1275.49 539.405 1274.97C539.046 1274.35 538.559 1274.05 537.945 1274.05C537.332 1274.05 536.845 1274.35 536.486 1274.97C536.186 1275.49 536.036 1276.08 536.036 1276.74V1298.6C536.036 1299.24 536.186 1299.83 536.486 1300.35C536.845 1300.96 537.332 1301.27 537.945 1301.27C538.559 1301.27 539.046 1300.96 539.405 1300.35C539.72 1299.84 539.877 1299.26 539.877 1298.6V1295.34H541.786V1298.6ZM550.534 1274.25H547.659V1303H545.75V1274.25H542.875V1272.34H550.534V1274.25ZM553.667 1303H551.758V1272.34H553.667V1303ZM562.977 1298.6C562.977 1299.75 562.647 1300.78 561.989 1301.7C561.24 1302.67 560.297 1303.16 559.159 1303.16C558.006 1303.16 557.055 1302.67 556.306 1301.7C555.647 1300.78 555.318 1299.75 555.318 1298.6V1276.74C555.318 1275.56 555.647 1274.53 556.306 1273.64C557.04 1272.64 557.991 1272.14 559.159 1272.14C560.312 1272.14 561.255 1272.64 561.989 1273.64C562.647 1274.53 562.977 1275.56 562.977 1276.74V1298.6ZM561.068 1298.6V1276.74C561.068 1276.08 560.91 1275.49 560.596 1274.97C560.252 1274.35 559.772 1274.05 559.159 1274.05C558.545 1274.05 558.058 1274.35 557.699 1274.97C557.384 1275.49 557.227 1276.08 557.227 1276.74V1298.6C557.227 1299.26 557.384 1299.84 557.699 1300.35C558.058 1300.96 558.545 1301.27 559.159 1301.27C559.772 1301.27 560.252 1300.96 560.596 1300.35C560.91 1299.84 561.068 1299.26 561.068 1298.6ZM572.286 1303H570.377L566.536 1282.49V1303H564.627V1272.34H566.536L570.377 1292.85V1272.34H572.286V1303ZM590.748 1272.34L590.367 1276.16H589.221L588.839 1272.34H590.748ZM586.908 1272.34L586.526 1276.16H585.38L584.998 1272.34H586.908ZM601.069 1298.6C601.069 1299.75 600.739 1300.78 600.081 1301.7C599.332 1302.67 598.381 1303.16 597.228 1303.16C596.09 1303.16 595.147 1302.67 594.398 1301.7C593.739 1300.78 593.41 1299.75 593.41 1298.6V1276.74C593.41 1275.56 593.739 1274.53 594.398 1273.64C595.132 1272.64 596.075 1272.14 597.228 1272.14C598.396 1272.14 599.347 1272.64 600.081 1273.64C600.739 1274.53 601.069 1275.56 601.069 1276.74V1280H599.16V1276.74C599.16 1276.08 599.002 1275.49 598.688 1274.97C598.329 1274.35 597.842 1274.05 597.228 1274.05C596.614 1274.05 596.127 1274.35 595.768 1274.97C595.469 1275.49 595.319 1276.08 595.319 1276.74V1298.6C595.319 1299.24 595.469 1299.83 595.768 1300.35C596.127 1300.96 596.614 1301.27 597.228 1301.27C597.842 1301.27 598.329 1300.96 598.688 1300.35C599.002 1299.84 599.16 1299.26 599.16 1298.6V1295.34H601.069V1298.6ZM610.289 1303H608.379V1288.62H604.539V1303H602.629V1272.34H604.539V1286.72H608.379V1272.34H610.289V1303ZM621.215 1303H619.216L618.52 1297.25H614.297L613.624 1303H611.625L615.375 1272.34H617.375L621.215 1303ZM618.295 1295.34L616.386 1279.51L614.5 1295.34H618.295ZM630.211 1284.02C630.211 1285.2 629.881 1286.24 629.222 1287.12C628.489 1288.12 627.538 1288.62 626.37 1288.62H624.461V1303H622.551V1272.34H626.37C627.523 1272.34 628.474 1272.83 629.222 1273.82C629.881 1274.74 630.211 1275.77 630.211 1276.92V1284.02ZM628.301 1284.02V1276.92C628.301 1276.28 628.144 1275.69 627.83 1275.17C627.47 1274.56 626.984 1274.25 626.37 1274.25H624.461V1286.72H626.37C626.984 1286.72 627.47 1286.41 627.83 1285.79C628.144 1285.29 628.301 1284.69 628.301 1284.02ZM638.554 1274.25H635.679V1303H633.77V1274.25H630.895V1272.34H638.554V1274.25ZM646.314 1303H639.8V1272.34H646.314V1274.25H641.732V1286.72H645.55V1288.62H641.732V1301.09H646.314V1303ZM655.13 1303H653.22V1291.3C653.22 1290.65 653.063 1290.07 652.749 1289.55C652.389 1288.93 651.903 1288.62 651.289 1288.62H649.38V1303H647.47V1272.34H651.289C652.442 1272.34 653.393 1272.83 654.141 1273.82C654.8 1274.74 655.13 1275.77 655.13 1276.92V1283.26C655.13 1284.19 654.89 1285.08 654.411 1285.95C653.932 1286.81 653.273 1287.37 652.434 1287.66C653.273 1287.97 653.932 1288.55 654.411 1289.39C654.89 1290.23 655.13 1291.13 655.13 1292.08V1303ZM653.22 1284.02V1276.92C653.22 1276.28 653.063 1275.69 652.749 1275.17C652.389 1274.56 651.903 1274.25 651.289 1274.25H649.38V1286.72H651.289C651.903 1286.72 652.389 1286.41 652.749 1285.79C653.063 1285.29 653.22 1284.69 653.22 1284.02ZM674.557 1298.4C674.557 1299.59 674.22 1300.63 673.547 1301.5C672.813 1302.5 671.87 1303 670.717 1303H666.876V1272.34H670.717C671.855 1272.34 672.798 1272.83 673.547 1273.82C674.22 1274.72 674.557 1275.75 674.557 1276.92V1283.26C674.557 1284.19 674.318 1285.08 673.839 1285.95C673.359 1286.79 672.701 1287.36 671.862 1287.66C672.701 1287.97 673.359 1288.55 673.839 1289.39C674.318 1290.23 674.557 1291.13 674.557 1292.08V1298.4ZM672.626 1284.02V1276.92C672.626 1276.28 672.476 1275.69 672.177 1275.17C671.817 1274.56 671.33 1274.25 670.717 1274.25H668.807V1286.72H670.717C671.33 1286.72 671.817 1286.41 672.177 1285.79C672.476 1285.27 672.626 1284.68 672.626 1284.02ZM672.626 1298.4V1291.3C672.626 1290.65 672.476 1290.07 672.177 1289.55C671.817 1288.93 671.33 1288.62 670.717 1288.62H668.807V1301.09H670.717C671.33 1301.09 671.817 1300.78 672.177 1300.17C672.476 1299.65 672.626 1299.05 672.626 1298.4ZM683.822 1303H681.913V1291.3C681.913 1290.65 681.756 1290.07 681.441 1289.55C681.082 1288.93 680.595 1288.62 679.981 1288.62H678.072V1303H676.163V1272.34H679.981C681.134 1272.34 682.085 1272.83 682.834 1273.82C683.493 1274.74 683.822 1275.77 683.822 1276.92V1283.26C683.822 1284.19 683.582 1285.08 683.103 1285.95C682.624 1286.81 681.965 1287.37 681.127 1287.66C681.965 1287.97 682.624 1288.55 683.103 1289.39C683.582 1290.23 683.822 1291.13 683.822 1292.08V1303ZM681.913 1284.02V1276.92C681.913 1276.28 681.756 1275.69 681.441 1275.17C681.082 1274.56 680.595 1274.25 679.981 1274.25H678.072V1286.72H679.981C680.595 1286.72 681.082 1286.41 681.441 1285.79C681.756 1285.29 681.913 1284.69 681.913 1284.02ZM687.382 1303H685.473V1272.34H687.382V1303ZM696.781 1298.4C696.781 1299.59 696.444 1300.63 695.77 1301.5C695.037 1302.5 694.093 1303 692.94 1303H689.099V1272.34H692.94C694.078 1272.34 695.022 1272.83 695.77 1273.82C696.444 1274.72 696.781 1275.75 696.781 1276.92V1298.4ZM694.849 1298.4V1276.92C694.849 1276.28 694.7 1275.69 694.4 1275.17C694.041 1274.56 693.554 1274.25 692.94 1274.25H691.031V1301.09H692.94C693.554 1301.09 694.041 1300.78 694.4 1300.17C694.7 1299.65 694.849 1299.05 694.849 1298.4ZM704.968 1303H698.454V1272.34H704.968V1274.25H700.386V1286.72H704.204V1288.62H700.386V1301.09H704.968V1303ZM712.862 1272.34L712.48 1276.16H711.335L710.953 1272.34H712.862ZM709.021 1272.34L708.64 1276.16H707.494L707.112 1272.34H709.021Z" fill="#B32C05"/>
</g>
<path d="M613.303 351.457C607.667 347.029 603.172 341.863 599.817 335.959C596.597 329.92 594.114 323.48 592.37 316.636C591.565 317.307 590.357 318.045 588.747 318.85C587.137 319.655 585.459 320.326 583.715 320.863C582.105 321.4 580.495 321.802 578.884 322.071C577.274 322.205 576.066 322.004 575.261 321.467C574.59 320.93 574.389 320.058 574.657 318.85C575.06 317.508 576.335 315.563 578.482 313.013C578.75 312.611 579.555 311.738 580.897 310.397C582.373 309.055 583.916 307.646 585.526 306.17C587.137 304.56 588.613 303.084 589.955 301.742C591.296 300.266 592.101 299.326 592.37 298.924C593.846 295.569 594.718 291.879 594.986 287.854C595.389 283.828 595.59 279.668 595.59 275.375C595.724 270.946 595.993 266.585 596.395 262.292C596.798 257.998 597.804 253.972 599.414 250.215C600.354 248.068 602.098 245.451 604.648 242.365C607.331 239.145 610.283 236.059 613.504 233.106C616.858 230.154 620.213 227.538 623.568 225.257C627.056 222.841 630.009 221.365 632.424 220.829C634.973 220.292 636.785 220.896 637.858 222.64C639.066 224.384 639.066 227.739 637.858 232.704C636.382 238.608 634.101 244.378 631.015 250.014C628.063 255.515 624.977 261.017 621.756 266.518C618.536 271.886 615.45 277.253 612.497 282.62C609.68 287.988 607.667 293.422 606.459 298.924C605.788 301.876 605.453 305.499 605.453 309.793C605.453 313.952 605.922 318.112 606.862 322.272C607.801 326.432 609.344 330.256 611.491 333.745C613.638 337.099 616.59 339.447 620.347 340.789C624.641 342.4 628.935 342.802 633.229 341.997C637.523 341.192 641.683 339.649 645.708 337.368C649.868 335.087 653.826 332.269 657.583 328.914C661.341 325.425 664.829 321.869 668.05 318.246C671.27 314.623 674.155 311.135 676.705 307.78C679.254 304.291 681.401 301.339 683.145 298.924L686.567 302.547C687.506 303.352 686.903 305.633 684.756 309.39C682.743 313.147 679.724 317.441 675.698 322.272C671.807 326.968 667.178 331.799 661.81 336.764C656.443 341.729 650.874 345.888 645.104 349.243C639.468 352.598 633.833 354.677 628.197 355.483C622.695 356.288 617.731 354.946 613.303 351.457ZM606.459 263.902C606.325 264.573 606.191 265.78 606.057 267.525C606.057 269.135 606.057 270.879 606.057 272.758C606.057 274.636 606.057 276.381 606.057 277.991C606.191 279.601 606.325 280.742 606.459 281.413C610.753 274.033 614.779 266.183 618.536 257.863C622.293 249.544 625.245 241.158 627.392 232.704C624.306 233.777 621.488 235.455 618.938 237.736C616.523 239.883 614.443 242.432 612.699 245.384C610.954 248.202 609.545 251.221 608.472 254.442C607.533 257.662 606.862 260.816 606.459 263.902Z" fill="#B32C05"/>
<path d="M507.777 285.035C507.375 283.962 506.502 282.083 505.161 279.4L500.934 270.946C499.458 267.994 497.982 265.243 496.506 262.694C495.164 260.01 494.225 258.132 493.688 257.058C494.09 255.582 494.963 254.509 496.304 253.838C497.646 253.167 499.055 252.898 500.531 253.033C502.007 253.033 503.416 253.368 504.758 254.039C506.234 254.71 507.24 255.716 507.777 257.058L535.553 320.058L560.109 232.704L561.115 231.295C561.921 230.221 562.793 229.215 563.732 228.276C564.806 227.202 565.946 226.33 567.154 225.659C568.361 224.988 569.502 224.988 570.575 225.659C570.844 226.196 570.978 227.403 570.978 229.282C570.978 231.026 570.844 232.167 570.575 232.704C570.307 233.777 569.435 236.327 567.959 240.352C566.617 244.378 565.141 248.806 563.531 253.636C561.921 258.333 560.445 262.761 559.103 266.921C557.761 270.946 556.956 273.496 556.687 274.569C556.419 275.643 555.949 277.924 555.278 281.413C554.742 284.767 554.138 288.726 553.467 293.288C552.796 297.85 552.058 302.681 551.253 307.78C550.448 312.879 549.643 317.709 548.838 322.272C548.167 326.834 547.563 330.792 547.026 334.147C546.489 337.502 546.154 339.716 546.02 340.789C545.751 342.399 545.282 344.144 544.611 346.022C544.074 347.901 543.269 349.645 542.195 351.255C541.122 352.731 539.713 353.872 537.969 354.677C536.358 355.482 534.413 355.549 532.132 354.878C531.595 353.134 530.656 350.45 529.314 346.827C528.106 343.07 526.697 338.91 525.087 334.348C523.477 329.786 521.799 324.955 520.055 319.856C518.311 314.757 516.633 309.927 515.023 305.364C513.413 300.802 511.937 296.71 510.595 293.087C509.387 289.464 508.448 286.78 507.777 285.035Z" fill="#B32C05"/>
<path d="M449.351 344.412C445.996 339.447 443.984 333.946 443.313 327.908C442.642 321.735 442.642 315.294 443.313 308.585C443.984 301.876 445.057 295.099 446.533 288.256C448.009 281.413 449.284 274.838 450.357 268.531C451.431 262.09 452.035 256.119 452.169 250.617C452.303 244.982 451.364 240.151 449.351 236.125C448.277 233.979 446.801 232.972 444.923 233.106C443.178 233.106 441.233 233.375 439.086 233.911C437.073 234.314 434.993 234.448 432.846 234.314C430.833 234.18 429.022 232.905 427.412 230.49C427.546 229.953 428.083 229.282 429.022 228.477C429.827 227.538 430.431 227.001 430.833 226.867C442.91 225.122 452.974 226.397 461.025 230.691C469.21 234.851 475.718 240.822 480.549 248.605C485.379 256.253 488.667 265.042 490.411 274.972C492.29 284.901 492.961 294.764 492.424 304.559C491.887 314.355 490.344 323.479 487.795 331.933C485.245 340.252 482.025 346.693 478.133 351.256C474.242 355.818 469.814 357.831 464.849 357.294C459.884 356.757 454.718 352.463 449.351 344.412ZM459.817 337.368C459.951 337.77 460.354 338.307 461.025 338.978C461.696 339.649 462.367 340.387 463.038 341.192C463.843 341.997 464.581 342.735 465.252 343.406C465.923 343.943 466.392 344.278 466.661 344.412C471.625 341.594 475.316 337.77 477.731 332.939C480.146 328.109 481.555 322.741 481.958 316.837C482.494 310.933 482.226 304.761 481.153 298.32C480.213 291.745 478.804 285.438 476.926 279.4C475.047 273.362 472.833 267.793 470.284 262.694C467.868 257.595 465.52 253.435 463.239 250.215C463.105 251.959 462.836 254.643 462.434 258.266C462.031 261.889 461.629 265.981 461.226 270.544C460.824 275.106 460.354 279.937 459.817 285.036C459.281 290.135 458.744 295.032 458.207 299.729C457.804 304.291 457.402 308.384 456.999 312.007C456.597 315.63 456.328 318.313 456.194 320.058C456.06 321.4 456.06 322.943 456.194 324.687C456.463 326.297 456.798 327.908 457.201 329.518C457.603 331.128 458.006 332.671 458.408 334.147C458.945 335.489 459.415 336.562 459.817 337.368Z" fill="#B32C05"/>
<path d="M307.596 208.148C307.596 207.745 307.864 207.343 308.401 206.94C308.938 206.538 309.541 206.135 310.212 205.733C311.017 205.33 311.823 205.062 312.628 204.928C313.433 204.659 314.104 204.592 314.64 204.726C315.177 204.86 315.848 205.263 316.653 205.934C317.458 206.471 318.196 207.074 318.867 207.745C319.672 208.416 320.343 209.154 320.88 209.959C321.417 210.63 321.685 211.167 321.685 211.57V323.278C323.295 321.265 325.979 319.923 329.736 319.253C333.627 318.447 338.19 317.911 343.423 317.642C348.656 317.374 354.359 317.24 360.531 317.24C366.838 317.106 373.212 316.77 379.653 316.233C386.094 315.562 392.4 314.489 398.573 313.013C404.879 311.403 410.649 309.055 415.882 305.968C420.847 303.016 424.202 301.54 425.946 301.54C427.825 301.406 428.496 302.211 427.959 303.956C427.422 305.7 425.812 307.981 423.128 310.799C420.445 313.617 417.09 316.435 413.065 319.253C409.173 322.07 404.745 324.553 399.78 326.7C394.815 328.847 389.716 330.054 384.483 330.323C383.141 330.457 381.129 330.524 378.445 330.524C375.761 330.524 372.675 330.591 369.186 330.725C365.697 330.725 362.075 330.725 358.317 330.725C354.56 330.591 350.937 330.524 347.448 330.524H338.19C335.506 330.524 333.493 330.457 332.151 330.323C330.541 331.53 328.864 333.61 327.12 336.562C325.509 339.38 323.698 342.131 321.685 344.815C319.806 347.498 317.727 349.645 315.445 351.256C313.164 352.866 310.548 352.933 307.596 351.457V208.148Z" fill="#B32C05"/>
<path d="M870.171 241.443C869.39 240.369 869.048 239.441 869.145 238.66C869.145 237.976 869.341 237.341 869.731 236.755C870.024 236.267 870.464 235.779 871.05 235.291C871.636 234.9 872.173 234.412 872.661 233.826C875.591 229.919 878.179 226.404 880.425 223.279C882.768 220.154 884.819 217.029 886.577 213.904C888.433 210.779 890.044 207.41 891.411 203.796C892.876 200.085 894.243 195.691 895.513 190.613C896.099 188.074 896.196 185.681 895.806 183.435C895.415 181.189 894.878 179.041 894.194 176.99C893.511 174.939 892.974 172.986 892.583 171.13C892.192 169.177 892.29 167.224 892.876 165.271C893.267 164.099 893.95 163.318 894.927 162.927C895.903 162.537 896.88 162.439 897.856 162.634C898.931 162.732 899.956 163.074 900.933 163.66C901.909 164.148 902.642 164.685 903.13 165.271C904.888 167.029 905.864 169.666 906.059 173.181C906.352 176.599 906.059 180.554 905.181 185.046C904.399 189.441 903.13 194.177 901.372 199.255C899.614 204.236 897.612 209.07 895.366 213.757C893.218 218.542 890.874 222.986 888.335 227.087C885.893 231.287 883.501 234.705 881.157 237.341C878.911 240.076 876.811 241.882 874.858 242.761C872.905 243.64 871.343 243.201 870.171 241.443Z" fill="#B32C05"/>
<path d="M826.478 248.767C824.036 247.107 822.327 244.91 821.351 242.175C820.472 239.441 820.081 236.414 820.179 233.093C820.276 229.773 820.765 226.257 821.644 222.547C822.522 218.933 823.548 215.418 824.72 212C825.892 208.582 827.112 205.408 828.382 202.478C829.651 199.548 830.726 197.156 831.604 195.3C831.995 194.422 832.63 193.054 833.509 191.199C834.388 189.343 835.413 187.244 836.585 184.9L843.909 170.252C845.081 167.908 846.155 165.808 847.132 163.953C848.108 162.097 848.841 160.73 849.329 159.851C849.817 155.261 849.476 151.648 848.304 149.011C847.229 146.375 845.667 144.568 843.616 143.591C841.565 142.615 839.173 142.371 836.438 142.859C833.802 143.347 831.067 144.373 828.235 145.935C825.501 147.498 822.815 149.5 820.179 151.941C817.64 154.285 815.491 156.922 813.733 159.851C813.147 160.339 812.122 161.511 810.657 163.367C809.192 165.125 807.435 167.322 805.384 169.959C803.333 172.498 801.038 175.281 798.499 178.308C796.058 181.336 793.519 184.314 790.882 187.244C788.343 190.076 785.853 192.713 783.411 195.154C780.97 197.595 778.675 199.5 776.526 200.867C774.476 202.234 772.669 202.966 771.106 203.064C769.642 203.162 768.616 202.283 768.03 200.427C767.933 200.33 767.835 200.037 767.737 199.548C767.737 199.06 767.737 198.572 767.737 198.084C767.737 197.498 767.737 196.961 767.737 196.472C767.835 195.984 767.933 195.593 768.03 195.3C768.226 194.324 768.616 192.273 769.202 189.148C769.886 186.023 770.618 182.361 771.399 178.162C772.278 173.963 773.206 169.47 774.183 164.685C775.159 159.9 776.038 155.408 776.819 151.209C777.698 147.009 778.479 143.396 779.163 140.369C779.847 137.244 780.335 135.193 780.628 134.216C780.823 133.338 781.458 132.166 782.532 130.701C783.606 129.236 784.827 128.015 786.194 127.039C787.562 126.062 788.88 125.623 790.149 125.72C791.517 125.818 792.591 126.941 793.372 129.089C792.396 130.554 791.272 132.849 790.003 135.974C788.733 139.099 787.464 142.615 786.194 146.521C785.022 150.427 783.851 154.578 782.679 158.972C781.507 163.269 780.481 167.42 779.603 171.423C778.821 175.427 778.284 179.138 777.991 182.556C777.698 185.877 777.747 188.464 778.138 190.32C782.239 184.754 786.829 178.845 791.907 172.595C796.985 166.345 802.161 160.437 807.435 154.871C812.708 149.304 817.933 144.47 823.108 140.369C828.382 136.267 833.216 133.631 837.61 132.459C842.103 131.287 846.009 131.97 849.329 134.509C852.747 136.951 855.286 141.98 856.946 149.597L874.817 134.363H882.435C883.313 137.097 883.265 138.953 882.288 139.929C881.409 140.906 880.091 141.687 878.333 142.273C876.575 142.761 874.622 143.347 872.474 144.031C870.423 144.617 868.665 145.886 867.2 147.839C865.833 149.793 865.003 152.673 864.71 156.482C864.417 160.291 865.198 165.662 867.054 172.595C868.421 177.478 869.349 182.507 869.837 187.683C870.423 192.859 870.374 197.986 869.69 203.064C869.397 205.31 868.616 208.338 867.347 212.146C866.175 216.052 864.612 220.105 862.659 224.304C860.706 228.504 858.411 232.605 855.774 236.609C853.138 240.613 850.257 243.933 847.132 246.57C844.104 249.207 840.833 250.818 837.317 251.404C833.802 252.088 830.188 251.209 826.478 248.767ZM828.968 236.023C829.749 239.734 831.019 242.078 832.776 243.054C834.632 244.031 836.731 243.933 839.075 242.761C841.419 241.589 843.86 239.49 846.399 236.463C849.036 233.435 851.429 229.822 853.577 225.623C855.823 221.423 857.728 216.736 859.29 211.56C860.853 206.482 861.78 201.257 862.073 195.886C862.464 190.515 862.073 185.193 860.901 179.92C859.729 174.548 857.532 169.519 854.31 164.832C852.063 166.492 849.817 169.031 847.571 172.449C845.325 175.867 843.177 179.773 841.126 184.168C839.173 188.562 837.317 193.25 835.56 198.23C833.802 203.113 832.337 207.898 831.165 212.586C830.091 217.371 829.31 221.814 828.821 225.916C828.431 230.017 828.479 233.386 828.968 236.023Z" fill="#B32C05"/>
<path d="M721.261 203.943C719.698 207.166 718.38 208.777 717.306 208.777C716.231 208.875 715.304 207.8 714.522 205.554C713.839 203.406 713.253 200.33 712.765 196.326C712.374 192.322 712.081 187.878 711.886 182.996C711.788 178.113 711.788 172.986 711.886 167.615C711.983 162.244 712.13 157.068 712.325 152.087C712.618 147.107 712.96 142.566 713.351 138.464C713.741 134.265 714.132 130.994 714.522 128.65C715.011 126.208 715.499 124.89 715.987 124.695C716.476 124.5 716.964 125.818 717.452 128.65C720.577 126.306 723.946 124.109 727.56 122.058C731.173 119.91 734.884 118.152 738.692 116.785C742.599 115.32 746.505 114.392 750.411 114.001C754.415 113.611 758.272 113.953 761.983 115.027C762.374 116.296 762.423 117.761 762.13 119.421C761.837 121.082 760.909 122.156 759.347 122.644C757.784 122.351 755.733 122.205 753.194 122.205C750.655 122.205 747.97 122.4 745.138 122.791C742.306 123.181 739.474 123.816 736.642 124.695C733.81 125.574 731.222 126.746 728.878 128.21C726.632 129.578 724.776 131.287 723.312 133.337C721.944 135.291 721.261 137.634 721.261 140.369V203.943Z" fill="#B32C05"/>
<path d="M663.944 203.943C662.382 207.166 661.063 208.777 659.989 208.777C658.915 208.875 657.987 207.8 657.206 205.554C656.522 203.406 655.937 200.33 655.448 196.326C655.058 192.322 654.765 187.878 654.569 182.996C654.472 178.113 654.472 172.986 654.569 167.615C654.667 162.244 654.813 157.068 655.009 152.087C655.302 147.107 655.644 142.566 656.034 138.464C656.425 134.265 656.815 130.994 657.206 128.65C657.694 126.208 658.183 124.89 658.671 124.695C659.159 124.5 659.647 125.818 660.136 128.65C663.261 126.306 666.63 124.109 670.243 122.058C673.856 119.91 677.567 118.152 681.376 116.785C685.282 115.32 689.188 114.392 693.095 114.001C697.099 113.611 700.956 113.953 704.667 115.027C705.058 116.296 705.106 117.761 704.813 119.421C704.521 121.082 703.593 122.156 702.03 122.644C700.468 122.351 698.417 122.205 695.878 122.205C693.339 122.205 690.653 122.4 687.821 122.791C684.989 123.181 682.157 123.816 679.325 124.695C676.493 125.574 673.905 126.746 671.562 128.21C669.315 129.578 667.46 131.287 665.995 133.337C664.628 135.291 663.944 137.634 663.944 140.369V203.943Z" fill="#B32C05"/>
<path d="M585.974 203.064C584.02 198.962 582.946 194.812 582.751 190.613C582.653 186.414 582.897 182.117 583.483 177.722C583.581 176.355 583.825 174.304 584.216 171.57C584.606 168.835 585.046 165.808 585.534 162.488C586.022 159.167 586.56 155.652 587.145 151.941C587.731 148.23 588.268 144.714 588.757 141.394C589.245 138.074 589.685 135.144 590.075 132.605C590.563 129.968 590.905 128.015 591.101 126.746C591.882 122.644 592.712 119.177 593.591 116.345C594.567 113.416 595.837 111.169 597.399 109.607C599.06 108.044 601.159 107.214 603.698 107.117C606.335 107.019 609.704 107.654 613.806 109.021C614.294 109.119 614.831 109.509 615.417 110.193C616.003 110.779 616.345 111.218 616.442 111.511C616.638 112.781 616.979 114.734 617.468 117.371C618.054 120.007 618.688 123.035 619.372 126.453C620.056 129.773 620.739 133.289 621.423 137C622.204 140.613 622.936 144.128 623.62 147.546C624.304 150.867 624.89 153.845 625.378 156.482C625.964 159.119 626.403 161.072 626.696 162.341C628.161 169.275 629.968 174.109 632.116 176.843C634.265 179.48 636.56 180.847 639.001 180.945C641.442 181.042 643.933 180.261 646.472 178.601C649.108 176.843 651.696 175.037 654.235 173.181C656.774 171.228 659.167 169.568 661.413 168.201C663.659 166.833 665.612 166.589 667.272 167.468C667.272 169.324 666.833 171.13 665.954 172.888C665.075 174.646 664.001 176.306 662.731 177.869C661.56 179.333 660.241 180.701 658.776 181.97C657.311 183.24 655.944 184.314 654.675 185.193C649.206 188.806 644.616 190.71 640.905 190.906C637.292 191.101 634.216 190.271 631.677 188.416C629.138 186.56 627.087 184.021 625.524 180.798C623.962 177.576 622.546 174.304 621.276 170.984C620.104 167.664 618.933 164.734 617.761 162.195C616.686 159.558 615.368 157.898 613.806 157.214C613.513 158.484 612.878 160.681 611.901 163.806C611.022 166.931 610.046 170.251 608.972 173.767C607.897 177.283 606.872 180.603 605.895 183.728C604.919 186.853 604.235 189.05 603.845 190.32C603.649 190.808 603.21 191.736 602.526 193.103C601.94 194.47 601.159 195.984 600.183 197.644C599.206 199.207 598.083 200.769 596.813 202.332C595.642 203.796 594.421 204.919 593.151 205.701C591.882 206.58 590.612 206.873 589.343 206.58C588.073 206.287 586.95 205.115 585.974 203.064ZM593.591 159.851C593.395 161.023 593.249 163.171 593.151 166.296C593.151 169.421 593.151 172.742 593.151 176.257C593.151 179.773 593.151 183.093 593.151 186.218C593.249 189.343 593.395 191.541 593.591 192.81C597.009 187.634 600.085 181.628 602.819 174.792C605.554 167.859 607.604 160.73 608.972 153.406C610.436 145.984 611.022 138.66 610.729 131.433C610.436 124.109 608.972 117.468 606.335 111.511C604.675 114.539 603.112 118.347 601.647 122.937C600.183 127.527 598.913 132.214 597.839 137C596.765 141.687 595.837 146.13 595.056 150.33C594.372 154.431 593.884 157.605 593.591 159.851Z" fill="#B32C05"/>
<path d="M556.196 203.064C552.876 201.794 550.044 199.792 547.7 197.058C545.454 194.226 543.501 191.15 541.841 187.83C540.278 184.412 539.009 180.896 538.032 177.283C537.153 173.669 536.421 170.398 535.835 167.468C535.542 165.906 535.151 163.464 534.663 160.144C534.272 156.726 533.784 152.966 533.198 148.865C532.71 144.666 532.173 140.271 531.587 135.681C531.099 130.994 530.61 126.599 530.122 122.498L528.804 111.218C528.413 107.898 528.169 105.457 528.071 103.894L510.493 175.085L509.614 176.697C509.224 177.576 508.638 178.552 507.856 179.626C507.173 180.603 506.392 181.58 505.513 182.556C504.634 183.533 503.706 184.265 502.73 184.753C501.851 185.144 500.972 185.242 500.093 185.046C499.214 184.851 498.433 184.021 497.749 182.556L459.517 106.384L449.409 182.556C449.214 183.923 448.677 184.802 447.798 185.193C446.919 185.486 445.991 185.486 445.015 185.193C444.136 184.802 443.306 184.167 442.524 183.289C441.841 182.41 441.597 181.384 441.792 180.212L454.536 86.0229C454.536 85.6323 454.878 85.144 455.562 84.5581C456.245 83.9722 457.026 83.4839 457.905 83.0933C458.784 82.7026 459.614 82.5073 460.396 82.5073C461.274 82.4097 461.86 82.7026 462.153 83.3862L502.144 172.302L525.581 83.3862C525.679 83.0933 526.216 82.3608 527.192 81.189C528.169 79.9194 529.243 78.7476 530.415 77.6733C531.587 76.5991 532.71 75.8179 533.784 75.3296C534.858 74.7437 535.542 74.939 535.835 75.9155L538.325 86.0229C538.618 92.6636 538.862 100.378 539.058 109.167C539.253 117.957 539.79 126.99 540.669 136.267C541.548 145.544 542.964 154.675 544.917 163.66C546.87 172.644 549.8 180.652 553.706 187.683C553.999 188.171 554.487 188.855 555.171 189.734C555.855 190.515 556.587 191.296 557.368 192.078C558.149 192.859 558.931 193.591 559.712 194.275C560.493 194.861 561.03 195.203 561.323 195.3C562.3 195.691 563.618 195.74 565.278 195.447C566.939 195.154 568.648 194.958 570.405 194.861C572.163 194.666 573.823 194.763 575.386 195.154C577.046 195.447 578.267 196.375 579.048 197.937C579.829 199.5 579.878 200.769 579.194 201.746C578.608 202.625 577.583 203.308 576.118 203.796C574.653 204.285 572.944 204.578 570.991 204.675C569.038 204.773 567.085 204.773 565.132 204.675C563.179 204.48 561.372 204.236 559.712 203.943C558.052 203.65 556.88 203.357 556.196 203.064Z" fill="#B32C05"/>
<path d="M327.599 241.443C326.817 240.369 326.476 239.441 326.573 238.66C326.573 237.976 326.769 237.341 327.159 236.755C327.452 236.267 327.892 235.779 328.478 235.291C329.064 234.9 329.601 234.412 330.089 233.826C333.019 229.919 335.606 226.404 337.853 223.279C340.196 220.154 342.247 217.029 344.005 213.904C345.86 210.779 347.472 207.41 348.839 203.796C350.304 200.085 351.671 195.691 352.94 190.613C353.526 188.074 353.624 185.681 353.233 183.435C352.843 181.189 352.306 179.041 351.622 176.99C350.939 174.939 350.401 172.986 350.011 171.13C349.62 169.177 349.718 167.224 350.304 165.271C350.694 164.099 351.378 163.318 352.355 162.927C353.331 162.537 354.308 162.439 355.284 162.634C356.358 162.732 357.384 163.074 358.36 163.66C359.337 164.148 360.069 164.685 360.558 165.271C362.315 167.029 363.292 169.666 363.487 173.181C363.78 176.599 363.487 180.554 362.608 185.046C361.827 189.441 360.558 194.177 358.8 199.255C357.042 204.236 355.04 209.07 352.794 213.757C350.646 218.542 348.302 222.986 345.763 227.087C343.321 231.287 340.929 234.705 338.585 237.341C336.339 240.076 334.239 241.882 332.286 242.761C330.333 243.64 328.771 243.201 327.599 241.443Z" fill="#B32C05"/>
<path d="M309.979 195.3C307.831 191.687 306.171 187.634 304.999 183.142C303.827 178.552 302.997 173.865 302.509 169.08C302.02 164.294 301.776 159.558 301.776 154.871C301.874 150.183 302.02 145.886 302.216 141.98C300.849 141.589 299.286 141.687 297.528 142.273C295.77 142.859 293.915 143.64 291.962 144.617C290.009 145.496 288.007 146.472 285.956 147.546C283.905 148.621 282.001 149.402 280.243 149.89C278.485 150.378 276.874 150.476 275.409 150.183C273.944 149.89 272.772 148.865 271.894 147.107C271.015 145.447 271.063 144.128 272.04 143.152C273.114 142.175 274.628 141.443 276.581 140.955C278.632 140.369 280.976 139.978 283.612 139.783C286.249 139.49 288.739 139.148 291.083 138.757C293.427 138.367 295.429 137.878 297.089 137.292C298.749 136.609 299.628 135.632 299.726 134.363L304.853 78.5522C304.95 77.6733 305.39 76.9897 306.171 76.5015C307.05 76.0132 307.929 75.769 308.808 75.769C309.784 75.769 310.614 76.0132 311.298 76.5015C312.079 76.8921 312.47 77.5757 312.47 78.5522V126.746C313.837 127.039 315.155 127.039 316.425 126.746C317.694 126.355 318.964 125.916 320.233 125.427C321.503 124.939 322.724 124.548 323.895 124.255C325.165 123.962 326.483 123.962 327.851 124.255C328.436 125.33 328.339 126.355 327.558 127.332C326.776 128.21 325.995 128.894 325.214 129.382L322.577 130.994C321.405 131.677 320.136 132.458 318.769 133.337C317.499 134.119 316.229 134.851 314.96 135.535C313.788 136.218 312.958 136.658 312.47 136.853C312.372 138.22 312.274 140.613 312.177 144.031C312.177 147.351 312.177 150.916 312.177 154.724C312.177 158.533 312.177 162.146 312.177 165.564C312.274 168.884 312.372 171.228 312.47 172.595C312.86 177.185 313.739 181.384 315.106 185.193C316.474 189.001 318.329 191.98 320.673 194.128C323.017 196.277 325.8 197.351 329.022 197.351C332.343 197.351 336.2 195.837 340.595 192.81C341.278 195.056 341.229 197.058 340.448 198.816C339.667 200.574 338.397 201.99 336.64 203.064C334.882 204.041 332.782 204.675 330.341 204.968C327.899 205.261 325.409 205.115 322.87 204.529C320.429 203.943 318.036 202.917 315.692 201.453C313.349 199.89 311.444 197.839 309.979 195.3Z" fill="#B32C05"/>
<path d="M204.616 203.064C202.663 198.962 201.589 194.812 201.393 190.613C201.296 186.414 201.54 182.117 202.126 177.722C202.224 176.355 202.468 174.304 202.858 171.57C203.249 168.835 203.688 165.808 204.177 162.488C204.665 159.167 205.202 155.652 205.788 151.941C206.374 148.23 206.911 144.714 207.399 141.394C207.888 138.074 208.327 135.144 208.718 132.605C209.206 129.968 209.548 128.015 209.743 126.746C210.524 122.644 211.354 119.177 212.233 116.345C213.21 113.416 214.479 111.169 216.042 109.607C217.702 108.044 219.802 107.214 222.341 107.117C224.977 107.019 228.347 107.654 232.448 109.021C232.936 109.119 233.474 109.509 234.06 110.193C234.645 110.779 234.987 111.218 235.085 111.511C235.28 112.781 235.622 114.734 236.11 117.371C236.696 120.007 237.331 123.035 238.015 126.453C238.698 129.773 239.382 133.289 240.065 137C240.847 140.613 241.579 144.128 242.263 147.546C242.946 150.867 243.532 153.845 244.02 156.482C244.606 159.119 245.046 161.072 245.339 162.341C246.804 169.275 248.61 174.109 250.759 176.843C252.907 179.48 255.202 180.847 257.643 180.945C260.085 181.042 262.575 180.261 265.114 178.601C267.751 176.843 270.339 175.037 272.878 173.181C275.417 171.228 277.81 169.568 280.056 168.201C282.302 166.833 284.255 166.589 285.915 167.468C285.915 169.324 285.476 171.13 284.597 172.888C283.718 174.646 282.643 176.306 281.374 177.869C280.202 179.333 278.884 180.701 277.419 181.97C275.954 183.24 274.587 184.314 273.317 185.193C267.849 188.806 263.259 190.71 259.548 190.906C255.935 191.101 252.858 190.271 250.319 188.416C247.78 186.56 245.729 184.021 244.167 180.798C242.604 177.576 241.188 174.304 239.919 170.984C238.747 167.664 237.575 164.734 236.403 162.195C235.329 159.558 234.011 157.898 232.448 157.214C232.155 158.484 231.52 160.681 230.544 163.806C229.665 166.931 228.688 170.251 227.614 173.767C226.54 177.283 225.515 180.603 224.538 183.728C223.561 186.853 222.878 189.05 222.487 190.32C222.292 190.808 221.852 191.736 221.169 193.103C220.583 194.47 219.802 195.984 218.825 197.644C217.849 199.207 216.726 200.769 215.456 202.332C214.284 203.796 213.063 204.919 211.794 205.701C210.524 206.58 209.255 206.873 207.985 206.58C206.716 206.287 205.593 205.115 204.616 203.064ZM212.233 159.851C212.038 161.023 211.892 163.171 211.794 166.296C211.794 169.421 211.794 172.742 211.794 176.257C211.794 179.773 211.794 183.093 211.794 186.218C211.892 189.343 212.038 191.541 212.233 192.81C215.651 187.634 218.727 181.628 221.462 174.792C224.196 167.859 226.247 160.73 227.614 153.406C229.079 145.984 229.665 138.66 229.372 131.433C229.079 124.109 227.614 117.468 224.977 111.511C223.317 114.539 221.755 118.347 220.29 122.937C218.825 127.527 217.556 132.214 216.481 137C215.407 141.687 214.479 146.13 213.698 150.33C213.015 154.431 212.526 157.605 212.233 159.851Z" fill="#B32C05"/>
<path d="M145.688 203.064C141.88 200.232 139.341 196.863 138.071 192.957C136.899 189.05 136.021 184.802 135.435 180.212C135.63 178.845 135.874 176.697 136.167 173.767C136.46 170.837 136.802 167.566 137.192 163.953C137.583 160.242 137.925 156.335 138.218 152.234C138.608 148.132 138.95 144.275 139.243 140.662C139.634 136.951 139.927 133.63 140.122 130.701C140.317 127.771 140.464 125.623 140.562 124.255C140.659 123.474 140.708 122.107 140.708 120.154V107.996C140.708 106.042 140.659 104.675 140.562 103.894L143.198 101.257L188.901 86.0229H194.028C194.517 87.3901 194.565 88.855 194.175 90.4175C193.882 91.98 192.954 93.0542 191.392 93.6401L153.306 109.021L150.815 111.511C150.718 111.609 150.571 112.634 150.376 114.587C150.181 116.541 149.937 118.884 149.644 121.619C149.351 124.255 149.058 126.99 148.765 129.822C148.472 132.654 148.276 134.998 148.179 136.853C148.179 137.341 148.13 138.22 148.032 139.49C148.032 140.662 148.032 141.931 148.032 143.298C148.032 144.568 148.032 145.837 148.032 147.107C148.13 148.279 148.179 149.109 148.179 149.597L191.392 126.746C192.075 126.355 192.563 126.453 192.856 127.039C193.247 127.625 193.442 128.406 193.442 129.382C193.442 130.359 193.247 131.335 192.856 132.312C192.563 133.289 192.075 133.972 191.392 134.363C189.731 135.437 187.681 136.658 185.239 138.025C182.896 139.392 180.405 140.857 177.769 142.419C175.229 143.884 172.642 145.349 170.005 146.814C167.466 148.279 165.171 149.597 163.12 150.769C161.069 151.941 159.36 152.917 157.993 153.699C156.724 154.382 156.04 154.724 155.942 154.724H145.688V187.683C145.688 192.175 146.665 195.056 148.618 196.326C150.669 197.595 153.208 197.888 156.235 197.205C159.36 196.423 162.729 194.958 166.343 192.81C169.956 190.662 173.325 188.367 176.45 185.925C179.673 183.484 182.407 181.238 184.653 179.187C186.997 177.039 188.413 175.671 188.901 175.085C189.292 172.644 189.829 170.642 190.513 169.08C191.099 167.712 191.88 166.736 192.856 166.15C193.833 165.564 195.054 166.003 196.519 167.468C197.104 170.496 196.616 173.767 195.054 177.283C193.589 180.798 191.44 184.216 188.608 187.537C185.776 190.857 182.407 193.933 178.501 196.765C174.692 199.5 170.786 201.697 166.782 203.357C162.876 204.919 159.067 205.75 155.356 205.847C151.646 206.042 148.423 205.115 145.688 203.064Z" fill="#B32C05"/>
</svg>
