<svg width="1000" height="1330" viewBox="0 0 1000 1330" fill="none" xmlns="http://www.w3.org/2000/svg">
<rect width="1000" height="1330" fill="#D6D5E8"/>
<path d="M316.833 195.72L314.343 206.12L289.294 111.711H294.714L316.833 195.72ZM322.326 175.432L319.616 185.539L300.207 111.711H305.554L322.326 175.432ZM327.819 154.411L325.036 164.665L311.047 111.711H316.54L327.819 154.411ZM348.693 233H343.2L375.28 111.857L375.207 111.711H380.773V111.857L395.056 161.076L408.166 111.711H413.659L381.506 233H376.013L361.657 183.854L348.693 233ZM337.707 233H332.287L364.367 111.711H369.787L337.707 233ZM326.794 233H321.374L353.527 111.711H358.874L326.794 233ZM414.318 233H408.825L440.905 111.711H446.398L414.318 233ZM403.332 233H397.912L429.992 111.711H435.412L403.332 233ZM392.419 233H386.999L419.152 111.711H424.499L392.419 233ZM313.171 222.6L342.541 111.711H348.034L315.881 233H310.388L278.308 111.711H283.801L313.171 222.6ZM364.44 173.527L378.649 223.039L381.433 212.565L367.15 163.2L364.44 173.527ZM369.86 152.873L384.143 202.238L386.926 191.911L372.644 142.473L369.86 152.873ZM375.28 132.365L389.636 181.73L392.346 171.33L378.137 121.818L375.28 132.365ZM483.573 111.711H488.847V233H483.573V111.711ZM473.026 111.711H478.3V233H473.026V111.711ZM462.479 111.711H467.753V233H462.479V111.711ZM451.933 111.711H457.206V233H451.933V111.711ZM584.396 174.626L579.122 165.91V111.711H584.396V174.626ZM594.942 191.911L589.669 183.049V111.711H594.942V191.911ZM605.489 209.416L600.216 200.48V111.711H605.489V209.416ZM529.903 170.085L535.177 178.801V233H529.903V170.085ZM519.356 152.8L524.63 161.662V233H519.356V152.8ZM508.81 135.295L514.083 144.23V233H508.81V135.295ZM510.641 111.711H516.793L591.354 233H585.201L510.641 111.711ZM523.092 111.711H529.317L603.805 233H597.506L523.092 111.711ZM535.47 111.711H541.622L610.763 224.431V111.711H616.036V233C616.036 233 613.961 233 609.811 233L535.47 111.711ZM503.536 120.28V233H498.263V111.711C498.263 111.711 500.362 111.711 504.562 111.711L578.902 233H572.823L503.536 120.28ZM651.819 233H646.546V111.711H651.819V233ZM641.272 233H635.999V111.711H641.272V233ZM630.726 233H625.452V111.711H630.726V233ZM662.366 206.633H718.47V211.906H662.366V217.18H718.47V222.453H662.366V227.727H718.47V233H657.093V111.711H718.47V116.984H662.366V122.258H718.47V127.531H662.366V132.805H718.47V138.078H662.366V159.172H691.15V164.445H662.366V169.719H691.15V174.992H662.366V180.266H691.15V185.539H662.366V206.633ZM196.435 285.397C192.333 289.499 190.282 294.455 190.282 300.266C190.282 306.076 192.333 311.057 196.435 315.207C200.585 319.309 205.565 321.359 211.376 321.359C217.187 321.359 222.143 319.309 226.244 315.207C230.395 311.057 232.47 306.076 232.47 300.266C232.47 294.455 230.395 289.499 226.244 285.397C222.143 281.247 217.187 279.172 211.376 279.172C205.565 279.172 200.585 281.247 196.435 285.397ZM192.699 318.942C187.572 313.767 185.009 307.541 185.009 300.266C185.009 292.99 187.572 286.789 192.699 281.662C197.875 276.486 204.101 273.898 211.376 273.898C218.651 273.898 224.853 276.486 229.979 281.662C235.155 286.789 237.743 292.99 237.743 300.266C237.743 307.541 235.155 313.767 229.979 318.942C224.853 324.069 218.651 326.633 211.376 326.633C204.101 326.633 197.875 324.069 192.699 318.942ZM188.964 277.927C182.812 284.128 179.735 291.574 179.735 300.266C179.735 308.957 182.812 316.403 188.964 322.604C195.165 328.806 202.636 331.906 211.376 331.906C220.116 331.906 227.562 328.806 233.715 322.604C239.916 316.403 243.017 308.957 243.017 300.266C243.017 291.574 239.916 284.128 233.715 277.927C227.562 271.726 220.116 268.625 211.376 268.625C202.636 268.625 195.165 271.726 188.964 277.927ZM179.369 318.796C176.098 313.132 174.462 306.955 174.462 300.266C174.462 293.576 176.098 287.399 179.369 281.735C182.689 276.071 187.182 271.604 192.846 268.332C198.51 265.012 204.687 263.352 211.376 263.352C218.065 263.352 224.242 265.012 229.906 268.332C235.57 271.604 240.038 276.071 243.31 281.735C246.63 287.399 248.29 293.576 248.29 300.266C248.29 306.955 246.63 313.132 243.31 318.796C240.038 324.46 235.57 328.952 229.906 332.272C224.242 335.544 218.065 337.18 211.376 337.18C204.687 337.18 198.51 335.544 192.846 332.272C187.182 328.952 182.689 324.46 179.369 318.796ZM172.484 283.933C170.287 289.108 169.188 294.553 169.188 300.266C169.188 305.979 170.287 311.447 172.484 316.672C174.73 321.848 177.733 326.34 181.493 330.148C185.302 333.908 189.794 336.911 194.97 339.157C200.194 341.354 205.663 342.453 211.376 342.453C217.089 342.453 222.533 341.354 227.709 339.157C232.934 336.911 237.426 333.908 241.186 330.148C244.994 326.34 247.997 321.848 250.194 316.672C252.44 311.447 253.563 305.979 253.563 300.266C253.563 294.553 252.44 289.108 250.194 283.933C247.997 278.708 244.994 274.216 241.186 270.456C237.426 266.647 232.934 263.645 227.709 261.447C222.533 259.201 217.089 258.078 211.376 258.078C205.663 258.078 200.194 259.201 194.97 261.447C189.794 263.645 185.302 266.647 181.493 270.456C177.733 274.216 174.73 278.708 172.484 283.933ZM167.65 318.723C165.16 312.863 163.915 306.711 163.915 300.266C163.915 293.82 165.16 287.668 167.65 281.809C170.189 275.949 173.559 270.92 177.758 266.721C182.006 262.473 187.06 259.104 192.919 256.613C198.778 254.074 204.931 252.805 211.376 252.805C217.821 252.805 223.974 254.074 229.833 256.613C235.692 259.104 240.722 262.473 244.921 266.721C249.169 270.92 252.538 275.949 255.028 281.809C257.567 287.668 258.837 293.82 258.837 300.266C258.837 306.711 257.567 312.863 255.028 318.723C252.538 324.582 249.169 329.636 244.921 333.884C240.722 338.083 235.692 341.452 229.833 343.991C223.974 346.481 217.821 347.727 211.376 347.727C204.931 347.727 198.778 346.481 192.919 343.991C187.06 341.452 182.006 338.083 177.758 333.884C173.559 329.636 170.189 324.582 167.65 318.723ZM162.816 279.831C160.033 286.325 158.642 293.137 158.642 300.266C158.642 307.395 160.033 314.23 162.816 320.773C165.6 327.268 169.335 332.883 174.022 337.619C178.759 342.307 184.374 346.042 190.868 348.825C197.411 351.608 204.247 353 211.376 353C218.505 353 225.316 351.608 231.811 348.825C238.354 346.042 243.969 342.307 248.656 337.619C253.393 332.883 257.152 327.268 259.936 320.773C262.719 314.23 264.11 307.395 264.11 300.266C264.11 293.137 262.719 286.325 259.936 279.831C257.152 273.288 253.393 267.673 248.656 262.985C243.969 258.249 238.354 254.489 231.811 251.706C225.316 248.923 218.505 247.531 211.376 247.531C204.247 247.531 197.411 248.923 190.868 251.706C184.374 254.489 178.759 258.249 174.022 262.985C169.335 267.673 165.6 273.288 162.816 279.831ZM157.982 322.824C154.906 315.646 153.368 308.127 153.368 300.266C153.368 292.404 154.906 284.909 157.982 277.78C161.059 270.603 165.185 264.426 170.36 259.25C175.536 254.074 181.688 249.948 188.817 246.872C195.995 243.796 203.515 242.258 211.376 242.258C219.237 242.258 226.732 243.796 233.861 246.872C241.039 249.948 247.216 254.074 252.392 259.25C257.567 264.426 261.693 270.603 264.77 277.78C267.846 284.909 269.384 292.404 269.384 300.266C269.384 308.127 267.846 315.646 264.77 322.824C261.693 329.953 257.567 336.105 252.392 341.281C247.216 346.457 241.039 350.583 233.861 353.659C226.732 356.735 219.237 358.273 211.376 358.273C203.515 358.273 195.995 356.735 188.817 353.659C181.688 350.583 175.536 346.457 170.36 341.281C165.185 336.105 161.059 329.953 157.982 322.824ZM275.943 252.805V231.711H281.217V252.805H275.943ZM275.943 268.625V263.352C277.994 263.352 279.703 263.132 281.07 262.692C282.486 262.253 283.536 261.765 284.22 261.228C284.903 260.69 285.416 259.86 285.758 258.737C286.148 257.614 286.368 256.711 286.417 256.027C286.466 255.295 286.49 254.221 286.49 252.805V231.711H291.764V252.805C291.764 253.879 291.739 254.733 291.69 255.368C291.69 256.003 291.593 256.955 291.397 258.225C291.202 259.445 290.909 260.471 290.519 261.301C290.128 262.082 289.542 262.985 288.761 264.011C288.028 265.036 287.101 265.866 285.978 266.501C284.903 267.087 283.512 267.6 281.803 268.039C280.094 268.43 278.141 268.625 275.943 268.625ZM275.943 279.172V273.898C278.238 273.898 280.313 273.776 282.169 273.532C284.073 273.239 285.709 272.897 287.076 272.507C288.443 272.116 289.664 271.53 290.738 270.749C291.812 269.968 292.691 269.26 293.375 268.625C294.059 267.941 294.645 267.038 295.133 265.915C295.621 264.743 295.987 263.767 296.231 262.985C296.476 262.204 296.646 261.105 296.744 259.689C296.891 258.273 296.964 257.175 296.964 256.394C297.013 255.563 297.037 254.367 297.037 252.805V231.711H302.311V252.805C302.311 254.367 302.286 255.612 302.237 256.54C302.237 257.419 302.14 258.688 301.944 260.349C301.798 262.009 301.578 263.352 301.285 264.377C300.992 265.402 300.528 266.647 299.894 268.112C299.308 269.577 298.575 270.773 297.696 271.701C296.866 272.629 295.768 273.63 294.4 274.704C293.082 275.729 291.568 276.535 289.859 277.121C288.15 277.707 286.1 278.195 283.707 278.586C281.363 278.977 278.775 279.172 275.943 279.172ZM385.921 283.859L381.673 287.082C377.425 281.809 371.956 279.172 365.267 279.172C359.456 279.172 354.476 281.247 350.325 285.397C346.224 289.499 344.173 294.455 344.173 300.266C344.173 306.076 346.224 311.057 350.325 315.207C354.476 319.309 359.456 321.359 365.267 321.359C368.538 321.359 371.59 320.651 374.422 319.235C377.303 317.819 379.744 315.866 381.746 313.376L385.848 316.818C383.406 319.895 380.379 322.312 376.766 324.069C373.152 325.778 369.319 326.633 365.267 326.633C357.991 326.633 351.766 324.069 346.59 318.942C341.463 313.767 338.899 307.541 338.899 300.266C338.899 292.99 341.463 286.789 346.59 281.662C351.766 276.486 357.991 273.898 365.267 273.898C369.368 273.898 373.226 274.802 376.839 276.608C380.452 278.366 383.479 280.783 385.921 283.859ZM394.124 277.268L389.949 280.49C387.02 276.779 383.382 273.874 379.036 271.774C374.739 269.675 370.149 268.625 365.267 268.625C356.526 268.625 349.056 271.726 342.854 277.927C336.702 284.128 333.626 291.574 333.626 300.266C333.626 308.957 336.702 316.403 342.854 322.604C349.056 328.806 356.526 331.906 365.267 331.906C370.149 331.906 374.764 330.856 379.109 328.757C383.455 326.608 387.093 323.679 390.022 319.968L394.051 323.337C390.633 327.634 386.409 331.027 381.38 333.518C376.351 335.959 370.979 337.18 365.267 337.18C358.577 337.18 352.4 335.544 346.736 332.272C341.072 328.952 336.58 324.46 333.26 318.796C329.988 313.132 328.353 306.955 328.353 300.266C328.353 293.576 329.988 287.399 333.26 281.735C336.58 276.071 341.072 271.604 346.736 268.332C352.4 265.012 358.577 263.352 365.267 263.352C370.979 263.352 376.351 264.597 381.38 267.087C386.458 269.528 390.706 272.922 394.124 277.268ZM402.4 270.676L398.299 273.972C394.344 269.04 389.485 265.158 383.724 262.326C377.962 259.494 371.81 258.078 365.267 258.078C359.554 258.078 354.085 259.201 348.86 261.447C343.685 263.645 339.192 266.647 335.384 270.456C331.624 274.216 328.621 278.708 326.375 283.933C324.178 289.108 323.079 294.553 323.079 300.266C323.079 305.979 324.178 311.447 326.375 316.672C328.621 321.848 331.624 326.34 335.384 330.148C339.192 333.908 343.685 336.911 348.86 339.157C354.085 341.354 359.554 342.453 365.267 342.453C371.81 342.453 377.962 341.037 383.724 338.205C389.485 335.373 394.344 331.491 398.299 326.56L402.254 330.002C397.811 335.52 392.366 339.865 385.921 343.039C379.476 346.164 372.591 347.727 365.267 347.727C358.821 347.727 352.669 346.481 346.81 343.991C340.95 341.452 335.896 338.083 331.648 333.884C327.449 329.636 324.08 324.582 321.541 318.723C319.051 312.863 317.806 306.711 317.806 300.266C317.806 293.82 319.051 287.668 321.541 281.809C324.08 275.949 327.449 270.92 331.648 266.721C335.896 262.473 340.95 259.104 346.81 256.613C352.669 254.074 358.821 252.805 365.267 252.805C372.64 252.805 379.549 254.392 385.994 257.565C392.488 260.739 397.957 265.109 402.4 270.676ZM410.604 264.084L406.355 267.233C401.424 261.13 395.369 256.32 388.191 252.805C381.062 249.289 373.421 247.531 365.267 247.531C358.138 247.531 351.302 248.923 344.759 251.706C338.265 254.489 332.649 258.249 327.913 262.985C323.226 267.673 319.49 273.288 316.707 279.831C313.924 286.325 312.532 293.137 312.532 300.266C312.532 307.395 313.924 314.23 316.707 320.773C319.49 327.268 323.226 332.883 327.913 337.619C332.649 342.307 338.265 346.042 344.759 348.825C351.302 351.608 358.138 353 365.267 353C373.421 353 381.062 351.242 388.191 347.727C395.369 344.211 401.424 339.401 406.355 333.298L410.53 336.521C405.11 343.259 398.445 348.581 390.535 352.487C382.674 356.345 374.251 358.273 365.267 358.273C357.405 358.273 349.886 356.735 342.708 353.659C335.579 350.583 329.427 346.457 324.251 341.281C319.075 336.105 314.949 329.953 311.873 322.824C308.797 315.646 307.259 308.127 307.259 300.266C307.259 292.404 308.797 284.909 311.873 277.78C314.949 270.603 319.075 264.426 324.251 259.25C329.427 254.074 335.579 249.948 342.708 246.872C349.886 243.796 357.405 242.258 365.267 242.258C374.251 242.258 382.698 244.211 390.608 248.117C398.519 251.975 405.184 257.297 410.604 264.084ZM416.138 247.531H421.411V353H416.138V247.531ZM447.778 247.531H453.052V326.633H491.943V331.906H453.052V337.18H491.943V342.453H453.052V347.727H491.943V353H447.778V247.531ZM437.231 247.531H442.505V353H437.231V247.531ZM426.685 247.531H431.958V353H426.685V247.531ZM539.372 285.397C535.271 289.499 533.22 294.455 533.22 300.266C533.22 306.076 535.271 311.057 539.372 315.207C543.522 319.309 548.503 321.359 554.313 321.359C560.124 321.359 565.08 319.309 569.182 315.207C573.332 311.057 575.407 306.076 575.407 300.266C575.407 294.455 573.332 289.499 569.182 285.397C565.08 281.247 560.124 279.172 554.313 279.172C548.503 279.172 543.522 281.247 539.372 285.397ZM535.637 318.942C530.51 313.767 527.946 307.541 527.946 300.266C527.946 292.99 530.51 286.789 535.637 281.662C540.812 276.486 547.038 273.898 554.313 273.898C561.589 273.898 567.79 276.486 572.917 281.662C578.093 286.789 580.681 292.99 580.681 300.266C580.681 307.541 578.093 313.767 572.917 318.942C567.79 324.069 561.589 326.633 554.313 326.633C547.038 326.633 540.812 324.069 535.637 318.942ZM531.901 277.927C525.749 284.128 522.673 291.574 522.673 300.266C522.673 308.957 525.749 316.403 531.901 322.604C538.103 328.806 545.573 331.906 554.313 331.906C563.054 331.906 570.5 328.806 576.652 322.604C582.854 316.403 585.954 308.957 585.954 300.266C585.954 291.574 582.854 284.128 576.652 277.927C570.5 271.726 563.054 268.625 554.313 268.625C545.573 268.625 538.103 271.726 531.901 277.927ZM522.307 318.796C519.035 313.132 517.399 306.955 517.399 300.266C517.399 293.576 519.035 287.399 522.307 281.735C525.627 276.071 530.119 271.604 535.783 268.332C541.447 265.012 547.624 263.352 554.313 263.352C561.003 263.352 567.18 265.012 572.844 268.332C578.508 271.604 582.976 276.071 586.247 281.735C589.567 287.399 591.228 293.576 591.228 300.266C591.228 306.955 589.567 313.132 586.247 318.796C582.976 324.46 578.508 328.952 572.844 332.272C567.18 335.544 561.003 337.18 554.313 337.18C547.624 337.18 541.447 335.544 535.783 332.272C530.119 328.952 525.627 324.46 522.307 318.796ZM515.422 283.933C513.225 289.108 512.126 294.553 512.126 300.266C512.126 305.979 513.225 311.447 515.422 316.672C517.668 321.848 520.671 326.34 524.431 330.148C528.239 333.908 532.731 336.911 537.907 339.157C543.132 341.354 548.601 342.453 554.313 342.453C560.026 342.453 565.471 341.354 570.646 339.157C575.871 336.911 580.363 333.908 584.123 330.148C587.932 326.34 590.935 321.848 593.132 316.672C595.378 311.447 596.501 305.979 596.501 300.266C596.501 294.553 595.378 289.108 593.132 283.933C590.935 278.708 587.932 274.216 584.123 270.456C580.363 266.647 575.871 263.645 570.646 261.447C565.471 259.201 560.026 258.078 554.313 258.078C548.601 258.078 543.132 259.201 537.907 261.447C532.731 263.645 528.239 266.647 524.431 270.456C520.671 274.216 517.668 278.708 515.422 283.933ZM510.588 318.723C508.098 312.863 506.853 306.711 506.853 300.266C506.853 293.82 508.098 287.668 510.588 281.809C513.127 275.949 516.496 270.92 520.695 266.721C524.943 262.473 529.997 259.104 535.856 256.613C541.716 254.074 547.868 252.805 554.313 252.805C560.759 252.805 566.911 254.074 572.771 256.613C578.63 259.104 583.659 262.473 587.858 266.721C592.106 270.92 595.476 275.949 597.966 281.809C600.505 287.668 601.774 293.82 601.774 300.266C601.774 306.711 600.505 312.863 597.966 318.723C595.476 324.582 592.106 329.636 587.858 333.884C583.659 338.083 578.63 341.452 572.771 343.991C566.911 346.481 560.759 347.727 554.313 347.727C547.868 347.727 541.716 346.481 535.856 343.991C529.997 341.452 524.943 338.083 520.695 333.884C516.496 329.636 513.127 324.582 510.588 318.723ZM505.754 279.831C502.971 286.325 501.579 293.137 501.579 300.266C501.579 307.395 502.971 314.23 505.754 320.773C508.537 327.268 512.272 332.883 516.96 337.619C521.696 342.307 527.312 346.042 533.806 348.825C540.349 351.608 547.185 353 554.313 353C561.442 353 568.254 351.608 574.748 348.825C581.291 346.042 586.906 342.307 591.594 337.619C596.33 332.883 600.09 327.268 602.873 320.773C605.656 314.23 607.048 307.395 607.048 300.266C607.048 293.137 605.656 286.325 602.873 279.831C600.09 273.288 596.33 267.673 591.594 262.985C586.906 258.249 581.291 254.489 574.748 251.706C568.254 248.923 561.442 247.531 554.313 247.531C547.185 247.531 540.349 248.923 533.806 251.706C527.312 254.489 521.696 258.249 516.96 262.985C512.272 267.673 508.537 273.288 505.754 279.831ZM500.92 322.824C497.844 315.646 496.306 308.127 496.306 300.266C496.306 292.404 497.844 284.909 500.92 277.78C503.996 270.603 508.122 264.426 513.298 259.25C518.474 254.074 524.626 249.948 531.755 246.872C538.933 243.796 546.452 242.258 554.313 242.258C562.175 242.258 569.67 243.796 576.799 246.872C583.977 249.948 590.153 254.074 595.329 259.25C600.505 264.426 604.631 270.603 607.707 277.78C610.783 284.909 612.321 292.404 612.321 300.266C612.321 308.127 610.783 315.646 607.707 322.824C604.631 329.953 600.505 336.105 595.329 341.281C590.153 346.457 583.977 350.583 576.799 353.659C569.67 356.735 562.175 358.273 554.313 358.273C546.452 358.273 538.933 356.735 531.755 353.659C524.626 350.583 518.474 346.457 513.298 341.281C508.122 336.105 503.996 329.953 500.92 322.824ZM706.991 283.859L702.743 287.082C698.495 281.809 693.026 279.172 686.337 279.172C680.526 279.172 675.546 281.247 671.396 285.397C667.294 289.499 665.243 294.455 665.243 300.266C665.243 306.076 667.294 311.057 671.396 315.207C675.546 319.309 680.526 321.359 686.337 321.359C689.608 321.359 692.66 320.651 695.492 319.235C698.373 317.819 700.814 315.866 702.816 313.376L706.918 316.818C704.477 319.895 701.449 322.312 697.836 324.069C694.223 325.778 690.39 326.633 686.337 326.633C679.062 326.633 672.836 324.069 667.66 318.942C662.533 313.767 659.97 307.541 659.97 300.266C659.97 292.99 662.533 286.789 667.66 281.662C672.836 276.486 679.062 273.898 686.337 273.898C690.438 273.898 694.296 274.802 697.909 276.608C701.522 278.366 704.55 280.783 706.991 283.859ZM715.194 277.268L711.02 280.49C708.09 276.779 704.452 273.874 700.106 271.774C695.81 269.675 691.22 268.625 686.337 268.625C677.597 268.625 670.126 271.726 663.925 277.927C657.772 284.128 654.696 291.574 654.696 300.266C654.696 308.957 657.772 316.403 663.925 322.604C670.126 328.806 677.597 331.906 686.337 331.906C691.22 331.906 695.834 330.856 700.18 328.757C704.525 326.608 708.163 323.679 711.093 319.968L715.121 323.337C711.703 327.634 707.479 331.027 702.45 333.518C697.421 335.959 692.05 337.18 686.337 337.18C679.647 337.18 673.471 335.544 667.807 332.272C662.143 328.952 657.65 324.46 654.33 318.796C651.059 313.132 649.423 306.955 649.423 300.266C649.423 293.576 651.059 287.399 654.33 281.735C657.65 276.071 662.143 271.604 667.807 268.332C673.471 265.012 679.647 263.352 686.337 263.352C692.05 263.352 697.421 264.597 702.45 267.087C707.528 269.528 711.776 272.922 715.194 277.268ZM723.471 270.676L719.369 273.972C715.414 269.04 710.556 265.158 704.794 262.326C699.032 259.494 692.88 258.078 686.337 258.078C680.624 258.078 675.155 259.201 669.931 261.447C664.755 263.645 660.263 266.647 656.454 270.456C652.694 274.216 649.691 278.708 647.445 283.933C645.248 289.108 644.149 294.553 644.149 300.266C644.149 305.979 645.248 311.447 647.445 316.672C649.691 321.848 652.694 326.34 656.454 330.148C660.263 333.908 664.755 336.911 669.931 339.157C675.155 341.354 680.624 342.453 686.337 342.453C692.88 342.453 699.032 341.037 704.794 338.205C710.556 335.373 715.414 331.491 719.369 326.56L723.324 330.002C718.881 335.52 713.437 339.865 706.991 343.039C700.546 346.164 693.661 347.727 686.337 347.727C679.892 347.727 673.739 346.481 667.88 343.991C662.021 341.452 656.967 338.083 652.719 333.884C648.52 329.636 645.15 324.582 642.611 318.723C640.121 312.863 638.876 306.711 638.876 300.266C638.876 293.82 640.121 287.668 642.611 281.809C645.15 275.949 648.52 270.92 652.719 266.721C656.967 262.473 662.021 259.104 667.88 256.613C673.739 254.074 679.892 252.805 686.337 252.805C693.71 252.805 700.619 254.392 707.064 257.565C713.559 260.739 719.027 265.109 723.471 270.676ZM731.674 264.084L727.426 267.233C722.494 261.13 716.439 256.32 709.262 252.805C702.133 249.289 694.491 247.531 686.337 247.531C679.208 247.531 672.372 248.923 665.829 251.706C659.335 254.489 653.72 258.249 648.983 262.985C644.296 267.673 640.561 273.288 637.777 279.831C634.994 286.325 633.603 293.137 633.603 300.266C633.603 307.395 634.994 314.23 637.777 320.773C640.561 327.268 644.296 332.883 648.983 337.619C653.72 342.307 659.335 346.042 665.829 348.825C672.372 351.608 679.208 353 686.337 353C694.491 353 702.133 351.242 709.262 347.727C716.439 344.211 722.494 339.401 727.426 333.298L731.601 336.521C726.181 343.259 719.516 348.581 711.605 352.487C703.744 356.345 695.321 358.273 686.337 358.273C678.476 358.273 670.956 356.735 663.778 353.659C656.649 350.583 650.497 346.457 645.321 341.281C640.146 336.105 636.02 329.953 632.943 322.824C629.867 315.646 628.329 308.127 628.329 300.266C628.329 292.404 629.867 284.909 632.943 277.78C636.02 270.603 640.146 264.426 645.321 259.25C650.497 254.074 656.649 249.948 663.778 246.872C670.956 243.796 678.476 242.258 686.337 242.258C695.321 242.258 703.769 244.211 711.679 248.117C719.589 251.975 726.254 257.297 731.674 264.084ZM848.023 247.531L818.653 300.705L847.584 353H841.725L812.794 300.705L842.164 247.531H848.023ZM836.231 247.531L806.861 300.705L835.792 353H829.933L801.002 300.705L830.372 247.531H836.231ZM824.439 247.531L795.069 300.705L824 353H818.141L789.21 300.705L818.58 247.531H824.439ZM812.647 247.531L783.204 300.705L812.208 353H806.349L777.345 300.705L806.788 247.531H812.647ZM768.849 247.531V353H774.122V247.531H768.849ZM758.302 247.531V353H763.575V247.531H758.302ZM747.755 247.531V353H753.028V247.531H747.755ZM737.208 247.531V353H742.481V247.531H737.208Z" fill="#353454"/>
<g opacity="0.6">
<path d="M252.897 1276H250.988V1245.34H252.897V1276ZM263.397 1276H261.488V1255.49L258.995 1269.1L256.502 1255.49V1276H254.593V1245.34H256.502L258.995 1259.33L261.488 1245.34H263.397V1276ZM273.83 1276H271.921V1255.49L269.428 1269.1L266.934 1255.49V1276H265.025V1245.34H266.934L269.428 1259.33L271.921 1245.34H273.83V1276ZM281.994 1276H275.48V1245.34H281.994V1247.25H277.412V1259.72H281.23V1261.62H277.412V1274.09H281.994V1276ZM290.81 1276H288.9V1264.3C288.9 1263.65 288.743 1263.07 288.429 1262.55C288.069 1261.93 287.583 1261.62 286.969 1261.62H285.06V1276H283.15V1245.34H286.969C288.122 1245.34 289.073 1245.83 289.821 1246.82C290.48 1247.74 290.81 1248.77 290.81 1249.92V1256.26C290.81 1257.19 290.57 1258.08 290.091 1258.95C289.612 1259.81 288.953 1260.37 288.114 1260.66C288.953 1260.97 289.612 1261.55 290.091 1262.39C290.57 1263.23 290.81 1264.13 290.81 1265.08V1276ZM288.9 1257.02V1249.92C288.9 1249.28 288.743 1248.69 288.429 1248.17C288.069 1247.56 287.583 1247.25 286.969 1247.25H285.06V1259.72H286.969C287.583 1259.72 288.069 1259.41 288.429 1258.79C288.743 1258.29 288.9 1257.69 288.9 1257.02ZM300.007 1271.6C300.007 1272.77 299.67 1273.8 298.996 1274.7C298.247 1275.67 297.304 1276.16 296.166 1276.16C295.028 1276.16 294.085 1275.67 293.336 1274.7C292.662 1273.8 292.325 1272.77 292.325 1271.6V1268.34H294.257V1271.6C294.257 1272.24 294.407 1272.83 294.706 1273.35C295.065 1273.96 295.552 1274.27 296.166 1274.27C296.78 1274.27 297.267 1273.96 297.626 1273.35C297.925 1272.83 298.075 1272.24 298.075 1271.6V1268.14C298.075 1266.4 297.581 1264.7 296.593 1263.04C295.664 1261.68 294.744 1260.28 293.83 1258.86C292.827 1257.14 292.325 1255.25 292.325 1253.2V1249.74C292.325 1248.56 292.662 1247.53 293.336 1246.64C294.07 1245.64 295.013 1245.14 296.166 1245.14C297.319 1245.14 298.262 1245.64 298.996 1246.64C299.67 1247.53 300.007 1248.56 300.007 1249.74V1253H298.075V1249.74C298.075 1249.08 297.925 1248.49 297.626 1247.97C297.267 1247.35 296.78 1247.05 296.166 1247.05C295.552 1247.05 295.065 1247.35 294.706 1247.97C294.407 1248.49 294.257 1249.08 294.257 1249.74V1253.2C294.257 1254.94 294.751 1256.64 295.739 1258.3C296.653 1259.68 297.574 1261.07 298.502 1262.48C299.505 1264.22 300.007 1266.1 300.007 1268.14V1271.6ZM308.081 1276H301.567V1245.34H308.081V1247.25H303.499V1259.72H307.317V1261.62H303.499V1274.09H308.081V1276ZM326.633 1245.34L324.746 1258.1C324.597 1258.82 324.439 1259.71 324.275 1260.77C324.125 1261.82 323.96 1263.06 323.78 1264.5C323.736 1265.79 323.713 1267.07 323.713 1268.34C323.713 1268.76 323.713 1269.29 323.713 1269.94C323.713 1270.56 323.721 1271.31 323.736 1272.18C323.75 1273.04 323.758 1273.78 323.758 1274.43C323.773 1275.06 323.78 1275.58 323.78 1276H321.804V1265.8C321.804 1265.41 321.722 1264.58 321.557 1263.31C321.407 1262.02 321.167 1260.28 320.838 1258.1L318.951 1245.34H320.95L322.792 1259.85L324.634 1245.34H326.633ZM335.112 1271.6C335.112 1272.75 334.782 1273.78 334.123 1274.7C333.375 1275.67 332.431 1276.16 331.293 1276.16C330.14 1276.16 329.189 1275.67 328.441 1274.7C327.782 1273.78 327.452 1272.75 327.452 1271.6V1249.74C327.452 1248.56 327.782 1247.53 328.441 1246.64C329.174 1245.64 330.125 1245.14 331.293 1245.14C332.446 1245.14 333.39 1245.64 334.123 1246.64C334.782 1247.53 335.112 1248.56 335.112 1249.74V1271.6ZM333.202 1271.6V1249.74C333.202 1249.08 333.045 1248.49 332.731 1247.97C332.386 1247.35 331.907 1247.05 331.293 1247.05C330.679 1247.05 330.193 1247.35 329.833 1247.97C329.519 1248.49 329.362 1249.08 329.362 1249.74V1271.6C329.362 1272.26 329.519 1272.84 329.833 1273.35C330.193 1273.96 330.679 1274.27 331.293 1274.27C331.907 1274.27 332.386 1273.96 332.731 1273.35C333.045 1272.84 333.202 1272.26 333.202 1271.6ZM344.421 1271.6C344.421 1272.75 344.092 1273.78 343.433 1274.7C342.684 1275.67 341.733 1276.16 340.58 1276.16C339.442 1276.16 338.499 1275.67 337.75 1274.7C337.091 1273.78 336.762 1272.75 336.762 1271.6V1245.34H338.671V1271.6C338.671 1272.24 338.821 1272.83 339.12 1273.35C339.48 1273.96 339.966 1274.27 340.58 1274.27C341.194 1274.27 341.681 1273.96 342.04 1273.35C342.355 1272.84 342.512 1272.26 342.512 1271.6V1245.34H344.421V1271.6ZM353.731 1276H351.822V1264.3C351.822 1263.65 351.664 1263.07 351.35 1262.55C350.991 1261.93 350.504 1261.62 349.89 1261.62H347.981V1276H346.072V1245.34H349.89C351.043 1245.34 351.994 1245.83 352.742 1246.82C353.401 1247.74 353.731 1248.77 353.731 1249.92V1256.26C353.731 1257.19 353.491 1258.08 353.012 1258.95C352.533 1259.81 351.874 1260.37 351.035 1260.66C351.874 1260.97 352.533 1261.55 353.012 1262.39C353.491 1263.23 353.731 1264.13 353.731 1265.08V1276ZM351.822 1257.02V1249.92C351.822 1249.28 351.664 1248.69 351.35 1248.17C350.991 1247.56 350.504 1247.25 349.89 1247.25H347.981V1259.72H349.89C350.504 1259.72 350.991 1259.41 351.35 1258.79C351.664 1258.29 351.822 1257.69 351.822 1257.02ZM362.928 1271.6C362.928 1272.77 362.591 1273.8 361.917 1274.7C361.169 1275.67 360.225 1276.16 359.087 1276.16C357.949 1276.16 357.006 1275.67 356.257 1274.7C355.583 1273.8 355.246 1272.77 355.246 1271.6V1268.34H357.178V1271.6C357.178 1272.24 357.328 1272.83 357.627 1273.35C357.987 1273.96 358.473 1274.27 359.087 1274.27C359.701 1274.27 360.188 1273.96 360.547 1273.35C360.847 1272.83 360.996 1272.24 360.996 1271.6V1268.14C360.996 1266.4 360.502 1264.7 359.514 1263.04C358.586 1261.68 357.665 1260.28 356.751 1258.86C355.748 1257.14 355.246 1255.25 355.246 1253.2V1249.74C355.246 1248.56 355.583 1247.53 356.257 1246.64C356.991 1245.64 357.934 1245.14 359.087 1245.14C360.24 1245.14 361.184 1245.64 361.917 1246.64C362.591 1247.53 362.928 1248.56 362.928 1249.74V1253H360.996V1249.74C360.996 1249.08 360.847 1248.49 360.547 1247.97C360.188 1247.35 359.701 1247.05 359.087 1247.05C358.473 1247.05 357.987 1247.35 357.627 1247.97C357.328 1248.49 357.178 1249.08 357.178 1249.74V1253.2C357.178 1254.94 357.672 1256.64 358.66 1258.3C359.574 1259.68 360.495 1261.07 361.423 1262.48C362.426 1264.22 362.928 1266.1 362.928 1268.14V1271.6ZM371.002 1276H364.489V1245.34H371.002V1247.25H366.42V1259.72H370.239V1261.62H366.42V1274.09H371.002V1276ZM378.672 1276H372.159V1245.34H374.068V1274.09H378.672V1276ZM386.252 1247.25H381.67V1259.72H385.489V1261.62H381.67V1276H379.739V1245.34H386.252V1247.25ZM399.301 1276H397.392V1253H399.301V1276ZM408.656 1276H406.747L402.906 1260.86V1276H400.997V1253H402.906L406.747 1268.14V1253H408.656V1276ZM417.539 1254.91H414.664V1276H412.755V1254.91H409.88V1253H417.539V1254.91ZM426.422 1271.6C426.422 1272.75 426.092 1273.78 425.433 1274.7C424.685 1275.67 423.741 1276.16 422.603 1276.16C421.45 1276.16 420.499 1275.67 419.751 1274.7C419.092 1273.78 418.762 1272.75 418.762 1271.6V1257.4C418.762 1256.25 419.092 1255.22 419.751 1254.3C420.484 1253.3 421.435 1252.8 422.603 1252.8C423.756 1252.8 424.7 1253.3 425.433 1254.3C426.092 1255.22 426.422 1256.25 426.422 1257.4V1271.6ZM424.512 1271.6V1257.4C424.512 1256.76 424.355 1256.17 424.041 1255.65C423.696 1255.04 423.217 1254.73 422.603 1254.73C421.989 1254.73 421.503 1255.04 421.143 1255.65C420.829 1256.17 420.672 1256.76 420.672 1257.4V1271.6C420.672 1272.26 420.829 1272.84 421.143 1273.35C421.503 1273.96 421.989 1274.27 422.603 1274.27C423.217 1274.27 423.696 1273.96 424.041 1273.35C424.355 1272.84 424.512 1272.26 424.512 1271.6ZM445.333 1254.91H442.458V1276H440.549V1254.91H437.674V1253H445.333V1254.91ZM454.261 1276H452.351V1265.47H448.511V1276H446.601V1253H448.511V1263.53H452.351V1253H454.261V1276ZM462.425 1276H455.911V1253H462.425V1254.91H457.82V1263.53H461.661V1265.47H457.82V1274.09H462.425V1276ZM481.381 1271.6C481.381 1272.75 481.051 1273.78 480.392 1274.7C479.644 1275.67 478.693 1276.16 477.54 1276.16C476.402 1276.16 475.459 1275.67 474.71 1274.7C474.051 1273.78 473.722 1272.75 473.722 1271.6V1249.74C473.722 1248.56 474.051 1247.53 474.71 1246.64C475.444 1245.64 476.387 1245.14 477.54 1245.14C478.708 1245.14 479.659 1245.64 480.392 1246.64C481.051 1247.53 481.381 1248.56 481.381 1249.74V1253H479.472V1249.74C479.472 1249.08 479.314 1248.49 479 1247.97C478.641 1247.35 478.154 1247.05 477.54 1247.05C476.926 1247.05 476.439 1247.35 476.08 1247.97C475.78 1248.49 475.631 1249.08 475.631 1249.74V1271.6C475.631 1272.24 475.78 1272.83 476.08 1273.35C476.439 1273.96 476.926 1274.27 477.54 1274.27C478.154 1274.27 478.641 1273.96 479 1273.35C479.314 1272.84 479.472 1272.26 479.472 1271.6V1268.34H481.381V1271.6ZM484.851 1276H482.941V1245.34H484.851V1276ZM494.205 1276H492.296L488.455 1255.49V1276H486.546V1245.34H488.455L492.296 1265.85V1245.34H494.205V1276ZM502.392 1276H495.878V1245.34H502.392V1247.25H497.81V1259.72H501.628V1261.62H497.81V1274.09H502.392V1276ZM512.353 1276H510.443V1255.49L507.95 1269.1L505.457 1255.49V1276H503.548V1245.34H505.457L507.95 1259.33L510.443 1245.34H512.353V1276ZM523.257 1276H521.258L520.562 1270.25H516.339L515.665 1276H513.666L517.417 1245.34H519.416L523.257 1276ZM520.337 1268.34L518.428 1252.51L516.541 1268.34H520.337ZM529.939 1247.25H527.064V1276H525.154V1247.25H522.279V1245.34H529.939V1247.25ZM538.777 1271.6C538.777 1272.75 538.447 1273.78 537.788 1274.7C537.04 1275.67 536.096 1276.16 534.958 1276.16C533.805 1276.16 532.854 1275.67 532.106 1274.7C531.447 1273.78 531.117 1272.75 531.117 1271.6V1249.74C531.117 1248.56 531.447 1247.53 532.106 1246.64C532.839 1245.64 533.79 1245.14 534.958 1245.14C536.111 1245.14 537.055 1245.64 537.788 1246.64C538.447 1247.53 538.777 1248.56 538.777 1249.74V1271.6ZM536.867 1271.6V1249.74C536.867 1249.08 536.71 1248.49 536.396 1247.97C536.051 1247.35 535.572 1247.05 534.958 1247.05C534.344 1247.05 533.858 1247.35 533.498 1247.97C533.184 1248.49 533.027 1249.08 533.027 1249.74V1271.6C533.027 1272.26 533.184 1272.84 533.498 1273.35C533.858 1273.96 534.344 1274.27 534.958 1274.27C535.572 1274.27 536.051 1273.96 536.396 1273.35C536.71 1272.84 536.867 1272.26 536.867 1271.6ZM548.086 1276H546.177V1274.65C545.578 1275.66 544.747 1276.16 543.684 1276.16C542.606 1276.16 541.775 1275.65 541.191 1274.63C540.682 1273.76 540.427 1272.75 540.427 1271.6V1249.74C540.427 1248.56 540.756 1247.53 541.415 1246.64C542.149 1245.64 543.092 1245.14 544.245 1245.14C545.413 1245.14 546.364 1245.64 547.098 1246.64C547.757 1247.53 548.086 1248.56 548.086 1249.74V1253H546.177V1249.74C546.177 1249.08 546.02 1248.49 545.705 1247.97C545.346 1247.35 544.859 1247.05 544.245 1247.05C543.631 1247.05 543.145 1247.35 542.785 1247.97C542.486 1248.49 542.336 1249.08 542.336 1249.74V1271.6C542.336 1272.24 542.486 1272.83 542.785 1273.35C543.145 1273.96 543.631 1274.27 544.245 1274.27C544.859 1274.27 545.346 1273.96 545.705 1273.35C546.02 1272.84 546.177 1272.26 546.177 1271.6V1261.62H544.245V1259.72H548.086V1276ZM557.396 1276H555.487V1264.3C555.487 1263.65 555.329 1263.07 555.015 1262.55C554.656 1261.93 554.169 1261.62 553.555 1261.62H551.646V1276H549.737V1245.34H553.555C554.708 1245.34 555.659 1245.83 556.407 1246.82C557.066 1247.74 557.396 1248.77 557.396 1249.92V1256.26C557.396 1257.19 557.156 1258.08 556.677 1258.95C556.198 1259.81 555.539 1260.37 554.7 1260.66C555.539 1260.97 556.198 1261.55 556.677 1262.39C557.156 1263.23 557.396 1264.13 557.396 1265.08V1276ZM555.487 1257.02V1249.92C555.487 1249.28 555.329 1248.69 555.015 1248.17C554.656 1247.56 554.169 1247.25 553.555 1247.25H551.646V1259.72H553.555C554.169 1259.72 554.656 1259.41 555.015 1258.79C555.329 1258.29 555.487 1257.69 555.487 1257.02ZM568.323 1276H566.324L565.627 1270.25H561.405L560.731 1276H558.732L562.483 1245.34H564.482L568.323 1276ZM565.403 1268.34L563.493 1252.51L561.607 1268.34H565.403ZM577.318 1257.02C577.318 1258.2 576.988 1259.24 576.329 1260.12C575.596 1261.12 574.645 1261.62 573.477 1261.62H571.568V1276H569.659V1245.34H573.477C574.63 1245.34 575.581 1245.83 576.329 1246.82C576.988 1247.74 577.318 1248.77 577.318 1249.92V1257.02ZM575.409 1257.02V1249.92C575.409 1249.28 575.251 1248.69 574.937 1248.17C574.577 1247.56 574.091 1247.25 573.477 1247.25H571.568V1259.72H573.477C574.091 1259.72 574.577 1259.41 574.937 1258.79C575.251 1258.29 575.409 1257.69 575.409 1257.02ZM586.133 1276H584.224V1261.62H580.383V1276H578.474V1245.34H580.383V1259.72H584.224V1245.34H586.133V1276ZM589.693 1276H587.784V1245.34H589.693V1276ZM599.047 1271.6C599.047 1272.75 598.718 1273.78 598.059 1274.7C597.31 1275.67 596.359 1276.16 595.206 1276.16C594.068 1276.16 593.125 1275.67 592.376 1274.7C591.718 1273.78 591.388 1272.75 591.388 1271.6V1249.74C591.388 1248.56 591.718 1247.53 592.376 1246.64C593.11 1245.64 594.053 1245.14 595.206 1245.14C596.374 1245.14 597.325 1245.64 598.059 1246.64C598.718 1247.53 599.047 1248.56 599.047 1249.74V1253H597.138V1249.74C597.138 1249.08 596.981 1248.49 596.666 1247.97C596.307 1247.35 595.82 1247.05 595.206 1247.05C594.593 1247.05 594.106 1247.35 593.747 1247.97C593.447 1248.49 593.297 1249.08 593.297 1249.74V1271.6C593.297 1272.24 593.447 1272.83 593.747 1273.35C594.106 1273.96 594.593 1274.27 595.206 1274.27C595.82 1274.27 596.307 1273.96 596.666 1273.35C596.981 1272.84 597.138 1272.26 597.138 1271.6V1268.34H599.047V1271.6ZM609.884 1276H607.885L607.189 1270.25H602.966L602.292 1276H600.293L604.044 1245.34H606.043L609.884 1276ZM606.964 1268.34L605.055 1252.51L603.168 1268.34H606.964ZM617.734 1276H611.22V1245.34H613.129V1274.09H617.734V1276ZM627.583 1265.47H619.923V1263.53H627.583V1265.47ZM636.937 1276H630.423V1245.34H632.333V1274.09H636.937V1276ZM639.89 1276H637.981V1245.34H639.89V1276ZM649.245 1276H647.246L643.495 1261.89V1276H641.586V1245.34H643.495V1259.33L647.246 1245.34H649.245L645.134 1260.66L649.245 1276ZM657.297 1276H650.783V1245.34H657.297V1247.25H652.715V1259.72H656.533V1261.62H652.715V1274.09H657.297V1276ZM675.062 1276H668.549V1245.34H675.062V1247.25H670.48V1259.72H674.299V1261.62H670.48V1274.09H675.062V1276ZM683.765 1276H681.766L679.925 1264.54L678.083 1276H676.084L678.936 1260.66L676.084 1245.34H678.083L679.925 1256.8L681.766 1245.34H683.765L680.935 1260.66L683.765 1276ZM692.963 1257.02C692.963 1258.2 692.633 1259.24 691.974 1260.12C691.241 1261.12 690.29 1261.62 689.122 1261.62H687.213V1276H685.304V1245.34H689.122C690.275 1245.34 691.226 1245.83 691.974 1246.82C692.633 1247.74 692.963 1248.77 692.963 1249.92V1257.02ZM691.054 1257.02V1249.92C691.054 1249.28 690.896 1248.69 690.582 1248.17C690.223 1247.56 689.736 1247.25 689.122 1247.25H687.213V1259.72H689.122C689.736 1259.72 690.223 1259.41 690.582 1258.79C690.896 1258.29 691.054 1257.69 691.054 1257.02ZM700.655 1276H694.142V1245.34H700.655V1247.25H696.073V1259.72H699.892V1261.62H696.073V1274.09H700.655V1276ZM709.471 1276H707.561V1264.3C707.561 1263.65 707.404 1263.07 707.09 1262.55C706.73 1261.93 706.244 1261.62 705.63 1261.62H703.721V1276H701.811V1245.34H705.63C706.783 1245.34 707.734 1245.83 708.482 1246.82C709.141 1247.74 709.471 1248.77 709.471 1249.92V1256.26C709.471 1257.19 709.231 1258.08 708.752 1258.95C708.273 1259.81 707.614 1260.37 706.775 1260.66C707.614 1260.97 708.273 1261.55 708.752 1262.39C709.231 1263.23 709.471 1264.13 709.471 1265.08V1276ZM707.561 1257.02V1249.92C707.561 1249.28 707.404 1248.69 707.09 1248.17C706.73 1247.56 706.244 1247.25 705.63 1247.25H703.721V1259.72H705.63C706.244 1259.72 706.73 1259.41 707.09 1258.79C707.404 1258.29 707.561 1257.69 707.561 1257.02ZM713.03 1276H711.121V1245.34H713.03V1276ZM721.262 1276H714.748V1245.34H721.262V1247.25H716.68V1259.72H720.498V1261.62H716.68V1274.09H721.262V1276ZM730.077 1276H728.168L724.327 1255.49V1276H722.418V1245.34H724.327L728.168 1265.85V1245.34H730.077V1276ZM739.387 1271.6C739.387 1272.75 739.057 1273.78 738.399 1274.7C737.65 1275.67 736.699 1276.16 735.546 1276.16C734.408 1276.16 733.465 1275.67 732.716 1274.7C732.057 1273.78 731.728 1272.75 731.728 1271.6V1249.74C731.728 1248.56 732.057 1247.53 732.716 1246.64C733.45 1245.64 734.393 1245.14 735.546 1245.14C736.714 1245.14 737.665 1245.64 738.399 1246.64C739.057 1247.53 739.387 1248.56 739.387 1249.74V1253H737.478V1249.74C737.478 1249.08 737.32 1248.49 737.006 1247.97C736.647 1247.35 736.16 1247.05 735.546 1247.05C734.932 1247.05 734.445 1247.35 734.086 1247.97C733.787 1248.49 733.637 1249.08 733.637 1249.74V1271.6C733.637 1272.24 733.787 1272.83 734.086 1273.35C734.445 1273.96 734.932 1274.27 735.546 1274.27C736.16 1274.27 736.647 1273.96 737.006 1273.35C737.32 1272.84 737.478 1272.26 737.478 1271.6V1268.34H739.387V1271.6ZM747.484 1276H740.97V1245.34H747.484V1247.25H742.902V1259.72H746.72V1261.62H742.902V1274.09H747.484V1276ZM291.337 1291.91H288.462V1313H286.553V1291.91H283.678V1290H291.337V1291.91ZM300.22 1308.6C300.22 1309.75 299.89 1310.78 299.232 1311.7C298.483 1312.67 297.539 1313.16 296.401 1313.16C295.248 1313.16 294.298 1312.67 293.549 1311.7C292.89 1310.78 292.561 1309.75 292.561 1308.6V1294.4C292.561 1293.25 292.89 1292.22 293.549 1291.3C294.283 1290.3 295.233 1289.8 296.401 1289.8C297.554 1289.8 298.498 1290.3 299.232 1291.3C299.89 1292.22 300.22 1293.25 300.22 1294.4V1308.6ZM298.311 1308.6V1294.4C298.311 1293.76 298.153 1293.17 297.839 1292.65C297.495 1292.04 297.015 1291.73 296.401 1291.73C295.788 1291.73 295.301 1292.04 294.941 1292.65C294.627 1293.17 294.47 1293.76 294.47 1294.4V1308.6C294.47 1309.26 294.627 1309.84 294.941 1310.35C295.301 1310.96 295.788 1311.27 296.401 1311.27C297.015 1311.27 297.495 1310.96 297.839 1310.35C298.153 1309.84 298.311 1309.26 298.311 1308.6ZM319.603 1308.4C319.603 1309.59 319.266 1310.63 318.592 1311.5C317.858 1312.5 316.915 1313 315.762 1313H311.921V1282.34H315.762C316.9 1282.34 317.843 1282.83 318.592 1283.82C319.266 1284.72 319.603 1285.75 319.603 1286.92V1308.4ZM317.671 1308.4V1286.92C317.671 1286.28 317.521 1285.69 317.222 1285.17C316.862 1284.56 316.376 1284.25 315.762 1284.25H313.853V1311.09H315.762C316.376 1311.09 316.862 1310.78 317.222 1310.17C317.521 1309.65 317.671 1309.05 317.671 1308.4ZM323.162 1313H321.253V1282.34H323.162V1313ZM332.405 1308.6C332.405 1309.77 332.068 1310.8 331.394 1311.7C330.645 1312.67 329.702 1313.16 328.564 1313.16C327.426 1313.16 326.482 1312.67 325.734 1311.7C325.06 1310.8 324.723 1309.77 324.723 1308.6V1305.34H326.655V1308.6C326.655 1309.24 326.804 1309.83 327.104 1310.35C327.463 1310.96 327.95 1311.27 328.564 1311.27C329.178 1311.27 329.664 1310.96 330.024 1310.35C330.323 1309.83 330.473 1309.24 330.473 1308.6V1305.14C330.473 1303.4 329.979 1301.7 328.99 1300.04C328.062 1298.68 327.141 1297.28 326.228 1295.86C325.225 1294.14 324.723 1292.25 324.723 1290.2V1286.74C324.723 1285.56 325.06 1284.53 325.734 1283.64C326.467 1282.64 327.411 1282.14 328.564 1282.14C329.717 1282.14 330.66 1282.64 331.394 1283.64C332.068 1284.53 332.405 1285.56 332.405 1286.74V1290H330.473V1286.74C330.473 1286.08 330.323 1285.49 330.024 1284.97C329.664 1284.35 329.178 1284.05 328.564 1284.05C327.95 1284.05 327.463 1284.35 327.104 1284.97C326.804 1285.49 326.655 1286.08 326.655 1286.74V1290.2C326.655 1291.94 327.149 1293.64 328.137 1295.3C329.05 1296.68 329.971 1298.07 330.9 1299.48C331.903 1301.22 332.405 1303.1 332.405 1305.14V1308.6ZM341.602 1308.6C341.602 1309.75 341.272 1310.78 340.614 1311.7C339.865 1312.67 338.914 1313.16 337.761 1313.16C336.623 1313.16 335.68 1312.67 334.931 1311.7C334.272 1310.78 333.943 1309.75 333.943 1308.6V1286.74C333.943 1285.56 334.272 1284.53 334.931 1283.64C335.665 1282.64 336.608 1282.14 337.761 1282.14C338.929 1282.14 339.88 1282.64 340.614 1283.64C341.272 1284.53 341.602 1285.56 341.602 1286.74V1290H339.693V1286.74C339.693 1286.08 339.535 1285.49 339.221 1284.97C338.862 1284.35 338.375 1284.05 337.761 1284.05C337.147 1284.05 336.66 1284.35 336.301 1284.97C336.002 1285.49 335.852 1286.08 335.852 1286.74V1308.6C335.852 1309.24 336.002 1309.83 336.301 1310.35C336.66 1310.96 337.147 1311.27 337.761 1311.27C338.375 1311.27 338.862 1310.96 339.221 1310.35C339.535 1309.84 339.693 1309.26 339.693 1308.6V1305.34H341.602V1308.6ZM350.777 1308.6C350.777 1309.75 350.447 1310.78 349.788 1311.7C349.04 1312.67 348.096 1313.16 346.958 1313.16C345.805 1313.16 344.854 1312.67 344.106 1311.7C343.447 1310.78 343.118 1309.75 343.118 1308.6V1286.74C343.118 1285.56 343.447 1284.53 344.106 1283.64C344.84 1282.64 345.79 1282.14 346.958 1282.14C348.111 1282.14 349.055 1282.64 349.788 1283.64C350.447 1284.53 350.777 1285.56 350.777 1286.74V1308.6ZM348.868 1308.6V1286.74C348.868 1286.08 348.71 1285.49 348.396 1284.97C348.051 1284.35 347.572 1284.05 346.958 1284.05C346.344 1284.05 345.858 1284.35 345.498 1284.97C345.184 1285.49 345.027 1286.08 345.027 1286.74V1308.6C345.027 1309.26 345.184 1309.84 345.498 1310.35C345.858 1310.96 346.344 1311.27 346.958 1311.27C347.572 1311.27 348.051 1310.96 348.396 1310.35C348.71 1309.84 348.868 1309.26 348.868 1308.6ZM361.659 1282.34L357.818 1313H355.819L352.068 1282.34H354.067L356.829 1305.83L359.66 1282.34H361.659ZM369.531 1313H363.017V1282.34H369.531V1284.25H364.949V1296.72H368.767V1298.62H364.949V1311.09H369.531V1313ZM378.346 1313H376.437V1301.3C376.437 1300.65 376.28 1300.07 375.965 1299.55C375.606 1298.93 375.119 1298.62 374.505 1298.62H372.596V1313H370.687V1282.34H374.505C375.658 1282.34 376.609 1282.83 377.358 1283.82C378.017 1284.74 378.346 1285.77 378.346 1286.92V1293.26C378.346 1294.19 378.107 1295.08 377.627 1295.95C377.148 1296.81 376.489 1297.37 375.651 1297.66C376.489 1297.97 377.148 1298.55 377.627 1299.39C378.107 1300.23 378.346 1301.13 378.346 1302.08V1313ZM376.437 1294.02V1286.92C376.437 1286.28 376.28 1285.69 375.965 1285.17C375.606 1284.56 375.119 1284.25 374.505 1284.25H372.596V1296.72H374.505C375.119 1296.72 375.606 1296.41 375.965 1295.79C376.28 1295.29 376.437 1294.69 376.437 1294.02ZM397.684 1308.6C397.684 1309.75 397.355 1310.78 396.696 1311.7C395.947 1312.67 395.004 1313.16 393.866 1313.16C392.713 1313.16 391.762 1312.67 391.013 1311.7C390.354 1310.78 390.025 1309.75 390.025 1308.6V1294.4C390.025 1293.25 390.354 1292.22 391.013 1291.3C391.747 1290.3 392.698 1289.8 393.866 1289.8C395.019 1289.8 395.962 1290.3 396.696 1291.3C397.355 1292.22 397.684 1293.25 397.684 1294.4V1308.6ZM395.775 1308.6V1294.4C395.775 1293.76 395.618 1293.17 395.303 1292.65C394.959 1292.04 394.48 1291.73 393.866 1291.73C393.252 1291.73 392.765 1292.04 392.406 1292.65C392.091 1293.17 391.934 1293.76 391.934 1294.4V1308.6C391.934 1309.26 392.091 1309.84 392.406 1310.35C392.765 1310.96 393.252 1311.27 393.866 1311.27C394.48 1311.27 394.959 1310.96 395.303 1310.35C395.618 1309.84 395.775 1309.26 395.775 1308.6ZM406.904 1308.6C406.904 1309.75 406.574 1310.78 405.916 1311.7C405.167 1312.67 404.224 1313.16 403.086 1313.16C401.933 1313.16 400.982 1312.67 400.233 1311.7C399.574 1310.78 399.245 1309.75 399.245 1308.6V1290H401.154V1308.6C401.154 1309.26 401.311 1309.84 401.626 1310.35C401.985 1310.96 402.472 1311.27 403.086 1311.27C403.699 1311.27 404.179 1310.96 404.523 1310.35C404.837 1309.84 404.995 1309.26 404.995 1308.6V1290H406.904V1308.6ZM416.213 1313H414.304V1305.14C414.304 1304.49 414.147 1303.91 413.833 1303.39C413.473 1302.77 412.987 1302.47 412.373 1302.47H410.463V1313H408.554V1290H412.373C413.541 1290 414.491 1290.5 415.225 1291.5C415.884 1292.39 416.213 1293.42 416.213 1294.6V1297.1C416.213 1298.03 415.974 1298.92 415.495 1299.79C415.016 1300.65 414.357 1301.22 413.518 1301.5C414.357 1301.78 415.016 1302.36 415.495 1303.23C415.974 1304.07 416.213 1304.96 416.213 1305.9V1313ZM414.304 1297.86V1294.6C414.304 1293.95 414.147 1293.35 413.833 1292.83C413.473 1292.22 412.987 1291.91 412.373 1291.91H410.463V1300.53H412.373C412.987 1300.53 413.473 1300.23 413.833 1299.61C414.147 1299.1 414.304 1298.52 414.304 1297.86ZM435.551 1313H433.642L429.801 1292.49V1313H427.892V1282.34H429.801L433.642 1302.85V1282.34H435.551V1313ZM443.738 1313H437.224V1282.34H443.738V1284.25H439.156V1296.72H442.974V1298.62H439.156V1311.09H443.738V1313ZM456.08 1282.34L454.171 1313H452.172L450.375 1298.42L448.555 1313H446.579L444.737 1282.34H446.736L447.769 1305.07L450.397 1288.09L452.98 1305.07L454.081 1282.34H456.08ZM464.109 1313H457.596V1282.34H464.109V1284.25H459.527V1296.72H463.346V1298.62H459.527V1311.09H464.109V1313ZM472.812 1308.6C472.812 1309.77 472.475 1310.8 471.802 1311.7C471.053 1312.67 470.11 1313.16 468.972 1313.16C467.834 1313.16 466.89 1312.67 466.141 1311.7C465.468 1310.8 465.131 1309.77 465.131 1308.6V1305.34H467.062V1308.6C467.062 1309.24 467.212 1309.83 467.512 1310.35C467.871 1310.96 468.358 1311.27 468.972 1311.27C469.585 1311.27 470.072 1310.96 470.431 1310.35C470.731 1309.83 470.881 1309.24 470.881 1308.6V1305.14C470.881 1303.4 470.387 1301.7 469.398 1300.04C468.47 1298.68 467.549 1297.28 466.636 1295.86C465.632 1294.14 465.131 1292.25 465.131 1290.2V1286.74C465.131 1285.56 465.468 1284.53 466.141 1283.64C466.875 1282.64 467.819 1282.14 468.972 1282.14C470.125 1282.14 471.068 1282.64 471.802 1283.64C472.475 1284.53 472.812 1285.56 472.812 1286.74V1290H470.881V1286.74C470.881 1286.08 470.731 1285.49 470.431 1284.97C470.072 1284.35 469.585 1284.05 468.972 1284.05C468.358 1284.05 467.871 1284.35 467.512 1284.97C467.212 1285.49 467.062 1286.08 467.062 1286.74V1290.2C467.062 1291.94 467.556 1293.64 468.545 1295.3C469.458 1296.68 470.379 1298.07 471.307 1299.48C472.311 1301.22 472.812 1303.1 472.812 1305.14V1308.6ZM481.538 1284.25H478.663V1313H476.754V1284.25H473.879V1282.34H481.538V1284.25ZM500.494 1308.6C500.494 1309.75 500.165 1310.78 499.506 1311.7C498.757 1312.67 497.806 1313.16 496.653 1313.16C495.515 1313.16 494.572 1312.67 493.823 1311.7C493.164 1310.78 492.835 1309.75 492.835 1308.6V1286.74C492.835 1285.56 493.164 1284.53 493.823 1283.64C494.557 1282.64 495.5 1282.14 496.653 1282.14C497.821 1282.14 498.772 1282.64 499.506 1283.64C500.165 1284.53 500.494 1285.56 500.494 1286.74V1290H498.585V1286.74C498.585 1286.08 498.428 1285.49 498.113 1284.97C497.754 1284.35 497.267 1284.05 496.653 1284.05C496.039 1284.05 495.553 1284.35 495.193 1284.97C494.894 1285.49 494.744 1286.08 494.744 1286.74V1308.6C494.744 1309.24 494.894 1309.83 495.193 1310.35C495.553 1310.96 496.039 1311.27 496.653 1311.27C497.267 1311.27 497.754 1310.96 498.113 1310.35C498.428 1309.84 498.585 1309.26 498.585 1308.6V1305.34H500.494V1308.6ZM509.669 1308.6C509.669 1309.75 509.34 1310.78 508.681 1311.7C507.932 1312.67 506.989 1313.16 505.851 1313.16C504.698 1313.16 503.747 1312.67 502.998 1311.7C502.339 1310.78 502.01 1309.75 502.01 1308.6V1286.74C502.01 1285.56 502.339 1284.53 502.998 1283.64C503.732 1282.64 504.683 1282.14 505.851 1282.14C507.004 1282.14 507.947 1282.64 508.681 1283.64C509.34 1284.53 509.669 1285.56 509.669 1286.74V1308.6ZM507.76 1308.6V1286.74C507.76 1286.08 507.603 1285.49 507.288 1284.97C506.944 1284.35 506.465 1284.05 505.851 1284.05C505.237 1284.05 504.75 1284.35 504.391 1284.97C504.076 1285.49 503.919 1286.08 503.919 1286.74V1308.6C503.919 1309.26 504.076 1309.84 504.391 1310.35C504.75 1310.96 505.237 1311.27 505.851 1311.27C506.465 1311.27 506.944 1310.96 507.288 1310.35C507.603 1309.84 507.76 1309.26 507.76 1308.6ZM517.833 1313H511.319V1282.34H513.229V1311.09H517.833V1313ZM525.391 1313H518.877V1282.34H520.786V1311.09H525.391V1313ZM532.971 1313H526.457V1282.34H532.971V1284.25H528.389V1296.72H532.207V1298.62H528.389V1311.09H532.971V1313ZM541.786 1308.6C541.786 1309.75 541.457 1310.78 540.798 1311.7C540.049 1312.67 539.098 1313.16 537.945 1313.16C536.807 1313.16 535.864 1312.67 535.115 1311.7C534.457 1310.78 534.127 1309.75 534.127 1308.6V1286.74C534.127 1285.56 534.457 1284.53 535.115 1283.64C535.849 1282.64 536.793 1282.14 537.945 1282.14C539.113 1282.14 540.064 1282.64 540.798 1283.64C541.457 1284.53 541.786 1285.56 541.786 1286.74V1290H539.877V1286.74C539.877 1286.08 539.72 1285.49 539.405 1284.97C539.046 1284.35 538.559 1284.05 537.945 1284.05C537.332 1284.05 536.845 1284.35 536.486 1284.97C536.186 1285.49 536.036 1286.08 536.036 1286.74V1308.6C536.036 1309.24 536.186 1309.83 536.486 1310.35C536.845 1310.96 537.332 1311.27 537.945 1311.27C538.559 1311.27 539.046 1310.96 539.405 1310.35C539.72 1309.84 539.877 1309.26 539.877 1308.6V1305.34H541.786V1308.6ZM550.534 1284.25H547.659V1313H545.75V1284.25H542.875V1282.34H550.534V1284.25ZM553.667 1313H551.758V1282.34H553.667V1313ZM562.977 1308.6C562.977 1309.75 562.647 1310.78 561.989 1311.7C561.24 1312.67 560.297 1313.16 559.159 1313.16C558.006 1313.16 557.055 1312.67 556.306 1311.7C555.647 1310.78 555.318 1309.75 555.318 1308.6V1286.74C555.318 1285.56 555.647 1284.53 556.306 1283.64C557.04 1282.64 557.991 1282.14 559.159 1282.14C560.312 1282.14 561.255 1282.64 561.989 1283.64C562.647 1284.53 562.977 1285.56 562.977 1286.74V1308.6ZM561.068 1308.6V1286.74C561.068 1286.08 560.91 1285.49 560.596 1284.97C560.252 1284.35 559.772 1284.05 559.159 1284.05C558.545 1284.05 558.058 1284.35 557.699 1284.97C557.384 1285.49 557.227 1286.08 557.227 1286.74V1308.6C557.227 1309.26 557.384 1309.84 557.699 1310.35C558.058 1310.96 558.545 1311.27 559.159 1311.27C559.772 1311.27 560.252 1310.96 560.596 1310.35C560.91 1309.84 561.068 1309.26 561.068 1308.6ZM572.286 1313H570.377L566.536 1292.49V1313H564.627V1282.34H566.536L570.377 1302.85V1282.34H572.286V1313ZM590.748 1282.34L590.367 1286.16H589.221L588.839 1282.34H590.748ZM586.908 1282.34L586.526 1286.16H585.38L584.998 1282.34H586.908ZM601.069 1308.6C601.069 1309.75 600.739 1310.78 600.081 1311.7C599.332 1312.67 598.381 1313.16 597.228 1313.16C596.09 1313.16 595.147 1312.67 594.398 1311.7C593.739 1310.78 593.41 1309.75 593.41 1308.6V1286.74C593.41 1285.56 593.739 1284.53 594.398 1283.64C595.132 1282.64 596.075 1282.14 597.228 1282.14C598.396 1282.14 599.347 1282.64 600.081 1283.64C600.739 1284.53 601.069 1285.56 601.069 1286.74V1290H599.16V1286.74C599.16 1286.08 599.002 1285.49 598.688 1284.97C598.329 1284.35 597.842 1284.05 597.228 1284.05C596.614 1284.05 596.127 1284.35 595.768 1284.97C595.469 1285.49 595.319 1286.08 595.319 1286.74V1308.6C595.319 1309.24 595.469 1309.83 595.768 1310.35C596.127 1310.96 596.614 1311.27 597.228 1311.27C597.842 1311.27 598.329 1310.96 598.688 1310.35C599.002 1309.84 599.16 1309.26 599.16 1308.6V1305.34H601.069V1308.6ZM610.289 1313H608.379V1298.62H604.539V1313H602.629V1282.34H604.539V1296.72H608.379V1282.34H610.289V1313ZM621.215 1313H619.216L618.52 1307.25H614.297L613.624 1313H611.625L615.375 1282.34H617.375L621.215 1313ZM618.295 1305.34L616.386 1289.51L614.5 1305.34H618.295ZM630.211 1294.02C630.211 1295.2 629.881 1296.24 629.222 1297.12C628.489 1298.12 627.538 1298.62 626.37 1298.62H624.461V1313H622.551V1282.34H626.37C627.523 1282.34 628.474 1282.83 629.222 1283.82C629.881 1284.74 630.211 1285.77 630.211 1286.92V1294.02ZM628.301 1294.02V1286.92C628.301 1286.28 628.144 1285.69 627.83 1285.17C627.47 1284.56 626.984 1284.25 626.37 1284.25H624.461V1296.72H626.37C626.984 1296.72 627.47 1296.41 627.83 1295.79C628.144 1295.29 628.301 1294.69 628.301 1294.02ZM638.554 1284.25H635.679V1313H633.77V1284.25H630.895V1282.34H638.554V1284.25ZM646.314 1313H639.8V1282.34H646.314V1284.25H641.732V1296.72H645.55V1298.62H641.732V1311.09H646.314V1313ZM655.13 1313H653.22V1301.3C653.22 1300.65 653.063 1300.07 652.749 1299.55C652.389 1298.93 651.903 1298.62 651.289 1298.62H649.38V1313H647.47V1282.34H651.289C652.442 1282.34 653.393 1282.83 654.141 1283.82C654.8 1284.74 655.13 1285.77 655.13 1286.92V1293.26C655.13 1294.19 654.89 1295.08 654.411 1295.95C653.932 1296.81 653.273 1297.37 652.434 1297.66C653.273 1297.97 653.932 1298.55 654.411 1299.39C654.89 1300.23 655.13 1301.13 655.13 1302.08V1313ZM653.22 1294.02V1286.92C653.22 1286.28 653.063 1285.69 652.749 1285.17C652.389 1284.56 651.903 1284.25 651.289 1284.25H649.38V1296.72H651.289C651.903 1296.72 652.389 1296.41 652.749 1295.79C653.063 1295.29 653.22 1294.69 653.22 1294.02ZM674.557 1308.4C674.557 1309.59 674.22 1310.63 673.547 1311.5C672.813 1312.5 671.87 1313 670.717 1313H666.876V1282.34H670.717C671.855 1282.34 672.798 1282.83 673.547 1283.82C674.22 1284.72 674.557 1285.75 674.557 1286.92V1293.26C674.557 1294.19 674.318 1295.08 673.839 1295.95C673.359 1296.79 672.701 1297.36 671.862 1297.66C672.701 1297.97 673.359 1298.55 673.839 1299.39C674.318 1300.23 674.557 1301.13 674.557 1302.08V1308.4ZM672.626 1294.02V1286.92C672.626 1286.28 672.476 1285.69 672.177 1285.17C671.817 1284.56 671.33 1284.25 670.717 1284.25H668.807V1296.72H670.717C671.33 1296.72 671.817 1296.41 672.177 1295.79C672.476 1295.27 672.626 1294.68 672.626 1294.02ZM672.626 1308.4V1301.3C672.626 1300.65 672.476 1300.07 672.177 1299.55C671.817 1298.93 671.33 1298.62 670.717 1298.62H668.807V1311.09H670.717C671.33 1311.09 671.817 1310.78 672.177 1310.17C672.476 1309.65 672.626 1309.05 672.626 1308.4ZM683.822 1313H681.913V1301.3C681.913 1300.65 681.756 1300.07 681.441 1299.55C681.082 1298.93 680.595 1298.62 679.981 1298.62H678.072V1313H676.163V1282.34H679.981C681.134 1282.34 682.085 1282.83 682.834 1283.82C683.493 1284.74 683.822 1285.77 683.822 1286.92V1293.26C683.822 1294.19 683.582 1295.08 683.103 1295.95C682.624 1296.81 681.965 1297.37 681.127 1297.66C681.965 1297.97 682.624 1298.55 683.103 1299.39C683.582 1300.23 683.822 1301.13 683.822 1302.08V1313ZM681.913 1294.02V1286.92C681.913 1286.28 681.756 1285.69 681.441 1285.17C681.082 1284.56 680.595 1284.25 679.981 1284.25H678.072V1296.72H679.981C680.595 1296.72 681.082 1296.41 681.441 1295.79C681.756 1295.29 681.913 1294.69 681.913 1294.02ZM687.382 1313H685.473V1282.34H687.382V1313ZM696.781 1308.4C696.781 1309.59 696.444 1310.63 695.77 1311.5C695.037 1312.5 694.093 1313 692.94 1313H689.099V1282.34H692.94C694.078 1282.34 695.022 1282.83 695.77 1283.82C696.444 1284.72 696.781 1285.75 696.781 1286.92V1308.4ZM694.849 1308.4V1286.92C694.849 1286.28 694.7 1285.69 694.4 1285.17C694.041 1284.56 693.554 1284.25 692.94 1284.25H691.031V1311.09H692.94C693.554 1311.09 694.041 1310.78 694.4 1310.17C694.7 1309.65 694.849 1309.05 694.849 1308.4ZM704.968 1313H698.454V1282.34H704.968V1284.25H700.386V1296.72H704.204V1298.62H700.386V1311.09H704.968V1313ZM712.862 1282.34L712.48 1286.16H711.335L710.953 1282.34H712.862ZM709.021 1282.34L708.64 1286.16H707.494L707.112 1282.34H709.021Z" fill="#353454"/>
</g>
</svg>
