<svg width="1000" height="1330" viewBox="0 0 1000 1330" fill="none" xmlns="http://www.w3.org/2000/svg">
<rect width="1000" height="1330" fill="#FFE7F7"/>
<path d="M792.555 114.898C812.895 114.898 833.775 127.318 833.775 151.978C833.775 168.358 822.255 184.018 801.375 189.418L840.255 233.698H822.255C808.215 217.138 793.995 200.398 780.135 183.838V181.498C807.315 180.598 819.195 166.738 819.195 153.058C819.195 136.318 807.315 126.598 790.395 126.598H764.655V233.698H750.075V114.898H792.555Z" fill="#7E3C48"/>
<path d="M692.72 189.058V114.718H706.94V189.598C706.94 216.058 690.2 235.498 660.14 235.498C629.72 235.498 613.16 216.958 613.16 189.418V114.718H627.56V188.338C627.56 206.878 637.64 222.898 660.14 222.898C682.46 222.898 692.72 207.958 692.72 189.058Z" fill="#7E3C48"/>
<path d="M513.433 235.498C474.373 235.498 451.513 208.858 451.513 174.298C451.513 139.918 479.053 112.738 513.433 112.738C549.073 112.738 574.813 139.918 574.813 174.298C574.813 208.858 549.253 235.498 513.433 235.498ZM513.433 125.338C485.713 125.338 466.453 146.938 466.453 174.298C466.453 202.018 484.273 223.078 513.433 223.078C542.053 223.078 560.413 200.938 560.413 174.298C560.413 147.298 541.333 125.338 513.433 125.338Z" fill="#7E3C48"/>
<path d="M355.676 207.958H352.796L309.596 150.358C309.416 150.538 309.416 150.718 309.236 150.718V233.698H295.376V113.818H298.436C316.796 139.018 335.876 164.218 354.416 189.418C372.776 164.218 391.496 139.018 410.036 113.818H413.096V233.698H399.236C399.236 204.718 399.416 178.438 399.416 149.278L398.876 148.918L355.676 207.958Z" fill="#7E3C48"/>
<path d="M251.229 233.698L239.889 206.878H183.909L172.749 233.698H158.529L211.089 113.638H213.789L265.989 233.698H251.229ZM211.629 141.898L188.409 196.258H235.569L212.349 141.898H211.629Z" fill="#7E3C48"/>
<path fill-rule="evenodd" clip-rule="evenodd" d="M833.775 151.978C833.775 127.318 812.895 114.898 792.555 114.898H750.075V233.698H764.655V126.598H790.395C807.315 126.598 819.195 136.318 819.195 153.058C819.195 166.738 807.315 180.598 780.135 181.498V183.838C792.384 198.473 804.913 213.248 817.351 227.915C818.988 229.845 820.623 231.773 822.255 233.698H840.255L801.375 189.418C801.737 189.325 802.096 189.228 802.452 189.129C822.651 183.476 833.775 168.075 833.775 151.978ZM803.182 189.961C823.472 184.096 834.775 168.451 834.775 151.978C834.775 139.333 829.408 129.779 821.416 123.409C813.45 117.059 802.915 113.898 792.555 113.898H749.075V234.698H765.655V127.598H790.395C798.67 127.598 805.614 129.974 810.476 134.298C815.323 138.61 818.195 144.94 818.195 153.058C818.195 159.594 815.363 166.2 809.219 171.302C803.065 176.412 793.534 180.054 780.102 180.499L779.135 180.531V184.202L779.369 184.48C791.616 199.114 804.145 213.888 816.58 228.551C818.219 230.485 819.857 232.416 821.493 234.345L821.792 234.698H842.464L803.182 189.961Z" fill="#7E3C48"/>
<path fill-rule="evenodd" clip-rule="evenodd" d="M692.72 189.058C692.72 207.958 682.46 222.898 660.14 222.898C637.64 222.898 627.56 206.878 627.56 188.338V114.718H613.16V189.418C613.16 216.958 629.72 235.498 660.14 235.498C690.2 235.498 706.94 216.058 706.94 189.598V114.718H692.72V189.058ZM691.72 113.718H707.94V189.598C707.94 203.039 703.686 214.781 695.53 223.168C687.368 231.561 675.393 236.498 660.14 236.498C644.724 236.498 632.699 231.796 624.53 223.487C616.363 215.182 612.16 203.387 612.16 189.418V113.718H628.56V188.338C628.56 197.44 631.035 205.829 636.177 211.926C641.297 217.997 649.149 221.898 660.14 221.898C671.062 221.898 678.914 218.252 684.049 212.406C689.201 206.539 691.72 198.338 691.72 189.058V113.718Z" fill="#7E3C48"/>
<path fill-rule="evenodd" clip-rule="evenodd" d="M467.106 218.553C456.304 207.361 450.513 191.799 450.513 174.298C450.513 139.358 478.509 111.738 513.433 111.738C549.643 111.738 575.813 139.383 575.813 174.298C575.813 209.401 549.815 236.498 513.433 236.498C493.666 236.498 477.915 229.751 467.106 218.553ZM513.433 126.338C486.324 126.338 467.453 147.43 467.453 174.298C467.453 187.945 471.838 199.885 479.741 208.403C487.636 216.912 499.107 222.078 513.433 222.078C541.425 222.078 559.413 200.465 559.413 174.298C559.413 147.783 540.715 126.338 513.433 126.338ZM451.513 174.298C451.513 208.858 474.373 235.498 513.433 235.498C549.253 235.498 574.813 208.858 574.813 174.298C574.813 139.918 549.073 112.738 513.433 112.738C479.053 112.738 451.513 139.918 451.513 174.298ZM466.453 174.298C466.453 146.938 485.713 125.338 513.433 125.338C541.333 125.338 560.413 147.298 560.413 174.298C560.413 200.938 542.053 223.078 513.433 223.078C484.273 223.078 466.453 202.018 466.453 174.298Z" fill="#7E3C48"/>
<path fill-rule="evenodd" clip-rule="evenodd" d="M352.796 207.958H355.676L398.876 148.918L399.416 149.278C399.416 149.29 399.416 149.302 399.416 149.313C399.416 149.5 399.416 149.687 399.416 149.874C399.415 164.259 399.37 177.95 399.326 191.62C399.282 205.117 399.238 218.594 399.236 232.698C399.236 233.031 399.236 233.365 399.236 233.698H413.096V113.818H410.036C403.856 122.218 397.657 130.617 391.457 139.016C379.265 155.534 367.073 172.052 355.034 188.571C354.828 188.853 354.622 189.136 354.416 189.418C354.209 189.137 354.001 188.855 353.794 188.574C346.051 178.055 338.215 167.537 330.38 157.019C319.654 142.618 308.927 128.218 298.436 113.818H295.376V233.698H309.236V150.718C309.347 150.718 309.389 150.65 309.448 150.555C309.484 150.496 309.527 150.427 309.596 150.358L352.796 207.958ZM310.236 152.878V234.698H294.376V112.818H298.944L299.244 113.229C309.736 127.63 320.454 142.018 331.175 156.411C338.947 166.845 346.721 177.281 354.412 187.726C366.392 171.291 378.524 154.855 390.654 138.421C396.853 130.022 403.052 121.623 409.23 113.226L409.53 112.818H414.096V234.698H398.236V233.698C398.236 219.236 398.281 205.447 398.325 191.638L398.326 191.553C398.369 178.337 398.412 165.103 398.415 151.241L356.183 208.958H352.296L310.236 152.878Z" fill="#7E3C48"/>
<path fill-rule="evenodd" clip-rule="evenodd" d="M250.567 234.698L239.227 207.878H184.576L173.416 234.698H157L210.436 112.638H214.445L267.515 234.698H250.567ZM183.909 206.878H239.889L251.229 233.698H265.989L213.789 113.638H211.089L158.529 233.698H172.749L183.909 206.878ZM188.409 196.258H235.569L212.349 141.898H211.629L188.409 196.258ZM211.989 143.601L189.924 195.258H234.055L211.989 143.601Z" fill="#7E3C48"/>
<g opacity="0.6">
<path d="M252.897 1276H250.988V1245.34H252.897V1276ZM263.397 1276H261.488V1255.49L258.995 1269.1L256.502 1255.49V1276H254.593V1245.34H256.502L258.995 1259.33L261.488 1245.34H263.397V1276ZM273.83 1276H271.921V1255.49L269.428 1269.1L266.934 1255.49V1276H265.025V1245.34H266.934L269.428 1259.33L271.921 1245.34H273.83V1276ZM281.994 1276H275.48V1245.34H281.994V1247.25H277.412V1259.72H281.23V1261.62H277.412V1274.09H281.994V1276ZM290.81 1276H288.9V1264.3C288.9 1263.65 288.743 1263.07 288.429 1262.55C288.069 1261.93 287.583 1261.62 286.969 1261.62H285.06V1276H283.15V1245.34H286.969C288.122 1245.34 289.073 1245.83 289.821 1246.82C290.48 1247.74 290.81 1248.77 290.81 1249.92V1256.26C290.81 1257.19 290.57 1258.08 290.091 1258.95C289.612 1259.81 288.953 1260.37 288.114 1260.66C288.953 1260.97 289.612 1261.55 290.091 1262.39C290.57 1263.23 290.81 1264.13 290.81 1265.08V1276ZM288.9 1257.02V1249.92C288.9 1249.28 288.743 1248.69 288.429 1248.17C288.069 1247.56 287.583 1247.25 286.969 1247.25H285.06V1259.72H286.969C287.583 1259.72 288.069 1259.41 288.429 1258.79C288.743 1258.29 288.9 1257.69 288.9 1257.02ZM300.007 1271.6C300.007 1272.77 299.67 1273.8 298.996 1274.7C298.247 1275.67 297.304 1276.16 296.166 1276.16C295.028 1276.16 294.085 1275.67 293.336 1274.7C292.662 1273.8 292.325 1272.77 292.325 1271.6V1268.34H294.257V1271.6C294.257 1272.24 294.407 1272.83 294.706 1273.35C295.065 1273.96 295.552 1274.27 296.166 1274.27C296.78 1274.27 297.267 1273.96 297.626 1273.35C297.925 1272.83 298.075 1272.24 298.075 1271.6V1268.14C298.075 1266.4 297.581 1264.7 296.593 1263.04C295.664 1261.68 294.744 1260.28 293.83 1258.86C292.827 1257.14 292.325 1255.25 292.325 1253.2V1249.74C292.325 1248.56 292.662 1247.53 293.336 1246.64C294.07 1245.64 295.013 1245.14 296.166 1245.14C297.319 1245.14 298.262 1245.64 298.996 1246.64C299.67 1247.53 300.007 1248.56 300.007 1249.74V1253H298.075V1249.74C298.075 1249.08 297.925 1248.49 297.626 1247.97C297.267 1247.35 296.78 1247.05 296.166 1247.05C295.552 1247.05 295.065 1247.35 294.706 1247.97C294.407 1248.49 294.257 1249.08 294.257 1249.74V1253.2C294.257 1254.94 294.751 1256.64 295.739 1258.3C296.653 1259.68 297.574 1261.07 298.502 1262.48C299.505 1264.22 300.007 1266.1 300.007 1268.14V1271.6ZM308.081 1276H301.567V1245.34H308.081V1247.25H303.499V1259.72H307.317V1261.62H303.499V1274.09H308.081V1276ZM326.633 1245.34L324.746 1258.1C324.597 1258.82 324.439 1259.71 324.275 1260.77C324.125 1261.82 323.96 1263.06 323.78 1264.5C323.736 1265.79 323.713 1267.07 323.713 1268.34C323.713 1268.76 323.713 1269.29 323.713 1269.94C323.713 1270.56 323.721 1271.31 323.736 1272.18C323.75 1273.04 323.758 1273.78 323.758 1274.43C323.773 1275.06 323.78 1275.58 323.78 1276H321.804V1265.8C321.804 1265.41 321.722 1264.58 321.557 1263.31C321.407 1262.02 321.167 1260.28 320.838 1258.1L318.951 1245.34H320.95L322.792 1259.85L324.634 1245.34H326.633ZM335.112 1271.6C335.112 1272.75 334.782 1273.78 334.123 1274.7C333.375 1275.67 332.431 1276.16 331.293 1276.16C330.14 1276.16 329.189 1275.67 328.441 1274.7C327.782 1273.78 327.452 1272.75 327.452 1271.6V1249.74C327.452 1248.56 327.782 1247.53 328.441 1246.64C329.174 1245.64 330.125 1245.14 331.293 1245.14C332.446 1245.14 333.39 1245.64 334.123 1246.64C334.782 1247.53 335.112 1248.56 335.112 1249.74V1271.6ZM333.202 1271.6V1249.74C333.202 1249.08 333.045 1248.49 332.731 1247.97C332.386 1247.35 331.907 1247.05 331.293 1247.05C330.679 1247.05 330.193 1247.35 329.833 1247.97C329.519 1248.49 329.362 1249.08 329.362 1249.74V1271.6C329.362 1272.26 329.519 1272.84 329.833 1273.35C330.193 1273.96 330.679 1274.27 331.293 1274.27C331.907 1274.27 332.386 1273.96 332.731 1273.35C333.045 1272.84 333.202 1272.26 333.202 1271.6ZM344.421 1271.6C344.421 1272.75 344.092 1273.78 343.433 1274.7C342.684 1275.67 341.733 1276.16 340.58 1276.16C339.442 1276.16 338.499 1275.67 337.75 1274.7C337.091 1273.78 336.762 1272.75 336.762 1271.6V1245.34H338.671V1271.6C338.671 1272.24 338.821 1272.83 339.12 1273.35C339.48 1273.96 339.966 1274.27 340.58 1274.27C341.194 1274.27 341.681 1273.96 342.04 1273.35C342.355 1272.84 342.512 1272.26 342.512 1271.6V1245.34H344.421V1271.6ZM353.731 1276H351.822V1264.3C351.822 1263.65 351.664 1263.07 351.35 1262.55C350.991 1261.93 350.504 1261.62 349.89 1261.62H347.981V1276H346.072V1245.34H349.89C351.043 1245.34 351.994 1245.83 352.742 1246.82C353.401 1247.74 353.731 1248.77 353.731 1249.92V1256.26C353.731 1257.19 353.491 1258.08 353.012 1258.95C352.533 1259.81 351.874 1260.37 351.035 1260.66C351.874 1260.97 352.533 1261.55 353.012 1262.39C353.491 1263.23 353.731 1264.13 353.731 1265.08V1276ZM351.822 1257.02V1249.92C351.822 1249.28 351.664 1248.69 351.35 1248.17C350.991 1247.56 350.504 1247.25 349.89 1247.25H347.981V1259.72H349.89C350.504 1259.72 350.991 1259.41 351.35 1258.79C351.664 1258.29 351.822 1257.69 351.822 1257.02ZM362.928 1271.6C362.928 1272.77 362.591 1273.8 361.917 1274.7C361.169 1275.67 360.225 1276.16 359.087 1276.16C357.949 1276.16 357.006 1275.67 356.257 1274.7C355.583 1273.8 355.246 1272.77 355.246 1271.6V1268.34H357.178V1271.6C357.178 1272.24 357.328 1272.83 357.627 1273.35C357.987 1273.96 358.473 1274.27 359.087 1274.27C359.701 1274.27 360.188 1273.96 360.547 1273.35C360.847 1272.83 360.996 1272.24 360.996 1271.6V1268.14C360.996 1266.4 360.502 1264.7 359.514 1263.04C358.586 1261.68 357.665 1260.28 356.751 1258.86C355.748 1257.14 355.246 1255.25 355.246 1253.2V1249.74C355.246 1248.56 355.583 1247.53 356.257 1246.64C356.991 1245.64 357.934 1245.14 359.087 1245.14C360.24 1245.14 361.184 1245.64 361.917 1246.64C362.591 1247.53 362.928 1248.56 362.928 1249.74V1253H360.996V1249.74C360.996 1249.08 360.847 1248.49 360.547 1247.97C360.188 1247.35 359.701 1247.05 359.087 1247.05C358.473 1247.05 357.987 1247.35 357.627 1247.97C357.328 1248.49 357.178 1249.08 357.178 1249.74V1253.2C357.178 1254.94 357.672 1256.64 358.66 1258.3C359.574 1259.68 360.495 1261.07 361.423 1262.48C362.426 1264.22 362.928 1266.1 362.928 1268.14V1271.6ZM371.002 1276H364.489V1245.34H371.002V1247.25H366.42V1259.72H370.239V1261.62H366.42V1274.09H371.002V1276ZM378.672 1276H372.159V1245.34H374.068V1274.09H378.672V1276ZM386.252 1247.25H381.67V1259.72H385.489V1261.62H381.67V1276H379.739V1245.34H386.252V1247.25ZM399.301 1276H397.392V1253H399.301V1276ZM408.656 1276H406.747L402.906 1260.86V1276H400.997V1253H402.906L406.747 1268.14V1253H408.656V1276ZM417.539 1254.91H414.664V1276H412.755V1254.91H409.88V1253H417.539V1254.91ZM426.422 1271.6C426.422 1272.75 426.092 1273.78 425.433 1274.7C424.685 1275.67 423.741 1276.16 422.603 1276.16C421.45 1276.16 420.499 1275.67 419.751 1274.7C419.092 1273.78 418.762 1272.75 418.762 1271.6V1257.4C418.762 1256.25 419.092 1255.22 419.751 1254.3C420.484 1253.3 421.435 1252.8 422.603 1252.8C423.756 1252.8 424.7 1253.3 425.433 1254.3C426.092 1255.22 426.422 1256.25 426.422 1257.4V1271.6ZM424.512 1271.6V1257.4C424.512 1256.76 424.355 1256.17 424.041 1255.65C423.696 1255.04 423.217 1254.73 422.603 1254.73C421.989 1254.73 421.503 1255.04 421.143 1255.65C420.829 1256.17 420.672 1256.76 420.672 1257.4V1271.6C420.672 1272.26 420.829 1272.84 421.143 1273.35C421.503 1273.96 421.989 1274.27 422.603 1274.27C423.217 1274.27 423.696 1273.96 424.041 1273.35C424.355 1272.84 424.512 1272.26 424.512 1271.6ZM445.333 1254.91H442.458V1276H440.549V1254.91H437.674V1253H445.333V1254.91ZM454.261 1276H452.351V1265.47H448.511V1276H446.601V1253H448.511V1263.53H452.351V1253H454.261V1276ZM462.425 1276H455.911V1253H462.425V1254.91H457.82V1263.53H461.661V1265.47H457.82V1274.09H462.425V1276ZM481.381 1271.6C481.381 1272.75 481.051 1273.78 480.392 1274.7C479.644 1275.67 478.693 1276.16 477.54 1276.16C476.402 1276.16 475.459 1275.67 474.71 1274.7C474.051 1273.78 473.722 1272.75 473.722 1271.6V1249.74C473.722 1248.56 474.051 1247.53 474.71 1246.64C475.444 1245.64 476.387 1245.14 477.54 1245.14C478.708 1245.14 479.659 1245.64 480.392 1246.64C481.051 1247.53 481.381 1248.56 481.381 1249.74V1253H479.472V1249.74C479.472 1249.08 479.314 1248.49 479 1247.97C478.641 1247.35 478.154 1247.05 477.54 1247.05C476.926 1247.05 476.439 1247.35 476.08 1247.97C475.78 1248.49 475.631 1249.08 475.631 1249.74V1271.6C475.631 1272.24 475.78 1272.83 476.08 1273.35C476.439 1273.96 476.926 1274.27 477.54 1274.27C478.154 1274.27 478.641 1273.96 479 1273.35C479.314 1272.84 479.472 1272.26 479.472 1271.6V1268.34H481.381V1271.6ZM484.851 1276H482.941V1245.34H484.851V1276ZM494.205 1276H492.296L488.455 1255.49V1276H486.546V1245.34H488.455L492.296 1265.85V1245.34H494.205V1276ZM502.392 1276H495.878V1245.34H502.392V1247.25H497.81V1259.72H501.628V1261.62H497.81V1274.09H502.392V1276ZM512.353 1276H510.443V1255.49L507.95 1269.1L505.457 1255.49V1276H503.548V1245.34H505.457L507.95 1259.33L510.443 1245.34H512.353V1276ZM523.257 1276H521.258L520.562 1270.25H516.339L515.665 1276H513.666L517.417 1245.34H519.416L523.257 1276ZM520.337 1268.34L518.428 1252.51L516.541 1268.34H520.337ZM529.939 1247.25H527.064V1276H525.154V1247.25H522.279V1245.34H529.939V1247.25ZM538.777 1271.6C538.777 1272.75 538.447 1273.78 537.788 1274.7C537.04 1275.67 536.096 1276.16 534.958 1276.16C533.805 1276.16 532.854 1275.67 532.106 1274.7C531.447 1273.78 531.117 1272.75 531.117 1271.6V1249.74C531.117 1248.56 531.447 1247.53 532.106 1246.64C532.839 1245.64 533.79 1245.14 534.958 1245.14C536.111 1245.14 537.055 1245.64 537.788 1246.64C538.447 1247.53 538.777 1248.56 538.777 1249.74V1271.6ZM536.867 1271.6V1249.74C536.867 1249.08 536.71 1248.49 536.396 1247.97C536.051 1247.35 535.572 1247.05 534.958 1247.05C534.344 1247.05 533.858 1247.35 533.498 1247.97C533.184 1248.49 533.027 1249.08 533.027 1249.74V1271.6C533.027 1272.26 533.184 1272.84 533.498 1273.35C533.858 1273.96 534.344 1274.27 534.958 1274.27C535.572 1274.27 536.051 1273.96 536.396 1273.35C536.71 1272.84 536.867 1272.26 536.867 1271.6ZM548.086 1276H546.177V1274.65C545.578 1275.66 544.747 1276.16 543.684 1276.16C542.606 1276.16 541.775 1275.65 541.191 1274.63C540.682 1273.76 540.427 1272.75 540.427 1271.6V1249.74C540.427 1248.56 540.756 1247.53 541.415 1246.64C542.149 1245.64 543.092 1245.14 544.245 1245.14C545.413 1245.14 546.364 1245.64 547.098 1246.64C547.757 1247.53 548.086 1248.56 548.086 1249.74V1253H546.177V1249.74C546.177 1249.08 546.02 1248.49 545.705 1247.97C545.346 1247.35 544.859 1247.05 544.245 1247.05C543.631 1247.05 543.145 1247.35 542.785 1247.97C542.486 1248.49 542.336 1249.08 542.336 1249.74V1271.6C542.336 1272.24 542.486 1272.83 542.785 1273.35C543.145 1273.96 543.631 1274.27 544.245 1274.27C544.859 1274.27 545.346 1273.96 545.705 1273.35C546.02 1272.84 546.177 1272.26 546.177 1271.6V1261.62H544.245V1259.72H548.086V1276ZM557.396 1276H555.487V1264.3C555.487 1263.65 555.329 1263.07 555.015 1262.55C554.656 1261.93 554.169 1261.62 553.555 1261.62H551.646V1276H549.737V1245.34H553.555C554.708 1245.34 555.659 1245.83 556.407 1246.82C557.066 1247.74 557.396 1248.77 557.396 1249.92V1256.26C557.396 1257.19 557.156 1258.08 556.677 1258.95C556.198 1259.81 555.539 1260.37 554.7 1260.66C555.539 1260.97 556.198 1261.55 556.677 1262.39C557.156 1263.23 557.396 1264.13 557.396 1265.08V1276ZM555.487 1257.02V1249.92C555.487 1249.28 555.329 1248.69 555.015 1248.17C554.656 1247.56 554.169 1247.25 553.555 1247.25H551.646V1259.72H553.555C554.169 1259.72 554.656 1259.41 555.015 1258.79C555.329 1258.29 555.487 1257.69 555.487 1257.02ZM568.323 1276H566.324L565.627 1270.25H561.405L560.731 1276H558.732L562.483 1245.34H564.482L568.323 1276ZM565.403 1268.34L563.493 1252.51L561.607 1268.34H565.403ZM577.318 1257.02C577.318 1258.2 576.988 1259.24 576.329 1260.12C575.596 1261.12 574.645 1261.62 573.477 1261.62H571.568V1276H569.659V1245.34H573.477C574.63 1245.34 575.581 1245.83 576.329 1246.82C576.988 1247.74 577.318 1248.77 577.318 1249.92V1257.02ZM575.409 1257.02V1249.92C575.409 1249.28 575.251 1248.69 574.937 1248.17C574.577 1247.56 574.091 1247.25 573.477 1247.25H571.568V1259.72H573.477C574.091 1259.72 574.577 1259.41 574.937 1258.79C575.251 1258.29 575.409 1257.69 575.409 1257.02ZM586.133 1276H584.224V1261.62H580.383V1276H578.474V1245.34H580.383V1259.72H584.224V1245.34H586.133V1276ZM589.693 1276H587.784V1245.34H589.693V1276ZM599.047 1271.6C599.047 1272.75 598.718 1273.78 598.059 1274.7C597.31 1275.67 596.359 1276.16 595.206 1276.16C594.068 1276.16 593.125 1275.67 592.376 1274.7C591.718 1273.78 591.388 1272.75 591.388 1271.6V1249.74C591.388 1248.56 591.718 1247.53 592.376 1246.64C593.11 1245.64 594.053 1245.14 595.206 1245.14C596.374 1245.14 597.325 1245.64 598.059 1246.64C598.718 1247.53 599.047 1248.56 599.047 1249.74V1253H597.138V1249.74C597.138 1249.08 596.981 1248.49 596.666 1247.97C596.307 1247.35 595.82 1247.05 595.206 1247.05C594.593 1247.05 594.106 1247.35 593.747 1247.97C593.447 1248.49 593.297 1249.08 593.297 1249.74V1271.6C593.297 1272.24 593.447 1272.83 593.747 1273.35C594.106 1273.96 594.593 1274.27 595.206 1274.27C595.82 1274.27 596.307 1273.96 596.666 1273.35C596.981 1272.84 597.138 1272.26 597.138 1271.6V1268.34H599.047V1271.6ZM609.884 1276H607.885L607.189 1270.25H602.966L602.292 1276H600.293L604.044 1245.34H606.043L609.884 1276ZM606.964 1268.34L605.055 1252.51L603.168 1268.34H606.964ZM617.734 1276H611.22V1245.34H613.129V1274.09H617.734V1276ZM627.583 1265.47H619.923V1263.53H627.583V1265.47ZM636.937 1276H630.423V1245.34H632.333V1274.09H636.937V1276ZM639.89 1276H637.981V1245.34H639.89V1276ZM649.245 1276H647.246L643.495 1261.89V1276H641.586V1245.34H643.495V1259.33L647.246 1245.34H649.245L645.134 1260.66L649.245 1276ZM657.297 1276H650.783V1245.34H657.297V1247.25H652.715V1259.72H656.533V1261.62H652.715V1274.09H657.297V1276ZM675.062 1276H668.549V1245.34H675.062V1247.25H670.48V1259.72H674.299V1261.62H670.48V1274.09H675.062V1276ZM683.765 1276H681.766L679.925 1264.54L678.083 1276H676.084L678.936 1260.66L676.084 1245.34H678.083L679.925 1256.8L681.766 1245.34H683.765L680.935 1260.66L683.765 1276ZM692.963 1257.02C692.963 1258.2 692.633 1259.24 691.974 1260.12C691.241 1261.12 690.29 1261.62 689.122 1261.62H687.213V1276H685.304V1245.34H689.122C690.275 1245.34 691.226 1245.83 691.974 1246.82C692.633 1247.74 692.963 1248.77 692.963 1249.92V1257.02ZM691.054 1257.02V1249.92C691.054 1249.28 690.896 1248.69 690.582 1248.17C690.223 1247.56 689.736 1247.25 689.122 1247.25H687.213V1259.72H689.122C689.736 1259.72 690.223 1259.41 690.582 1258.79C690.896 1258.29 691.054 1257.69 691.054 1257.02ZM700.655 1276H694.142V1245.34H700.655V1247.25H696.073V1259.72H699.892V1261.62H696.073V1274.09H700.655V1276ZM709.471 1276H707.561V1264.3C707.561 1263.65 707.404 1263.07 707.09 1262.55C706.73 1261.93 706.244 1261.62 705.63 1261.62H703.721V1276H701.811V1245.34H705.63C706.783 1245.34 707.734 1245.83 708.482 1246.82C709.141 1247.74 709.471 1248.77 709.471 1249.92V1256.26C709.471 1257.19 709.231 1258.08 708.752 1258.95C708.273 1259.81 707.614 1260.37 706.775 1260.66C707.614 1260.97 708.273 1261.55 708.752 1262.39C709.231 1263.23 709.471 1264.13 709.471 1265.08V1276ZM707.561 1257.02V1249.92C707.561 1249.28 707.404 1248.69 707.09 1248.17C706.73 1247.56 706.244 1247.25 705.63 1247.25H703.721V1259.72H705.63C706.244 1259.72 706.73 1259.41 707.09 1258.79C707.404 1258.29 707.561 1257.69 707.561 1257.02ZM713.03 1276H711.121V1245.34H713.03V1276ZM721.262 1276H714.748V1245.34H721.262V1247.25H716.68V1259.72H720.498V1261.62H716.68V1274.09H721.262V1276ZM730.077 1276H728.168L724.327 1255.49V1276H722.418V1245.34H724.327L728.168 1265.85V1245.34H730.077V1276ZM739.387 1271.6C739.387 1272.75 739.057 1273.78 738.399 1274.7C737.65 1275.67 736.699 1276.16 735.546 1276.16C734.408 1276.16 733.465 1275.67 732.716 1274.7C732.057 1273.78 731.728 1272.75 731.728 1271.6V1249.74C731.728 1248.56 732.057 1247.53 732.716 1246.64C733.45 1245.64 734.393 1245.14 735.546 1245.14C736.714 1245.14 737.665 1245.64 738.399 1246.64C739.057 1247.53 739.387 1248.56 739.387 1249.74V1253H737.478V1249.74C737.478 1249.08 737.32 1248.49 737.006 1247.97C736.647 1247.35 736.16 1247.05 735.546 1247.05C734.932 1247.05 734.445 1247.35 734.086 1247.97C733.787 1248.49 733.637 1249.08 733.637 1249.74V1271.6C733.637 1272.24 733.787 1272.83 734.086 1273.35C734.445 1273.96 734.932 1274.27 735.546 1274.27C736.16 1274.27 736.647 1273.96 737.006 1273.35C737.32 1272.84 737.478 1272.26 737.478 1271.6V1268.34H739.387V1271.6ZM747.484 1276H740.97V1245.34H747.484V1247.25H742.902V1259.72H746.72V1261.62H742.902V1274.09H747.484V1276ZM291.337 1291.91H288.462V1313H286.553V1291.91H283.678V1290H291.337V1291.91ZM300.22 1308.6C300.22 1309.75 299.89 1310.78 299.232 1311.7C298.483 1312.67 297.539 1313.16 296.401 1313.16C295.248 1313.16 294.298 1312.67 293.549 1311.7C292.89 1310.78 292.561 1309.75 292.561 1308.6V1294.4C292.561 1293.25 292.89 1292.22 293.549 1291.3C294.283 1290.3 295.233 1289.8 296.401 1289.8C297.554 1289.8 298.498 1290.3 299.232 1291.3C299.89 1292.22 300.22 1293.25 300.22 1294.4V1308.6ZM298.311 1308.6V1294.4C298.311 1293.76 298.153 1293.17 297.839 1292.65C297.495 1292.04 297.015 1291.73 296.401 1291.73C295.788 1291.73 295.301 1292.04 294.941 1292.65C294.627 1293.17 294.47 1293.76 294.47 1294.4V1308.6C294.47 1309.26 294.627 1309.84 294.941 1310.35C295.301 1310.96 295.788 1311.27 296.401 1311.27C297.015 1311.27 297.495 1310.96 297.839 1310.35C298.153 1309.84 298.311 1309.26 298.311 1308.6ZM319.603 1308.4C319.603 1309.59 319.266 1310.63 318.592 1311.5C317.858 1312.5 316.915 1313 315.762 1313H311.921V1282.34H315.762C316.9 1282.34 317.843 1282.83 318.592 1283.82C319.266 1284.72 319.603 1285.75 319.603 1286.92V1308.4ZM317.671 1308.4V1286.92C317.671 1286.28 317.521 1285.69 317.222 1285.17C316.862 1284.56 316.376 1284.25 315.762 1284.25H313.853V1311.09H315.762C316.376 1311.09 316.862 1310.78 317.222 1310.17C317.521 1309.65 317.671 1309.05 317.671 1308.4ZM323.162 1313H321.253V1282.34H323.162V1313ZM332.405 1308.6C332.405 1309.77 332.068 1310.8 331.394 1311.7C330.645 1312.67 329.702 1313.16 328.564 1313.16C327.426 1313.16 326.482 1312.67 325.734 1311.7C325.06 1310.8 324.723 1309.77 324.723 1308.6V1305.34H326.655V1308.6C326.655 1309.24 326.804 1309.83 327.104 1310.35C327.463 1310.96 327.95 1311.27 328.564 1311.27C329.178 1311.27 329.664 1310.96 330.024 1310.35C330.323 1309.83 330.473 1309.24 330.473 1308.6V1305.14C330.473 1303.4 329.979 1301.7 328.99 1300.04C328.062 1298.68 327.141 1297.28 326.228 1295.86C325.225 1294.14 324.723 1292.25 324.723 1290.2V1286.74C324.723 1285.56 325.06 1284.53 325.734 1283.64C326.467 1282.64 327.411 1282.14 328.564 1282.14C329.717 1282.14 330.66 1282.64 331.394 1283.64C332.068 1284.53 332.405 1285.56 332.405 1286.74V1290H330.473V1286.74C330.473 1286.08 330.323 1285.49 330.024 1284.97C329.664 1284.35 329.178 1284.05 328.564 1284.05C327.95 1284.05 327.463 1284.35 327.104 1284.97C326.804 1285.49 326.655 1286.08 326.655 1286.74V1290.2C326.655 1291.94 327.149 1293.64 328.137 1295.3C329.05 1296.68 329.971 1298.07 330.9 1299.48C331.903 1301.22 332.405 1303.1 332.405 1305.14V1308.6ZM341.602 1308.6C341.602 1309.75 341.272 1310.78 340.614 1311.7C339.865 1312.67 338.914 1313.16 337.761 1313.16C336.623 1313.16 335.68 1312.67 334.931 1311.7C334.272 1310.78 333.943 1309.75 333.943 1308.6V1286.74C333.943 1285.56 334.272 1284.53 334.931 1283.64C335.665 1282.64 336.608 1282.14 337.761 1282.14C338.929 1282.14 339.88 1282.64 340.614 1283.64C341.272 1284.53 341.602 1285.56 341.602 1286.74V1290H339.693V1286.74C339.693 1286.08 339.535 1285.49 339.221 1284.97C338.862 1284.35 338.375 1284.05 337.761 1284.05C337.147 1284.05 336.66 1284.35 336.301 1284.97C336.002 1285.49 335.852 1286.08 335.852 1286.74V1308.6C335.852 1309.24 336.002 1309.83 336.301 1310.35C336.66 1310.96 337.147 1311.27 337.761 1311.27C338.375 1311.27 338.862 1310.96 339.221 1310.35C339.535 1309.84 339.693 1309.26 339.693 1308.6V1305.34H341.602V1308.6ZM350.777 1308.6C350.777 1309.75 350.447 1310.78 349.788 1311.7C349.04 1312.67 348.096 1313.16 346.958 1313.16C345.805 1313.16 344.854 1312.67 344.106 1311.7C343.447 1310.78 343.118 1309.75 343.118 1308.6V1286.74C343.118 1285.56 343.447 1284.53 344.106 1283.64C344.84 1282.64 345.79 1282.14 346.958 1282.14C348.111 1282.14 349.055 1282.64 349.788 1283.64C350.447 1284.53 350.777 1285.56 350.777 1286.74V1308.6ZM348.868 1308.6V1286.74C348.868 1286.08 348.71 1285.49 348.396 1284.97C348.051 1284.35 347.572 1284.05 346.958 1284.05C346.344 1284.05 345.858 1284.35 345.498 1284.97C345.184 1285.49 345.027 1286.08 345.027 1286.74V1308.6C345.027 1309.26 345.184 1309.84 345.498 1310.35C345.858 1310.96 346.344 1311.27 346.958 1311.27C347.572 1311.27 348.051 1310.96 348.396 1310.35C348.71 1309.84 348.868 1309.26 348.868 1308.6ZM361.659 1282.34L357.818 1313H355.819L352.068 1282.34H354.067L356.829 1305.83L359.66 1282.34H361.659ZM369.531 1313H363.017V1282.34H369.531V1284.25H364.949V1296.72H368.767V1298.62H364.949V1311.09H369.531V1313ZM378.346 1313H376.437V1301.3C376.437 1300.65 376.28 1300.07 375.965 1299.55C375.606 1298.93 375.119 1298.62 374.505 1298.62H372.596V1313H370.687V1282.34H374.505C375.658 1282.34 376.609 1282.83 377.358 1283.82C378.017 1284.74 378.346 1285.77 378.346 1286.92V1293.26C378.346 1294.19 378.107 1295.08 377.627 1295.95C377.148 1296.81 376.489 1297.37 375.651 1297.66C376.489 1297.97 377.148 1298.55 377.627 1299.39C378.107 1300.23 378.346 1301.13 378.346 1302.08V1313ZM376.437 1294.02V1286.92C376.437 1286.28 376.28 1285.69 375.965 1285.17C375.606 1284.56 375.119 1284.25 374.505 1284.25H372.596V1296.72H374.505C375.119 1296.72 375.606 1296.41 375.965 1295.79C376.28 1295.29 376.437 1294.69 376.437 1294.02ZM397.684 1308.6C397.684 1309.75 397.355 1310.78 396.696 1311.7C395.947 1312.67 395.004 1313.16 393.866 1313.16C392.713 1313.16 391.762 1312.67 391.013 1311.7C390.354 1310.78 390.025 1309.75 390.025 1308.6V1294.4C390.025 1293.25 390.354 1292.22 391.013 1291.3C391.747 1290.3 392.698 1289.8 393.866 1289.8C395.019 1289.8 395.962 1290.3 396.696 1291.3C397.355 1292.22 397.684 1293.25 397.684 1294.4V1308.6ZM395.775 1308.6V1294.4C395.775 1293.76 395.618 1293.17 395.303 1292.65C394.959 1292.04 394.48 1291.73 393.866 1291.73C393.252 1291.73 392.765 1292.04 392.406 1292.65C392.091 1293.17 391.934 1293.76 391.934 1294.4V1308.6C391.934 1309.26 392.091 1309.84 392.406 1310.35C392.765 1310.96 393.252 1311.27 393.866 1311.27C394.48 1311.27 394.959 1310.96 395.303 1310.35C395.618 1309.84 395.775 1309.26 395.775 1308.6ZM406.904 1308.6C406.904 1309.75 406.574 1310.78 405.916 1311.7C405.167 1312.67 404.224 1313.16 403.086 1313.16C401.933 1313.16 400.982 1312.67 400.233 1311.7C399.574 1310.78 399.245 1309.75 399.245 1308.6V1290H401.154V1308.6C401.154 1309.26 401.311 1309.84 401.626 1310.35C401.985 1310.96 402.472 1311.27 403.086 1311.27C403.699 1311.27 404.179 1310.96 404.523 1310.35C404.837 1309.84 404.995 1309.26 404.995 1308.6V1290H406.904V1308.6ZM416.213 1313H414.304V1305.14C414.304 1304.49 414.147 1303.91 413.833 1303.39C413.473 1302.77 412.987 1302.47 412.373 1302.47H410.463V1313H408.554V1290H412.373C413.541 1290 414.491 1290.5 415.225 1291.5C415.884 1292.39 416.213 1293.42 416.213 1294.6V1297.1C416.213 1298.03 415.974 1298.92 415.495 1299.79C415.016 1300.65 414.357 1301.22 413.518 1301.5C414.357 1301.78 415.016 1302.36 415.495 1303.23C415.974 1304.07 416.213 1304.96 416.213 1305.9V1313ZM414.304 1297.86V1294.6C414.304 1293.95 414.147 1293.35 413.833 1292.83C413.473 1292.22 412.987 1291.91 412.373 1291.91H410.463V1300.53H412.373C412.987 1300.53 413.473 1300.23 413.833 1299.61C414.147 1299.1 414.304 1298.52 414.304 1297.86ZM435.551 1313H433.642L429.801 1292.49V1313H427.892V1282.34H429.801L433.642 1302.85V1282.34H435.551V1313ZM443.738 1313H437.224V1282.34H443.738V1284.25H439.156V1296.72H442.974V1298.62H439.156V1311.09H443.738V1313ZM456.08 1282.34L454.171 1313H452.172L450.375 1298.42L448.555 1313H446.579L444.737 1282.34H446.736L447.769 1305.07L450.397 1288.09L452.98 1305.07L454.081 1282.34H456.08ZM464.109 1313H457.596V1282.34H464.109V1284.25H459.527V1296.72H463.346V1298.62H459.527V1311.09H464.109V1313ZM472.812 1308.6C472.812 1309.77 472.475 1310.8 471.802 1311.7C471.053 1312.67 470.11 1313.16 468.972 1313.16C467.834 1313.16 466.89 1312.67 466.141 1311.7C465.468 1310.8 465.131 1309.77 465.131 1308.6V1305.34H467.062V1308.6C467.062 1309.24 467.212 1309.83 467.512 1310.35C467.871 1310.96 468.358 1311.27 468.972 1311.27C469.585 1311.27 470.072 1310.96 470.431 1310.35C470.731 1309.83 470.881 1309.24 470.881 1308.6V1305.14C470.881 1303.4 470.387 1301.7 469.398 1300.04C468.47 1298.68 467.549 1297.28 466.636 1295.86C465.632 1294.14 465.131 1292.25 465.131 1290.2V1286.74C465.131 1285.56 465.468 1284.53 466.141 1283.64C466.875 1282.64 467.819 1282.14 468.972 1282.14C470.125 1282.14 471.068 1282.64 471.802 1283.64C472.475 1284.53 472.812 1285.56 472.812 1286.74V1290H470.881V1286.74C470.881 1286.08 470.731 1285.49 470.431 1284.97C470.072 1284.35 469.585 1284.05 468.972 1284.05C468.358 1284.05 467.871 1284.35 467.512 1284.97C467.212 1285.49 467.062 1286.08 467.062 1286.74V1290.2C467.062 1291.94 467.556 1293.64 468.545 1295.3C469.458 1296.68 470.379 1298.07 471.307 1299.48C472.311 1301.22 472.812 1303.1 472.812 1305.14V1308.6ZM481.538 1284.25H478.663V1313H476.754V1284.25H473.879V1282.34H481.538V1284.25ZM500.494 1308.6C500.494 1309.75 500.165 1310.78 499.506 1311.7C498.757 1312.67 497.806 1313.16 496.653 1313.16C495.515 1313.16 494.572 1312.67 493.823 1311.7C493.164 1310.78 492.835 1309.75 492.835 1308.6V1286.74C492.835 1285.56 493.164 1284.53 493.823 1283.64C494.557 1282.64 495.5 1282.14 496.653 1282.14C497.821 1282.14 498.772 1282.64 499.506 1283.64C500.165 1284.53 500.494 1285.56 500.494 1286.74V1290H498.585V1286.74C498.585 1286.08 498.428 1285.49 498.113 1284.97C497.754 1284.35 497.267 1284.05 496.653 1284.05C496.039 1284.05 495.553 1284.35 495.193 1284.97C494.894 1285.49 494.744 1286.08 494.744 1286.74V1308.6C494.744 1309.24 494.894 1309.83 495.193 1310.35C495.553 1310.96 496.039 1311.27 496.653 1311.27C497.267 1311.27 497.754 1310.96 498.113 1310.35C498.428 1309.84 498.585 1309.26 498.585 1308.6V1305.34H500.494V1308.6ZM509.669 1308.6C509.669 1309.75 509.34 1310.78 508.681 1311.7C507.932 1312.67 506.989 1313.16 505.851 1313.16C504.698 1313.16 503.747 1312.67 502.998 1311.7C502.339 1310.78 502.01 1309.75 502.01 1308.6V1286.74C502.01 1285.56 502.339 1284.53 502.998 1283.64C503.732 1282.64 504.683 1282.14 505.851 1282.14C507.004 1282.14 507.947 1282.64 508.681 1283.64C509.34 1284.53 509.669 1285.56 509.669 1286.74V1308.6ZM507.76 1308.6V1286.74C507.76 1286.08 507.603 1285.49 507.288 1284.97C506.944 1284.35 506.465 1284.05 505.851 1284.05C505.237 1284.05 504.75 1284.35 504.391 1284.97C504.076 1285.49 503.919 1286.08 503.919 1286.74V1308.6C503.919 1309.26 504.076 1309.84 504.391 1310.35C504.75 1310.96 505.237 1311.27 505.851 1311.27C506.465 1311.27 506.944 1310.96 507.288 1310.35C507.603 1309.84 507.76 1309.26 507.76 1308.6ZM517.833 1313H511.319V1282.34H513.229V1311.09H517.833V1313ZM525.391 1313H518.877V1282.34H520.786V1311.09H525.391V1313ZM532.971 1313H526.457V1282.34H532.971V1284.25H528.389V1296.72H532.207V1298.62H528.389V1311.09H532.971V1313ZM541.786 1308.6C541.786 1309.75 541.457 1310.78 540.798 1311.7C540.049 1312.67 539.098 1313.16 537.945 1313.16C536.807 1313.16 535.864 1312.67 535.115 1311.7C534.457 1310.78 534.127 1309.75 534.127 1308.6V1286.74C534.127 1285.56 534.457 1284.53 535.115 1283.64C535.849 1282.64 536.793 1282.14 537.945 1282.14C539.113 1282.14 540.064 1282.64 540.798 1283.64C541.457 1284.53 541.786 1285.56 541.786 1286.74V1290H539.877V1286.74C539.877 1286.08 539.72 1285.49 539.405 1284.97C539.046 1284.35 538.559 1284.05 537.945 1284.05C537.332 1284.05 536.845 1284.35 536.486 1284.97C536.186 1285.49 536.036 1286.08 536.036 1286.74V1308.6C536.036 1309.24 536.186 1309.83 536.486 1310.35C536.845 1310.96 537.332 1311.27 537.945 1311.27C538.559 1311.27 539.046 1310.96 539.405 1310.35C539.72 1309.84 539.877 1309.26 539.877 1308.6V1305.34H541.786V1308.6ZM550.534 1284.25H547.659V1313H545.75V1284.25H542.875V1282.34H550.534V1284.25ZM553.667 1313H551.758V1282.34H553.667V1313ZM562.977 1308.6C562.977 1309.75 562.647 1310.78 561.989 1311.7C561.24 1312.67 560.297 1313.16 559.159 1313.16C558.006 1313.16 557.055 1312.67 556.306 1311.7C555.647 1310.78 555.318 1309.75 555.318 1308.6V1286.74C555.318 1285.56 555.647 1284.53 556.306 1283.64C557.04 1282.64 557.991 1282.14 559.159 1282.14C560.312 1282.14 561.255 1282.64 561.989 1283.64C562.647 1284.53 562.977 1285.56 562.977 1286.74V1308.6ZM561.068 1308.6V1286.74C561.068 1286.08 560.91 1285.49 560.596 1284.97C560.252 1284.35 559.772 1284.05 559.159 1284.05C558.545 1284.05 558.058 1284.35 557.699 1284.97C557.384 1285.49 557.227 1286.08 557.227 1286.74V1308.6C557.227 1309.26 557.384 1309.84 557.699 1310.35C558.058 1310.96 558.545 1311.27 559.159 1311.27C559.772 1311.27 560.252 1310.96 560.596 1310.35C560.91 1309.84 561.068 1309.26 561.068 1308.6ZM572.286 1313H570.377L566.536 1292.49V1313H564.627V1282.34H566.536L570.377 1302.85V1282.34H572.286V1313ZM590.748 1282.34L590.367 1286.16H589.221L588.839 1282.34H590.748ZM586.908 1282.34L586.526 1286.16H585.38L584.998 1282.34H586.908ZM601.069 1308.6C601.069 1309.75 600.739 1310.78 600.081 1311.7C599.332 1312.67 598.381 1313.16 597.228 1313.16C596.09 1313.16 595.147 1312.67 594.398 1311.7C593.739 1310.78 593.41 1309.75 593.41 1308.6V1286.74C593.41 1285.56 593.739 1284.53 594.398 1283.64C595.132 1282.64 596.075 1282.14 597.228 1282.14C598.396 1282.14 599.347 1282.64 600.081 1283.64C600.739 1284.53 601.069 1285.56 601.069 1286.74V1290H599.16V1286.74C599.16 1286.08 599.002 1285.49 598.688 1284.97C598.329 1284.35 597.842 1284.05 597.228 1284.05C596.614 1284.05 596.127 1284.35 595.768 1284.97C595.469 1285.49 595.319 1286.08 595.319 1286.74V1308.6C595.319 1309.24 595.469 1309.83 595.768 1310.35C596.127 1310.96 596.614 1311.27 597.228 1311.27C597.842 1311.27 598.329 1310.96 598.688 1310.35C599.002 1309.84 599.16 1309.26 599.16 1308.6V1305.34H601.069V1308.6ZM610.289 1313H608.379V1298.62H604.539V1313H602.629V1282.34H604.539V1296.72H608.379V1282.34H610.289V1313ZM621.215 1313H619.216L618.52 1307.25H614.297L613.624 1313H611.625L615.375 1282.34H617.375L621.215 1313ZM618.295 1305.34L616.386 1289.51L614.5 1305.34H618.295ZM630.211 1294.02C630.211 1295.2 629.881 1296.24 629.222 1297.12C628.489 1298.12 627.538 1298.62 626.37 1298.62H624.461V1313H622.551V1282.34H626.37C627.523 1282.34 628.474 1282.83 629.222 1283.82C629.881 1284.74 630.211 1285.77 630.211 1286.92V1294.02ZM628.301 1294.02V1286.92C628.301 1286.28 628.144 1285.69 627.83 1285.17C627.47 1284.56 626.984 1284.25 626.37 1284.25H624.461V1296.72H626.37C626.984 1296.72 627.47 1296.41 627.83 1295.79C628.144 1295.29 628.301 1294.69 628.301 1294.02ZM638.554 1284.25H635.679V1313H633.77V1284.25H630.895V1282.34H638.554V1284.25ZM646.314 1313H639.8V1282.34H646.314V1284.25H641.732V1296.72H645.55V1298.62H641.732V1311.09H646.314V1313ZM655.13 1313H653.22V1301.3C653.22 1300.65 653.063 1300.07 652.749 1299.55C652.389 1298.93 651.903 1298.62 651.289 1298.62H649.38V1313H647.47V1282.34H651.289C652.442 1282.34 653.393 1282.83 654.141 1283.82C654.8 1284.74 655.13 1285.77 655.13 1286.92V1293.26C655.13 1294.19 654.89 1295.08 654.411 1295.95C653.932 1296.81 653.273 1297.37 652.434 1297.66C653.273 1297.97 653.932 1298.55 654.411 1299.39C654.89 1300.23 655.13 1301.13 655.13 1302.08V1313ZM653.22 1294.02V1286.92C653.22 1286.28 653.063 1285.69 652.749 1285.17C652.389 1284.56 651.903 1284.25 651.289 1284.25H649.38V1296.72H651.289C651.903 1296.72 652.389 1296.41 652.749 1295.79C653.063 1295.29 653.22 1294.69 653.22 1294.02ZM674.557 1308.4C674.557 1309.59 674.22 1310.63 673.547 1311.5C672.813 1312.5 671.87 1313 670.717 1313H666.876V1282.34H670.717C671.855 1282.34 672.798 1282.83 673.547 1283.82C674.22 1284.72 674.557 1285.75 674.557 1286.92V1293.26C674.557 1294.19 674.318 1295.08 673.839 1295.95C673.359 1296.79 672.701 1297.36 671.862 1297.66C672.701 1297.97 673.359 1298.55 673.839 1299.39C674.318 1300.23 674.557 1301.13 674.557 1302.08V1308.4ZM672.626 1294.02V1286.92C672.626 1286.28 672.476 1285.69 672.177 1285.17C671.817 1284.56 671.33 1284.25 670.717 1284.25H668.807V1296.72H670.717C671.33 1296.72 671.817 1296.41 672.177 1295.79C672.476 1295.27 672.626 1294.68 672.626 1294.02ZM672.626 1308.4V1301.3C672.626 1300.65 672.476 1300.07 672.177 1299.55C671.817 1298.93 671.33 1298.62 670.717 1298.62H668.807V1311.09H670.717C671.33 1311.09 671.817 1310.78 672.177 1310.17C672.476 1309.65 672.626 1309.05 672.626 1308.4ZM683.822 1313H681.913V1301.3C681.913 1300.65 681.756 1300.07 681.441 1299.55C681.082 1298.93 680.595 1298.62 679.981 1298.62H678.072V1313H676.163V1282.34H679.981C681.134 1282.34 682.085 1282.83 682.834 1283.82C683.493 1284.74 683.822 1285.77 683.822 1286.92V1293.26C683.822 1294.19 683.582 1295.08 683.103 1295.95C682.624 1296.81 681.965 1297.37 681.127 1297.66C681.965 1297.97 682.624 1298.55 683.103 1299.39C683.582 1300.23 683.822 1301.13 683.822 1302.08V1313ZM681.913 1294.02V1286.92C681.913 1286.28 681.756 1285.69 681.441 1285.17C681.082 1284.56 680.595 1284.25 679.981 1284.25H678.072V1296.72H679.981C680.595 1296.72 681.082 1296.41 681.441 1295.79C681.756 1295.29 681.913 1294.69 681.913 1294.02ZM687.382 1313H685.473V1282.34H687.382V1313ZM696.781 1308.4C696.781 1309.59 696.444 1310.63 695.77 1311.5C695.037 1312.5 694.093 1313 692.94 1313H689.099V1282.34H692.94C694.078 1282.34 695.022 1282.83 695.77 1283.82C696.444 1284.72 696.781 1285.75 696.781 1286.92V1308.4ZM694.849 1308.4V1286.92C694.849 1286.28 694.7 1285.69 694.4 1285.17C694.041 1284.56 693.554 1284.25 692.94 1284.25H691.031V1311.09H692.94C693.554 1311.09 694.041 1310.78 694.4 1310.17C694.7 1309.65 694.849 1309.05 694.849 1308.4ZM704.968 1313H698.454V1282.34H704.968V1284.25H700.386V1296.72H704.204V1298.62H700.386V1311.09H704.968V1313ZM712.862 1282.34L712.48 1286.16H711.335L710.953 1282.34H712.862ZM709.021 1282.34L708.64 1286.16H707.494L707.112 1282.34H709.021Z" fill="#7E3C48"/>
</g>
<path d="M772.563 304.145H772.983L792.513 271.49H798.918L775.713 310.025V341H769.623V310.025L744.318 271.49H751.143L772.563 304.145Z" fill="#7E3C48"/>
<path d="M715.419 341L708.279 324.095H673.944L666.804 341H660.609L690.534 270.965H692.004L721.719 341H715.419ZM690.849 283.985L676.149 318.95H706.074L691.269 283.985H690.849Z" fill="#7E3C48"/>
<path d="M591.684 286.4H591.264L572.679 341.735H571.209L546.114 271.7H552.099L571.839 326.93H572.364L590.949 271.175H592.209L611.109 326.93H611.634L631.059 271.7H637.044L611.739 341.735H610.479L591.684 286.4Z" fill="#7E3C48"/>
<path d="M516.19 341L509.05 324.095H474.715L467.575 341H461.38L491.305 270.965H492.775L522.49 341H516.19ZM491.62 283.985L476.92 318.95H506.845L492.04 283.985H491.62Z" fill="#7E3C48"/>
<path d="M438.242 276.95H415.562V341H409.367V276.95H386.477V271.49H438.242V276.95Z" fill="#7E3C48"/>
<path d="M353.437 335.435V341H307.132V271.49H350.602V276.95H313.327V301.52H347.977V306.98H313.327V335.435H353.437Z" fill="#7E3C48"/>
<path d="M205.803 306.665C205.803 285.665 221.553 270.23 241.923 270.23C246.333 270.23 254.628 270.755 260.193 273.905V280.1C253.263 276.425 246.648 275.795 242.028 275.795C225.753 275.795 212.208 287.345 212.208 306.665C212.208 323.78 222.183 336.485 241.608 336.485C246.648 336.485 252.843 335.225 257.043 333.44V306.77H263.028V337.535C257.253 340.37 248.643 341.945 240.138 341.945C217.773 341.945 205.803 325.775 205.803 306.665Z" fill="#7E3C48"/>
</svg>
